solid OpenSCAD_Model
  facet normal -0.743147 -0.669128 0
    outer loop
      vertex -14.2136 -15.7858 0
      vertex -17.185 -12.4857 2
      vertex -17.185 -12.4857 0
    endloop
  endfacet
  facet normal -0.743147 -0.669128 0
    outer loop
      vertex -17.185 -12.4857 2
      vertex -14.2136 -15.7858 0
      vertex -14.2136 -15.7858 2
    endloop
  endfacet
  facet normal 0.951054 0.309023 0
    outer loop
      vertex 20.7777 4.41644 2
      vertex 19.4054 8.63985 0
      vertex 19.4054 8.63985 2
    endloop
  endfacet
  facet normal 0.951054 0.309023 0
    outer loop
      vertex 19.4054 8.63985 0
      vertex 20.7777 4.41644 2
      vertex 20.7777 4.41644 0
    endloop
  endfacet
  facet normal 0.994522 0.104531 0
    outer loop
      vertex 21.2419 0 2
      vertex 20.7777 4.41644 0
      vertex 20.7777 4.41644 2
    endloop
  endfacet
  facet normal 0.994522 0.104531 0
    outer loop
      vertex 20.7777 4.41644 0
      vertex 21.2419 0 2
      vertex 21.2419 0 0
    endloop
  endfacet
  facet normal 0.866026 0.5 0
    outer loop
      vertex 19.4054 8.63985 2
      vertex 17.185 12.4857 0
      vertex 17.185 12.4857 2
    endloop
  endfacet
  facet normal 0.866026 0.5 0
    outer loop
      vertex 17.185 12.4857 0
      vertex 19.4054 8.63985 2
      vertex 19.4054 8.63985 0
    endloop
  endfacet
  facet normal 0.951054 -0.309023 0
    outer loop
      vertex 19.4054 -8.63985 2
      vertex 20.7777 -4.41644 0
      vertex 20.7777 -4.41644 2
    endloop
  endfacet
  facet normal 0.951054 -0.309023 0
    outer loop
      vertex 20.7777 -4.41644 0
      vertex 19.4054 -8.63985 2
      vertex 19.4054 -8.63985 0
    endloop
  endfacet
  facet normal 0.587778 -0.809022 0
    outer loop
      vertex 10.6209 -18.396 0
      vertex 14.2136 -15.7858 2
      vertex 10.6209 -18.396 2
    endloop
  endfacet
  facet normal 0.587778 -0.809022 0
    outer loop
      vertex 14.2136 -15.7858 2
      vertex 10.6209 -18.396 0
      vertex 14.2136 -15.7858 0
    endloop
  endfacet
  facet normal 0.743147 -0.669128 0
    outer loop
      vertex 14.2136 -15.7858 2
      vertex 17.185 -12.4857 0
      vertex 17.185 -12.4857 2
    endloop
  endfacet
  facet normal 0.743147 -0.669128 0
    outer loop
      vertex 17.185 -12.4857 0
      vertex 14.2136 -15.7858 2
      vertex 14.2136 -15.7858 0
    endloop
  endfacet
  facet normal 0.994522 -0.104531 0
    outer loop
      vertex 20.7777 -4.41644 2
      vertex 21.2419 0 0
      vertex 21.2419 0 2
    endloop
  endfacet
  facet normal 0.994522 -0.104531 0
    outer loop
      vertex 21.2419 0 0
      vertex 20.7777 -4.41644 2
      vertex 20.7777 -4.41644 0
    endloop
  endfacet
  facet normal -0.406736 -0.913546 0
    outer loop
      vertex -10.6209 -18.396 0
      vertex -6.5641 -20.2022 2
      vertex -10.6209 -18.396 2
    endloop
  endfacet
  facet normal -0.406736 -0.913546 -0
    outer loop
      vertex -6.5641 -20.2022 2
      vertex -10.6209 -18.396 0
      vertex -6.5641 -20.2022 0
    endloop
  endfacet
  facet normal 0.406736 0.913546 -0
    outer loop
      vertex 10.6209 18.396 0
      vertex 6.5641 20.2022 2
      vertex 10.6209 18.396 2
    endloop
  endfacet
  facet normal 0.406736 0.913546 0
    outer loop
      vertex 6.5641 20.2022 2
      vertex 10.6209 18.396 0
      vertex 6.5641 20.2022 0
    endloop
  endfacet
  facet normal 0.743147 0.669128 0
    outer loop
      vertex 17.185 12.4857 2
      vertex 14.2136 15.7858 0
      vertex 14.2136 15.7858 2
    endloop
  endfacet
  facet normal 0.743147 0.669128 0
    outer loop
      vertex 14.2136 15.7858 0
      vertex 17.185 12.4857 2
      vertex 17.185 12.4857 0
    endloop
  endfacet
  facet normal -0.587778 -0.809022 0
    outer loop
      vertex -14.2136 -15.7858 0
      vertex -10.6209 -18.396 2
      vertex -14.2136 -15.7858 2
    endloop
  endfacet
  facet normal -0.587778 -0.809022 -0
    outer loop
      vertex -10.6209 -18.396 2
      vertex -14.2136 -15.7858 0
      vertex -10.6209 -18.396 0
    endloop
  endfacet
  facet normal -0.743147 0.669128 0
    outer loop
      vertex -17.185 12.4857 0
      vertex -14.2136 15.7858 2
      vertex -14.2136 15.7858 0
    endloop
  endfacet
  facet normal -0.743147 0.669128 0
    outer loop
      vertex -14.2136 15.7858 2
      vertex -17.185 12.4857 0
      vertex -17.185 12.4857 2
    endloop
  endfacet
  facet normal 0 1 -0
    outer loop
      vertex 2.22038 21.1255 0
      vertex -2.22038 21.1255 2
      vertex 2.22038 21.1255 2
    endloop
  endfacet
  facet normal 0 1 0
    outer loop
      vertex -2.22038 21.1255 2
      vertex 2.22038 21.1255 0
      vertex -2.22038 21.1255 0
    endloop
  endfacet
  facet normal 0.406736 -0.913546 0
    outer loop
      vertex 6.5641 -20.2022 0
      vertex 10.6209 -18.396 2
      vertex 6.5641 -20.2022 2
    endloop
  endfacet
  facet normal 0.406736 -0.913546 0
    outer loop
      vertex 10.6209 -18.396 2
      vertex 6.5641 -20.2022 0
      vertex 10.6209 -18.396 0
    endloop
  endfacet
  facet normal 0.207915 -0.978147 0
    outer loop
      vertex 2.22038 -21.1255 0
      vertex 6.5641 -20.2022 2
      vertex 2.22038 -21.1255 2
    endloop
  endfacet
  facet normal 0.207915 -0.978147 0
    outer loop
      vertex 6.5641 -20.2022 2
      vertex 2.22038 -21.1255 0
      vertex 6.5641 -20.2022 0
    endloop
  endfacet
  facet normal -0.951054 0.309023 0
    outer loop
      vertex -20.7777 4.41644 0
      vertex -19.4054 8.63985 2
      vertex -19.4054 8.63985 0
    endloop
  endfacet
  facet normal -0.951054 0.309023 0
    outer loop
      vertex -19.4054 8.63985 2
      vertex -20.7777 4.41644 0
      vertex -20.7777 4.41644 2
    endloop
  endfacet
  facet normal 0 0 -1
    outer loop
      vertex -19.2499 8.9093 0
      vertex -19.3019 8.8191 0
      vertex -19.3019 8.86777 0
    endloop
  endfacet
  facet normal 0 0 -1
    outer loop
      vertex 3 0 0
      vertex 21.2419 0 0
      vertex 20.7777 -4.41644 0
    endloop
  endfacet
  facet normal 0 0 -1
    outer loop
      vertex 3 0 0
      vertex 20.7777 -4.41644 0
      vertex 19.4054 -8.63985 0
    endloop
  endfacet
  facet normal 0 0 -1
    outer loop
      vertex 21.2419 0 0
      vertex 3 0 0
      vertex 20.7777 4.41644 0
    endloop
  endfacet
  facet normal 0 0 -1
    outer loop
      vertex 2.42705 -1.76336 0
      vertex 19.4054 -8.63985 0
      vertex 17.185 -12.4857 0
    endloop
  endfacet
  facet normal -0 0 -1
    outer loop
      vertex 20.7777 4.41644 0
      vertex 3 0 0
      vertex 19.4054 8.63985 0
    endloop
  endfacet
  facet normal 0 0 -1
    outer loop
      vertex 2.42705 -1.76336 0
      vertex 17.185 -12.4857 0
      vertex 14.2136 -15.7858 0
    endloop
  endfacet
  facet normal 0 0 -1
    outer loop
      vertex 2.42705 1.76336 0
      vertex 19.4054 8.63985 0
      vertex 3 0 0
    endloop
  endfacet
  facet normal 0 0 -1
    outer loop
      vertex 2.42705 -1.76336 0
      vertex 14.2136 -15.7858 0
      vertex 10.6209 -18.396 0
    endloop
  endfacet
  facet normal -0 0 -1
    outer loop
      vertex 19.4054 8.63985 0
      vertex 2.42705 1.76336 0
      vertex 17.185 12.4857 0
    endloop
  endfacet
  facet normal 0 0 -1
    outer loop
      vertex 0.927051 -2.85317 0
      vertex 10.6209 -18.396 0
      vertex 6.5641 -20.2022 0
    endloop
  endfacet
  facet normal -0 0 -1
    outer loop
      vertex 17.185 12.4857 0
      vertex 2.42705 1.76336 0
      vertex 14.2136 15.7858 0
    endloop
  endfacet
  facet normal -0 0 -1
    outer loop
      vertex 14.2136 15.7858 0
      vertex 2.42705 1.76336 0
      vertex 10.6209 18.396 0
    endloop
  endfacet
  facet normal 0 0 -1
    outer loop
      vertex 19.4054 -8.63985 0
      vertex 2.42705 -1.76336 0
      vertex 3 0 0
    endloop
  endfacet
  facet normal 0 0 -1
    outer loop
      vertex 0.927051 -2.85317 0
      vertex 6.5641 -20.2022 0
      vertex 2.22038 -21.1255 0
    endloop
  endfacet
  facet normal 0 0 -1
    outer loop
      vertex 10.6209 -18.396 0
      vertex 0.927051 -2.85317 0
      vertex 2.42705 -1.76336 0
    endloop
  endfacet
  facet normal 0 0 -1
    outer loop
      vertex 2.22038 -21.1255 0
      vertex -0.927051 -2.85317 0
      vertex 0.927051 -2.85317 0
    endloop
  endfacet
  facet normal 0 0 -1
    outer loop
      vertex -2.22038 -21.1255 0
      vertex -0.927051 -2.85317 0
      vertex 2.22038 -21.1255 0
    endloop
  endfacet
  facet normal 0 0 -1
    outer loop
      vertex -6.5641 -20.2022 0
      vertex -0.927051 -2.85317 0
      vertex -2.22038 -21.1255 0
    endloop
  endfacet
  facet normal 0 0 -1
    outer loop
      vertex -10.6209 -18.396 0
      vertex -0.927051 -2.85317 0
      vertex -6.5641 -20.2022 0
    endloop
  endfacet
  facet normal -0 0 -1
    outer loop
      vertex -0.927051 -2.85317 0
      vertex -10.6209 -18.396 0
      vertex -2.42705 -1.76336 0
    endloop
  endfacet
  facet normal 0 0 -1
    outer loop
      vertex 0.927051 2.85317 0
      vertex 10.6209 18.396 0
      vertex 2.42705 1.76336 0
    endloop
  endfacet
  facet normal -0 0 -1
    outer loop
      vertex 10.6209 18.396 0
      vertex 0.927051 2.85317 0
      vertex 6.5641 20.2022 0
    endloop
  endfacet
  facet normal -0 0 -1
    outer loop
      vertex 6.5641 20.2022 0
      vertex 0.927051 2.85317 0
      vertex 2.22038 21.1255 0
    endloop
  endfacet
  facet normal 0 0 -1
    outer loop
      vertex -0.927051 2.85317 0
      vertex 2.22038 21.1255 0
      vertex 0.927051 2.85317 0
    endloop
  endfacet
  facet normal 0 0 -1
    outer loop
      vertex -0.927051 2.85317 0
      vertex -2.22038 21.1255 0
      vertex 2.22038 21.1255 0
    endloop
  endfacet
  facet normal 0 0 -1
    outer loop
      vertex -10.6209 18.396 0
      vertex -0.927051 2.85317 0
      vertex -2.42705 1.76336 0
    endloop
  endfacet
  facet normal 0 0 -1
    outer loop
      vertex -19.4054 8.63985 0
      vertex -2.42705 1.76336 0
      vertex -3 0 0
    endloop
  endfacet
  facet normal 0 0 -1
    outer loop
      vertex -14.2136 -15.7858 0
      vertex -2.42705 -1.76336 0
      vertex -10.6209 -18.396 0
    endloop
  endfacet
  facet normal 0 0 -1
    outer loop
      vertex -0.927051 2.85317 0
      vertex -6.5641 20.2022 0
      vertex -2.22038 21.1255 0
    endloop
  endfacet
  facet normal 0 0 -1
    outer loop
      vertex -17.185 -12.4857 0
      vertex -2.42705 -1.76336 0
      vertex -14.2136 -15.7858 0
    endloop
  endfacet
  facet normal 0 0 -1
    outer loop
      vertex -0.927051 2.85317 0
      vertex -10.6209 18.396 0
      vertex -6.5641 20.2022 0
    endloop
  endfacet
  facet normal 0 0 -1
    outer loop
      vertex -19.4054 -8.63985 0
      vertex -2.42705 -1.76336 0
      vertex -17.185 -12.4857 0
    endloop
  endfacet
  facet normal 0 0 -1
    outer loop
      vertex -2.42705 1.76336 0
      vertex -14.2136 15.7858 0
      vertex -10.6209 18.396 0
    endloop
  endfacet
  facet normal -0 0 -1
    outer loop
      vertex -2.42705 -1.76336 0
      vertex -19.4054 -8.63985 0
      vertex -3 0 0
    endloop
  endfacet
  facet normal 0 0 -1
    outer loop
      vertex -2.42705 1.76336 0
      vertex -17.185 12.4857 0
      vertex -14.2136 15.7858 0
    endloop
  endfacet
  facet normal 0 0 -1
    outer loop
      vertex -2.42705 1.76336 0
      vertex -19.2499 8.9093 0
      vertex -17.185 12.4857 0
    endloop
  endfacet
  facet normal 0 0 -1
    outer loop
      vertex -20.7777 -4.41644 0
      vertex -3 0 0
      vertex -19.4054 -8.63985 0
    endloop
  endfacet
  facet normal 0 0 -1
    outer loop
      vertex -21.2419 0 0
      vertex -3 0 0
      vertex -20.7777 -4.41644 0
    endloop
  endfacet
  facet normal 0 -0 -1
    outer loop
      vertex -19.4054 8.63985 0
      vertex -3 0 0
      vertex -20.7777 4.41644 0
    endloop
  endfacet
  facet normal 0 0 -1
    outer loop
      vertex -2.42705 1.76336 0
      vertex -19.3019 8.8191 0
      vertex -19.2499 8.9093 0
    endloop
  endfacet
  facet normal 0 0 -1
    outer loop
      vertex -2.42705 1.76336 0
      vertex -19.4054 8.63985 0
      vertex -19.3019 8.8191 0
    endloop
  endfacet
  facet normal 0 0 -1
    outer loop
      vertex -3 0 0
      vertex -21.2419 0 0
      vertex -20.7777 4.41644 0
    endloop
  endfacet
  facet normal -0.951054 -0.309023 0
    outer loop
      vertex -19.4054 -8.63985 0
      vertex -20.7777 -4.41644 2
      vertex -20.7777 -4.41644 0
    endloop
  endfacet
  facet normal -0.951054 -0.309023 0
    outer loop
      vertex -20.7777 -4.41644 2
      vertex -19.4054 -8.63985 0
      vertex -19.4054 -8.63985 2
    endloop
  endfacet
  facet normal -0.406736 0.913546 0
    outer loop
      vertex -6.5641 20.2022 0
      vertex -10.6209 18.396 2
      vertex -6.5641 20.2022 2
    endloop
  endfacet
  facet normal -0.406736 0.913546 0
    outer loop
      vertex -10.6209 18.396 2
      vertex -6.5641 20.2022 0
      vertex -10.6209 18.396 0
    endloop
  endfacet
  facet normal 0 0 1
    outer loop
      vertex -19.3019 8.8191 2
      vertex -19.4054 8.63985 2
      vertex -19.3019 7.13223 2
    endloop
  endfacet
  facet normal 0 0 1
    outer loop
      vertex -3 0 2
      vertex -20.7777 -4.41644 2
      vertex -2.42705 -1.76336 2
    endloop
  endfacet
  facet normal 0 0 1
    outer loop
      vertex -2.42705 -1.76336 2
      vertex -17.185 -12.4857 2
      vertex -14.2136 -15.7858 2
    endloop
  endfacet
  facet normal 0 0 1
    outer loop
      vertex -21.2419 0 2
      vertex -16.253 6.43634 2
      vertex -17.945 6.05014 2
    endloop
  endfacet
  facet normal 0 0 1
    outer loop
      vertex -20.7777 4.41644 2
      vertex -17.945 6.05014 2
      vertex -19.3019 7.13223 2
    endloop
  endfacet
  facet normal 0 0 1
    outer loop
      vertex -2.42705 -1.76336 2
      vertex -19.4054 -8.63985 2
      vertex -17.185 -12.4857 2
    endloop
  endfacet
  facet normal 0 0 1
    outer loop
      vertex -20.7777 4.41644 2
      vertex -19.3019 7.13223 2
      vertex -19.4054 8.63985 2
    endloop
  endfacet
  facet normal 0 0 1
    outer loop
      vertex -17.945 6.05014 2
      vertex -20.7777 4.41644 2
      vertex -21.2419 0 2
    endloop
  endfacet
  facet normal 0 0 1
    outer loop
      vertex -2.42705 -1.76336 2
      vertex -20.7777 -4.41644 2
      vertex -19.4054 -8.63985 2
    endloop
  endfacet
  facet normal 0 0 1
    outer loop
      vertex -16.253 6.43634 2
      vertex -21.2419 0 2
      vertex -20.7777 -4.41644 2
    endloop
  endfacet
  facet normal -0 0 1
    outer loop
      vertex 0.927051 -2.85317 2
      vertex 10.6209 -18.396 2
      vertex 2.42705 -1.76336 2
    endloop
  endfacet
  facet normal 0 0 1
    outer loop
      vertex 10.6209 -18.396 2
      vertex 0.927051 -2.85317 2
      vertex 6.5641 -20.2022 2
    endloop
  endfacet
  facet normal 0 0 1
    outer loop
      vertex 6.5641 -20.2022 2
      vertex 0.927051 -2.85317 2
      vertex 2.22038 -21.1255 2
    endloop
  endfacet
  facet normal -0 0 1
    outer loop
      vertex -0.927051 -2.85317 2
      vertex 2.22038 -21.1255 2
      vertex 0.927051 -2.85317 2
    endloop
  endfacet
  facet normal 0 0 1
    outer loop
      vertex -0.927051 -2.85317 2
      vertex -2.22038 -21.1255 2
      vertex 2.22038 -21.1255 2
    endloop
  endfacet
  facet normal 0 0 1
    outer loop
      vertex -10.6209 -18.396 2
      vertex -0.927051 -2.85317 2
      vertex -2.42705 -1.76336 2
    endloop
  endfacet
  facet normal 0 0 1
    outer loop
      vertex -20.7777 -4.41644 2
      vertex -3 0 2
      vertex -16.253 6.43634 2
    endloop
  endfacet
  facet normal 0 0 1
    outer loop
      vertex -0.927051 2.85317 2
      vertex -15.5 8 2
      vertex -2.42705 1.76336 2
    endloop
  endfacet
  facet normal 0 0 1
    outer loop
      vertex -2.42705 1.76336 2
      vertex -16.253 6.43634 2
      vertex -3 0 2
    endloop
  endfacet
  facet normal -0 0 1
    outer loop
      vertex -16.253 6.43634 2
      vertex -2.42705 1.76336 2
      vertex -15.5 8 2
    endloop
  endfacet
  facet normal 0 0 1
    outer loop
      vertex -0.927051 -2.85317 2
      vertex -6.5641 -20.2022 2
      vertex -2.22038 -21.1255 2
    endloop
  endfacet
  facet normal 0 0 1
    outer loop
      vertex -15.5 8 2
      vertex -10.6209 18.396 2
      vertex -14.2136 15.7858 2
    endloop
  endfacet
  facet normal 0 0 1
    outer loop
      vertex -0.927051 -2.85317 2
      vertex -10.6209 -18.396 2
      vertex -6.5641 -20.2022 2
    endloop
  endfacet
  facet normal 0 0 1
    outer loop
      vertex -2.42705 -1.76336 2
      vertex -14.2136 -15.7858 2
      vertex -10.6209 -18.396 2
    endloop
  endfacet
  facet normal 0 0 1
    outer loop
      vertex -14.2136 15.7858 2
      vertex -16.253 9.56366 2
      vertex -15.5 8 2
    endloop
  endfacet
  facet normal -0 0 1
    outer loop
      vertex -17.185 12.4857 2
      vertex -16.253 9.56366 2
      vertex -14.2136 15.7858 2
    endloop
  endfacet
  facet normal 0 0 1
    outer loop
      vertex -17.185 12.4857 2
      vertex -17.945 9.94986 2
      vertex -16.253 9.56366 2
    endloop
  endfacet
  facet normal 0 -0 1
    outer loop
      vertex -17.945 9.94986 2
      vertex -17.185 12.4857 2
      vertex -19.2499 8.9093 2
    endloop
  endfacet
  facet normal 0 0 1
    outer loop
      vertex 17.055 6.05014 2
      vertex 21.2419 0 2
      vertex 20.7777 4.41644 2
    endloop
  endfacet
  facet normal -0 0 1
    outer loop
      vertex 18.747 6.43634 2
      vertex 20.7777 4.41644 2
      vertex 19.5 8 2
    endloop
  endfacet
  facet normal 0 0 1
    outer loop
      vertex 19.4054 8.63985 2
      vertex 19.5 8 2
      vertex 20.7777 4.41644 2
    endloop
  endfacet
  facet normal 0 0 1
    outer loop
      vertex 19.4054 8.63985 2
      vertex 18.747 9.56366 2
      vertex 19.5 8 2
    endloop
  endfacet
  facet normal 0 0 1
    outer loop
      vertex 17.185 12.4857 2
      vertex 18.747 9.56366 2
      vertex 19.4054 8.63985 2
    endloop
  endfacet
  facet normal 0 0 1
    outer loop
      vertex 17.185 12.4857 2
      vertex 17.055 9.94986 2
      vertex 18.747 9.56366 2
    endloop
  endfacet
  facet normal 0 0 1
    outer loop
      vertex 17.185 12.4857 2
      vertex 15.6981 8.86777 2
      vertex 17.055 9.94986 2
    endloop
  endfacet
  facet normal 0 0 1
    outer loop
      vertex 10.6209 18.396 2
      vertex 15.6981 8.86777 2
      vertex 14.2136 15.7858 2
    endloop
  endfacet
  facet normal 0 0 1
    outer loop
      vertex 14.2136 15.7858 2
      vertex 15.6981 8.86777 2
      vertex 17.185 12.4857 2
    endloop
  endfacet
  facet normal -0 0 1
    outer loop
      vertex 17.055 6.05014 2
      vertex 20.7777 4.41644 2
      vertex 18.747 6.43634 2
    endloop
  endfacet
  facet normal 0 0 1
    outer loop
      vertex 21.2419 0 2
      vertex 17.055 6.05014 2
      vertex 20.7777 -4.41644 2
    endloop
  endfacet
  facet normal -0 0 1
    outer loop
      vertex 3 0 2
      vertex 20.7777 -4.41644 2
      vertex 17.055 6.05014 2
    endloop
  endfacet
  facet normal 0 0 1
    outer loop
      vertex 20.7777 -4.41644 2
      vertex 3 0 2
      vertex 19.4054 -8.63985 2
    endloop
  endfacet
  facet normal 0 0 1
    outer loop
      vertex 3 0 2
      vertex 17.055 6.05014 2
      vertex 15.6981 7.13223 2
    endloop
  endfacet
  facet normal 0 0 1
    outer loop
      vertex 0.927051 2.85317 2
      vertex 15.6981 8.86777 2
      vertex 10.6209 18.396 2
    endloop
  endfacet
  facet normal -0 0 1
    outer loop
      vertex 2.42705 -1.76336 2
      vertex 19.4054 -8.63985 2
      vertex 3 0 2
    endloop
  endfacet
  facet normal 0 -0 1
    outer loop
      vertex 2.42705 1.76336 2
      vertex 15.6981 8.86777 2
      vertex 0.927051 2.85317 2
    endloop
  endfacet
  facet normal 0 0 1
    outer loop
      vertex 19.4054 -8.63985 2
      vertex 2.42705 -1.76336 2
      vertex 17.185 -12.4857 2
    endloop
  endfacet
  facet normal 0 0 1
    outer loop
      vertex 0.927051 2.85317 2
      vertex 10.6209 18.396 2
      vertex 6.5641 20.2022 2
    endloop
  endfacet
  facet normal 0 0 1
    outer loop
      vertex 17.185 -12.4857 2
      vertex 2.42705 -1.76336 2
      vertex 14.2136 -15.7858 2
    endloop
  endfacet
  facet normal 0 0 1
    outer loop
      vertex 14.2136 -15.7858 2
      vertex 2.42705 -1.76336 2
      vertex 10.6209 -18.396 2
    endloop
  endfacet
  facet normal 0 0 1
    outer loop
      vertex 15.6981 7.13223 2
      vertex 2.42705 1.76336 2
      vertex 3 0 2
    endloop
  endfacet
  facet normal 0 0 1
    outer loop
      vertex 0.927051 2.85317 2
      vertex 6.5641 20.2022 2
      vertex 2.22038 21.1255 2
    endloop
  endfacet
  facet normal 0 0 1
    outer loop
      vertex 15.6981 8.86777 2
      vertex 2.42705 1.76336 2
      vertex 15.6981 7.13223 2
    endloop
  endfacet
  facet normal 0 0 1
    outer loop
      vertex 2.22038 21.1255 2
      vertex -0.927051 2.85317 2
      vertex 0.927051 2.85317 2
    endloop
  endfacet
  facet normal -0 0 1
    outer loop
      vertex -2.22038 21.1255 2
      vertex -0.927051 2.85317 2
      vertex 2.22038 21.1255 2
    endloop
  endfacet
  facet normal -0 0 1
    outer loop
      vertex -6.5641 20.2022 2
      vertex -0.927051 2.85317 2
      vertex -2.22038 21.1255 2
    endloop
  endfacet
  facet normal -0 0 1
    outer loop
      vertex -10.6209 18.396 2
      vertex -0.927051 2.85317 2
      vertex -6.5641 20.2022 2
    endloop
  endfacet
  facet normal -0 0 1
    outer loop
      vertex -15.5 8 2
      vertex -0.927051 2.85317 2
      vertex -10.6209 18.396 2
    endloop
  endfacet
  facet normal -0.207915 -0.978147 0
    outer loop
      vertex -6.5641 -20.2022 0
      vertex -2.22038 -21.1255 2
      vertex -6.5641 -20.2022 2
    endloop
  endfacet
  facet normal -0.207915 -0.978147 -0
    outer loop
      vertex -2.22038 -21.1255 2
      vertex -6.5641 -20.2022 0
      vertex -2.22038 -21.1255 0
    endloop
  endfacet
  facet normal 0.207915 0.978147 -0
    outer loop
      vertex 6.5641 20.2022 0
      vertex 2.22038 21.1255 2
      vertex 6.5641 20.2022 2
    endloop
  endfacet
  facet normal 0.207915 0.978147 0
    outer loop
      vertex 2.22038 21.1255 2
      vertex 6.5641 20.2022 0
      vertex 2.22038 21.1255 0
    endloop
  endfacet
  facet normal -0.994522 -0.104531 0
    outer loop
      vertex -20.7777 -4.41644 0
      vertex -21.2419 0 2
      vertex -21.2419 0 0
    endloop
  endfacet
  facet normal -0.994522 -0.104531 0
    outer loop
      vertex -21.2419 0 2
      vertex -20.7777 -4.41644 0
      vertex -20.7777 -4.41644 2
    endloop
  endfacet
  facet normal -0.866026 -0.5 0
    outer loop
      vertex -17.185 -12.4857 0
      vertex -19.4054 -8.63985 2
      vertex -19.4054 -8.63985 0
    endloop
  endfacet
  facet normal -0.866026 -0.5 0
    outer loop
      vertex -19.4054 -8.63985 2
      vertex -17.185 -12.4857 0
      vertex -17.185 -12.4857 2
    endloop
  endfacet
  facet normal -0.866019 0.500012 0
    outer loop
      vertex -19.2499 8.9093 0
      vertex -17.185 12.4857 2
      vertex -17.185 12.4857 0
    endloop
  endfacet
  facet normal -0.866019 0.500012 0
    outer loop
      vertex -17.185 12.4857 2
      vertex -19.2499 8.9093 0
      vertex -19.2499 8.9093 2
    endloop
  endfacet
  facet normal -0.866005 0.500036 0
    outer loop
      vertex -19.4054 8.63985 0
      vertex -19.3019 8.8191 2
      vertex -19.3019 8.8191 0
    endloop
  endfacet
  facet normal -0.866005 0.500036 0
    outer loop
      vertex -19.3019 8.8191 2
      vertex -19.4054 8.63985 0
      vertex -19.4054 8.63985 2
    endloop
  endfacet
  facet normal 0.866026 -0.5 0
    outer loop
      vertex 17.185 -12.4857 2
      vertex 19.4054 -8.63985 0
      vertex 19.4054 -8.63985 2
    endloop
  endfacet
  facet normal 0.866026 -0.5 0
    outer loop
      vertex 19.4054 -8.63985 0
      vertex 17.185 -12.4857 2
      vertex 17.185 -12.4857 0
    endloop
  endfacet
  facet normal 0.587778 0.809022 -0
    outer loop
      vertex 14.2136 15.7858 0
      vertex 10.6209 18.396 2
      vertex 14.2136 15.7858 2
    endloop
  endfacet
  facet normal 0.587778 0.809022 0
    outer loop
      vertex 10.6209 18.396 2
      vertex 14.2136 15.7858 0
      vertex 10.6209 18.396 0
    endloop
  endfacet
  facet normal -0.587778 0.809022 0
    outer loop
      vertex -10.6209 18.396 0
      vertex -14.2136 15.7858 2
      vertex -10.6209 18.396 2
    endloop
  endfacet
  facet normal -0.587778 0.809022 0
    outer loop
      vertex -14.2136 15.7858 2
      vertex -10.6209 18.396 0
      vertex -14.2136 15.7858 0
    endloop
  endfacet
  facet normal -0.207915 0.978147 0
    outer loop
      vertex -2.22038 21.1255 0
      vertex -6.5641 20.2022 2
      vertex -2.22038 21.1255 2
    endloop
  endfacet
  facet normal -0.207915 0.978147 0
    outer loop
      vertex -6.5641 20.2022 2
      vertex -2.22038 21.1255 0
      vertex -6.5641 20.2022 0
    endloop
  endfacet
  facet normal 0 -1 0
    outer loop
      vertex -2.22038 -21.1255 0
      vertex 2.22038 -21.1255 2
      vertex -2.22038 -21.1255 2
    endloop
  endfacet
  facet normal 0 -1 -0
    outer loop
      vertex 2.22038 -21.1255 2
      vertex -2.22038 -21.1255 0
      vertex 2.22038 -21.1255 0
    endloop
  endfacet
  facet normal -0.994522 0.104531 0
    outer loop
      vertex -21.2419 0 0
      vertex -20.7777 4.41644 2
      vertex -20.7777 4.41644 0
    endloop
  endfacet
  facet normal -0.994522 0.104531 0
    outer loop
      vertex -20.7777 4.41644 2
      vertex -21.2419 0 0
      vertex -21.2419 0 2
    endloop
  endfacet
  facet normal 0.951057 0.309017 0
    outer loop
      vertex -2.42705 -1.76336 2
      vertex -3 0 0
      vertex -3 0 2
    endloop
  endfacet
  facet normal 0.951057 0.309017 0
    outer loop
      vertex -3 0 0
      vertex -2.42705 -1.76336 2
      vertex -2.42705 -1.76336 0
    endloop
  endfacet
  facet normal -0.587784 -0.809018 0
    outer loop
      vertex 0.927051 2.85317 0
      vertex 2.42705 1.76336 2
      vertex 0.927051 2.85317 2
    endloop
  endfacet
  facet normal -0.587784 -0.809018 -0
    outer loop
      vertex 2.42705 1.76336 2
      vertex 0.927051 2.85317 0
      vertex 2.42705 1.76336 0
    endloop
  endfacet
  facet normal -0.951057 -0.309017 0
    outer loop
      vertex 3 0 0
      vertex 2.42705 1.76336 2
      vertex 2.42705 1.76336 0
    endloop
  endfacet
  facet normal -0.951057 -0.309017 0
    outer loop
      vertex 2.42705 1.76336 2
      vertex 3 0 0
      vertex 3 0 2
    endloop
  endfacet
  facet normal 0 -1 0
    outer loop
      vertex -0.927051 2.85317 0
      vertex 0.927051 2.85317 2
      vertex -0.927051 2.85317 2
    endloop
  endfacet
  facet normal 0 -1 -0
    outer loop
      vertex 0.927051 2.85317 2
      vertex -0.927051 2.85317 0
      vertex 0.927051 2.85317 0
    endloop
  endfacet
  facet normal 0.587784 0.809018 -0
    outer loop
      vertex -0.927051 -2.85317 0
      vertex -2.42705 -1.76336 2
      vertex -0.927051 -2.85317 2
    endloop
  endfacet
  facet normal 0.587784 0.809018 0
    outer loop
      vertex -2.42705 -1.76336 2
      vertex -0.927051 -2.85317 0
      vertex -2.42705 -1.76336 0
    endloop
  endfacet
  facet normal -0.951057 0.309017 0
    outer loop
      vertex 2.42705 -1.76336 0
      vertex 3 0 2
      vertex 3 0 0
    endloop
  endfacet
  facet normal -0.951057 0.309017 0
    outer loop
      vertex 3 0 2
      vertex 2.42705 -1.76336 0
      vertex 2.42705 -1.76336 2
    endloop
  endfacet
  facet normal 0.587784 -0.809018 0
    outer loop
      vertex -2.42705 1.76336 0
      vertex -0.927051 2.85317 2
      vertex -2.42705 1.76336 2
    endloop
  endfacet
  facet normal 0.587784 -0.809018 0
    outer loop
      vertex -0.927051 2.85317 2
      vertex -2.42705 1.76336 0
      vertex -0.927051 2.85317 0
    endloop
  endfacet
  facet normal 0 1 -0
    outer loop
      vertex 0.927051 -2.85317 0
      vertex -0.927051 -2.85317 2
      vertex 0.927051 -2.85317 2
    endloop
  endfacet
  facet normal 0 1 0
    outer loop
      vertex -0.927051 -2.85317 2
      vertex 0.927051 -2.85317 0
      vertex -0.927051 -2.85317 0
    endloop
  endfacet
  facet normal -0.587784 0.809018 0
    outer loop
      vertex 2.42705 -1.76336 0
      vertex 0.927051 -2.85317 2
      vertex 2.42705 -1.76336 2
    endloop
  endfacet
  facet normal -0.587784 0.809018 0
    outer loop
      vertex 0.927051 -2.85317 2
      vertex 2.42705 -1.76336 0
      vertex 0.927051 -2.85317 0
    endloop
  endfacet
  facet normal 0.951057 -0.309017 0
    outer loop
      vertex -3 0 2
      vertex -2.42705 1.76336 0
      vertex -2.42705 1.76336 2
    endloop
  endfacet
  facet normal 0.951057 -0.309017 0
    outer loop
      vertex -2.42705 1.76336 0
      vertex -3 0 2
      vertex -3 0 0
    endloop
  endfacet
  facet normal 0.222528 0.974926 -0
    outer loop
      vertex -16.253 9.56366 2
      vertex -17.945 9.94986 6
      vertex -16.253 9.56366 6
    endloop
  endfacet
  facet normal 0.222528 0.974926 0
    outer loop
      vertex -17.945 9.94986 6
      vertex -16.253 9.56366 2
      vertex -17.945 9.94986 2
    endloop
  endfacet
  facet normal 0.900973 0.433875 0
    outer loop
      vertex -15.5 8 6
      vertex -16.253 9.56366 2
      vertex -16.253 9.56366 6
    endloop
  endfacet
  facet normal 0.900973 0.433875 0
    outer loop
      vertex -16.253 9.56366 2
      vertex -15.5 8 6
      vertex -15.5 8 2
    endloop
  endfacet
  facet normal 0.900973 -0.433875 0
    outer loop
      vertex -16.253 6.43634 6
      vertex -15.5 8 2
      vertex -15.5 8 6
    endloop
  endfacet
  facet normal 0.900973 -0.433875 0
    outer loop
      vertex -15.5 8 2
      vertex -16.253 6.43634 6
      vertex -16.253 6.43634 2
    endloop
  endfacet
  facet normal -0.623467 0.78185 0
    outer loop
      vertex -19.2499 8.9093 2
      vertex -17.945 9.94986 6
      vertex -17.945 9.94986 2
    endloop
  endfacet
  facet normal -0.623489 0.781832 1.20102e-05
    outer loop
      vertex -17.945 9.94986 6
      vertex -19.2499 8.9093 2
      vertex -19.3019 8.86777 6
    endloop
  endfacet
  facet normal -0.624053 0.781382 0
    outer loop
      vertex -19.3019 8.86777 0
      vertex -19.2499 8.9093 2
      vertex -19.2499 8.9093 0
    endloop
  endfacet
  facet normal -0.624053 0.781382 0
    outer loop
      vertex -19.2499 8.9093 2
      vertex -19.3019 8.86777 0
      vertex -19.3019 8.86777 6
    endloop
  endfacet
  facet normal 0 0 1
    outer loop
      vertex -16.253 9.56366 6
      vertex -16.253 6.43634 6
      vertex -15.5 8 6
    endloop
  endfacet
  facet normal 0 0 1
    outer loop
      vertex -17.945 9.94986 6
      vertex -16.253 6.43634 6
      vertex -16.253 9.56366 6
    endloop
  endfacet
  facet normal 0 0 1
    outer loop
      vertex -17.945 9.94986 6
      vertex -17.945 6.05014 6
      vertex -16.253 6.43634 6
    endloop
  endfacet
  facet normal -0 0 1
    outer loop
      vertex -19.3019 8.86777 6
      vertex -17.945 6.05014 6
      vertex -17.945 9.94986 6
    endloop
  endfacet
  facet normal 0 0 1
    outer loop
      vertex -17.945 6.05014 6
      vertex -19.3019 8.86777 6
      vertex -19.3019 7.13223 6
    endloop
  endfacet
  facet normal -0.623489 -0.781832 0
    outer loop
      vertex -19.3019 7.13223 2
      vertex -17.945 6.05014 6
      vertex -19.3019 7.13223 6
    endloop
  endfacet
  facet normal -0.623489 -0.781832 -0
    outer loop
      vertex -17.945 6.05014 6
      vertex -19.3019 7.13223 2
      vertex -17.945 6.05014 2
    endloop
  endfacet
  facet normal 0.222528 -0.974926 0
    outer loop
      vertex -17.945 6.05014 2
      vertex -16.253 6.43634 6
      vertex -17.945 6.05014 6
    endloop
  endfacet
  facet normal 0.222528 -0.974926 0
    outer loop
      vertex -16.253 6.43634 6
      vertex -17.945 6.05014 2
      vertex -16.253 6.43634 2
    endloop
  endfacet
  facet normal -1 0 0
    outer loop
      vertex -19.3019 8.8191 2
      vertex -19.3019 8.86777 0
      vertex -19.3019 8.8191 0
    endloop
  endfacet
  facet normal -1 0 0
    outer loop
      vertex -19.3019 8.86777 0
      vertex -19.3019 8.8191 2
      vertex -19.3019 8.86777 6
    endloop
  endfacet
  facet normal -1 0 0
    outer loop
      vertex -19.3019 7.13223 6
      vertex -19.3019 8.8191 2
      vertex -19.3019 7.13223 2
    endloop
  endfacet
  facet normal -1 0 0
    outer loop
      vertex -19.3019 8.8191 2
      vertex -19.3019 7.13223 6
      vertex -19.3019 8.86777 6
    endloop
  endfacet
  facet normal 0.222528 0.974926 -0
    outer loop
      vertex 18.747 9.56366 2
      vertex 17.055 9.94986 6
      vertex 18.747 9.56366 6
    endloop
  endfacet
  facet normal 0.222528 0.974926 0
    outer loop
      vertex 17.055 9.94986 6
      vertex 18.747 9.56366 2
      vertex 17.055 9.94986 2
    endloop
  endfacet
  facet normal 0.900973 0.433875 0
    outer loop
      vertex 19.5 8 6
      vertex 18.747 9.56366 2
      vertex 18.747 9.56366 6
    endloop
  endfacet
  facet normal 0.900973 0.433875 0
    outer loop
      vertex 18.747 9.56366 2
      vertex 19.5 8 6
      vertex 19.5 8 2
    endloop
  endfacet
  facet normal 0.900973 -0.433875 0
    outer loop
      vertex 18.747 6.43634 6
      vertex 19.5 8 2
      vertex 19.5 8 6
    endloop
  endfacet
  facet normal 0.900973 -0.433875 0
    outer loop
      vertex 19.5 8 2
      vertex 18.747 6.43634 6
      vertex 18.747 6.43634 2
    endloop
  endfacet
  facet normal 0 0 1
    outer loop
      vertex 18.747 9.56366 6
      vertex 18.747 6.43634 6
      vertex 19.5 8 6
    endloop
  endfacet
  facet normal 0 0 1
    outer loop
      vertex 17.055 9.94986 6
      vertex 18.747 6.43634 6
      vertex 18.747 9.56366 6
    endloop
  endfacet
  facet normal 0 0 1
    outer loop
      vertex 17.055 9.94986 6
      vertex 17.055 6.05014 6
      vertex 18.747 6.43634 6
    endloop
  endfacet
  facet normal -0 0 1
    outer loop
      vertex 15.6981 8.86777 6
      vertex 17.055 6.05014 6
      vertex 17.055 9.94986 6
    endloop
  endfacet
  facet normal 0 0 1
    outer loop
      vertex 17.055 6.05014 6
      vertex 15.6981 8.86777 6
      vertex 15.6981 7.13223 6
    endloop
  endfacet
  facet normal -0.623489 -0.781832 0
    outer loop
      vertex 15.6981 7.13223 2
      vertex 17.055 6.05014 6
      vertex 15.6981 7.13223 6
    endloop
  endfacet
  facet normal -0.623489 -0.781832 -0
    outer loop
      vertex 17.055 6.05014 6
      vertex 15.6981 7.13223 2
      vertex 17.055 6.05014 2
    endloop
  endfacet
  facet normal 0.222528 -0.974926 0
    outer loop
      vertex 17.055 6.05014 2
      vertex 18.747 6.43634 6
      vertex 17.055 6.05014 6
    endloop
  endfacet
  facet normal 0.222528 -0.974926 0
    outer loop
      vertex 18.747 6.43634 6
      vertex 17.055 6.05014 2
      vertex 18.747 6.43634 2
    endloop
  endfacet
  facet normal -1 0 0
    outer loop
      vertex 15.6981 7.13223 2
      vertex 15.6981 8.86777 6
      vertex 15.6981 8.86777 2
    endloop
  endfacet
  facet normal -1 -0 0
    outer loop
      vertex 15.6981 8.86777 6
      vertex 15.6981 7.13223 2
      vertex 15.6981 7.13223 6
    endloop
  endfacet
  facet normal -0.623489 0.781832 0
    outer loop
      vertex 17.055 9.94986 2
      vertex 15.6981 8.86777 6
      vertex 17.055 9.94986 6
    endloop
  endfacet
  facet normal -0.623489 0.781832 0
    outer loop
      vertex 15.6981 8.86777 6
      vertex 17.055 9.94986 2
      vertex 15.6981 8.86777 2
    endloop
  endfacet
endsolid OpenSCAD_Model
