solid OpenSCAD_Model
  facet normal 0.207901 -0.97815 0
    outer loop
      vertex 2.32491 -22.12 0
      vertex 6.87312 -21.1533 2
      vertex 2.32491 -22.12 2
    endloop
  endfacet
  facet normal 0.207901 -0.97815 0
    outer loop
      vertex 6.87312 -21.1533 2
      vertex 2.32491 -22.12 0
      vertex 6.87312 -21.1533 0
    endloop
  endfacet
  facet normal 0.951061 0.309003 0
    outer loop
      vertex 21.7558 4.62435 2
      vertex 20.319 9.04659 0
      vertex 20.319 9.04659 2
    endloop
  endfacet
  facet normal 0.951061 0.309003 0
    outer loop
      vertex 20.319 9.04659 0
      vertex 21.7558 4.62435 2
      vertex 21.7558 4.62435 0
    endloop
  endfacet
  facet normal 0.994521 0.104541 0
    outer loop
      vertex 22.2419 0 2
      vertex 21.7558 4.62435 0
      vertex 21.7558 4.62435 2
    endloop
  endfacet
  facet normal 0.994521 0.104541 0
    outer loop
      vertex 21.7558 4.62435 0
      vertex 22.2419 0 2
      vertex 22.2419 0 0
    endloop
  endfacet
  facet normal 0.994521 -0.104541 0
    outer loop
      vertex 21.7558 -4.62435 2
      vertex 22.2419 0 0
      vertex 22.2419 0 2
    endloop
  endfacet
  facet normal 0.994521 -0.104541 0
    outer loop
      vertex 22.2419 0 0
      vertex 21.7558 -4.62435 2
      vertex 21.7558 -4.62435 0
    endloop
  endfacet
  facet normal 0.406749 0.91354 -0
    outer loop
      vertex 11.1209 19.262 0
      vertex 6.87312 21.1533 2
      vertex 11.1209 19.262 2
    endloop
  endfacet
  facet normal 0.406749 0.91354 0
    outer loop
      vertex 6.87312 21.1533 2
      vertex 11.1209 19.262 0
      vertex 6.87312 21.1533 0
    endloop
  endfacet
  facet normal 0.406749 -0.91354 0
    outer loop
      vertex 6.87312 -21.1533 0
      vertex 11.1209 -19.262 2
      vertex 6.87312 -21.1533 2
    endloop
  endfacet
  facet normal 0.406749 -0.91354 0
    outer loop
      vertex 11.1209 -19.262 2
      vertex 6.87312 -21.1533 0
      vertex 11.1209 -19.262 0
    endloop
  endfacet
  facet normal -0.207901 -0.97815 0
    outer loop
      vertex -6.87312 -21.1533 0
      vertex -2.32491 -22.12 2
      vertex -6.87312 -21.1533 2
    endloop
  endfacet
  facet normal -0.207901 -0.97815 -0
    outer loop
      vertex -2.32491 -22.12 2
      vertex -6.87312 -21.1533 0
      vertex -2.32491 -22.12 0
    endloop
  endfacet
  facet normal -0.406749 -0.91354 0
    outer loop
      vertex -11.1209 -19.262 0
      vertex -6.87312 -21.1533 2
      vertex -11.1209 -19.262 2
    endloop
  endfacet
  facet normal -0.406749 -0.91354 -0
    outer loop
      vertex -6.87312 -21.1533 2
      vertex -11.1209 -19.262 0
      vertex -6.87312 -21.1533 0
    endloop
  endfacet
  facet normal -0.951061 -0.309003 0
    outer loop
      vertex -20.319 -9.04659 0
      vertex -21.7558 -4.62435 2
      vertex -21.7558 -4.62435 0
    endloop
  endfacet
  facet normal -0.951061 -0.309003 0
    outer loop
      vertex -21.7558 -4.62435 2
      vertex -20.319 -9.04659 0
      vertex -20.319 -9.04659 2
    endloop
  endfacet
  facet normal -0.743139 0.669137 0
    outer loop
      vertex -17.9941 13.0734 0
      vertex -14.8827 16.5289 2
      vertex -14.8827 16.5289 0
    endloop
  endfacet
  facet normal -0.743139 0.669137 0
    outer loop
      vertex -14.8827 16.5289 2
      vertex -17.9941 13.0734 0
      vertex -17.9941 13.0734 2
    endloop
  endfacet
  facet normal -0.207898 0.978151 0
    outer loop
      vertex -3 21.9765 0
      vertex -6.87312 21.1533 2
      vertex -3 21.9765 2
    endloop
  endfacet
  facet normal -0.207898 0.978151 0
    outer loop
      vertex -6.87312 21.1533 2
      vertex -3 21.9765 0
      vertex -6.87312 21.1533 0
    endloop
  endfacet
  facet normal -0.951061 0.309003 0
    outer loop
      vertex -21.7558 4.62435 0
      vertex -20.319 9.04659 2
      vertex -20.319 9.04659 0
    endloop
  endfacet
  facet normal -0.951061 0.309003 0
    outer loop
      vertex -20.319 9.04659 2
      vertex -21.7558 4.62435 0
      vertex -21.7558 4.62435 2
    endloop
  endfacet
  facet normal 0 0 -1
    outer loop
      vertex 1.45238 4.46996 0
      vertex 3 16.7419 0
      vertex 3.14491 3.49278 0
    endloop
  endfacet
  facet normal 0 0 -1
    outer loop
      vertex -0.491283 4.67425 0
      vertex 3 16.7419 0
      vertex 1.45238 4.46996 0
    endloop
  endfacet
  facet normal 0 0 -1
    outer loop
      vertex -3 16.7419 0
      vertex -0.491283 4.67425 0
      vertex -2.35 4.07032 0
    endloop
  endfacet
  facet normal 0 0 -1
    outer loop
      vertex -0.491283 4.67425 0
      vertex -3 16.7419 0
      vertex 3 16.7419 0
    endloop
  endfacet
  facet normal 0 0 -1
    outer loop
      vertex -14.8827 16.5289 0
      vertex -2.35 4.07032 0
      vertex -3.80238 2.76259 0
    endloop
  endfacet
  facet normal 0 0 -1
    outer loop
      vertex -2.35 4.07032 0
      vertex -14.8827 16.5289 0
      vertex -3 16.7419 0
    endloop
  endfacet
  facet normal 0 0 -1
    outer loop
      vertex -19.8893 9.79077 0
      vertex -3.80238 2.76259 0
      vertex -4.59729 0.977184 0
    endloop
  endfacet
  facet normal 0 0 -1
    outer loop
      vertex -17.9941 -13.0734 0
      vertex -3.80238 -2.76259 0
      vertex -14.8827 -16.5289 0
    endloop
  endfacet
  facet normal 0 0 -1
    outer loop
      vertex -20.319 -9.04659 0
      vertex -3.80238 -2.76259 0
      vertex -17.9941 -13.0734 0
    endloop
  endfacet
  facet normal 0 0 -1
    outer loop
      vertex -3 16.7419 0
      vertex -11.1209 19.262 0
      vertex -6.87312 21.1533 0
    endloop
  endfacet
  facet normal 0 0 -1
    outer loop
      vertex -3 16.7419 0
      vertex -6.87312 21.1533 0
      vertex -3 21.9765 0
    endloop
  endfacet
  facet normal -0 0 -1
    outer loop
      vertex -3.80238 -2.76259 0
      vertex -20.319 -9.04659 0
      vertex -4.59729 -0.977184 0
    endloop
  endfacet
  facet normal 0 0 -1
    outer loop
      vertex -3.80238 2.76259 0
      vertex -19.8893 9.79077 0
      vertex -17.9941 13.0734 0
    endloop
  endfacet
  facet normal 0 0 -1
    outer loop
      vertex -21.7558 -4.62435 0
      vertex -4.59729 -0.977184 0
      vertex -20.319 -9.04659 0
    endloop
  endfacet
  facet normal -0 0 -1
    outer loop
      vertex -3 16.7419 0
      vertex -14.8827 16.5289 0
      vertex -11.1209 19.262 0
    endloop
  endfacet
  facet normal 0 0 -1
    outer loop
      vertex -3.80238 2.76259 0
      vertex -17.9941 13.0734 0
      vertex -14.8827 16.5289 0
    endloop
  endfacet
  facet normal 0 0 -1
    outer loop
      vertex -22.2419 0 0
      vertex -4.59729 -0.977184 0
      vertex -21.7558 -4.62435 0
    endloop
  endfacet
  facet normal 0 0 -1
    outer loop
      vertex -19.8893 9.79077 0
      vertex -19.9552 9.67657 0
      vertex -19.9271 9.76336 0
    endloop
  endfacet
  facet normal 0 0 -1
    outer loop
      vertex -4.59729 -0.977184 0
      vertex -22.2419 0 0
      vertex -4.59729 0.977184 0
    endloop
  endfacet
  facet normal 0 -0 -1
    outer loop
      vertex -20.319 9.04659 0
      vertex -4.59729 0.977184 0
      vertex -21.7558 4.62435 0
    endloop
  endfacet
  facet normal 0 0 -1
    outer loop
      vertex -4.59729 0.977184 0
      vertex -19.9552 9.67657 0
      vertex -19.8893 9.79077 0
    endloop
  endfacet
  facet normal 0 0 -1
    outer loop
      vertex -4.59729 0.977184 0
      vertex -20.319 9.04659 0
      vertex -19.9552 9.67657 0
    endloop
  endfacet
  facet normal -0 0 -1
    outer loop
      vertex -4.59729 0.977184 0
      vertex -22.2419 0 0
      vertex -21.7558 4.62435 0
    endloop
  endfacet
  facet normal 0 0 -1
    outer loop
      vertex 4.7 0 0
      vertex 22.2419 0 0
      vertex 21.7558 -4.62435 0
    endloop
  endfacet
  facet normal 0 0 -1
    outer loop
      vertex 4.29366 -1.91166 0
      vertex 21.7558 -4.62435 0
      vertex 20.319 -9.04659 0
    endloop
  endfacet
  facet normal 0 0 -1
    outer loop
      vertex 22.2419 0 0
      vertex 4.7 0 0
      vertex 21.7558 4.62435 0
    endloop
  endfacet
  facet normal 0 0 -1
    outer loop
      vertex 4.29366 1.91166 0
      vertex 21.7558 4.62435 0
      vertex 4.7 0 0
    endloop
  endfacet
  facet normal -0 0 -1
    outer loop
      vertex 21.7558 4.62435 0
      vertex 4.29366 1.91166 0
      vertex 20.319 9.04659 0
    endloop
  endfacet
  facet normal -0 0 -1
    outer loop
      vertex 20.319 9.04659 0
      vertex 4.29366 1.91166 0
      vertex 19.9552 9.67657 0
    endloop
  endfacet
  facet normal 0 0 -1
    outer loop
      vertex 4.29366 -1.91166 0
      vertex 20.319 -9.04659 0
      vertex 17.9941 -13.0734 0
    endloop
  endfacet
  facet normal 0 0 -1
    outer loop
      vertex 19.9552 9.67657 0
      vertex 19.8893 9.79077 0
      vertex 19.9271 9.76336 0
    endloop
  endfacet
  facet normal 0 0 -1
    outer loop
      vertex 3.14491 -3.49278 0
      vertex 17.9941 -13.0734 0
      vertex 14.8827 -16.5289 0
    endloop
  endfacet
  facet normal -0 0 -1
    outer loop
      vertex 19.9552 9.67657 0
      vertex 4.29366 1.91166 0
      vertex 19.8893 9.79077 0
    endloop
  endfacet
  facet normal 0 0 -1
    outer loop
      vertex 3.14491 -3.49278 0
      vertex 14.8827 -16.5289 0
      vertex 11.1209 -19.262 0
    endloop
  endfacet
  facet normal -0 0 -1
    outer loop
      vertex 19.8893 9.79077 0
      vertex 4.29366 1.91166 0
      vertex 17.9941 13.0734 0
    endloop
  endfacet
  facet normal 0 0 -1
    outer loop
      vertex 1.45238 -4.46996 0
      vertex 11.1209 -19.262 0
      vertex 6.87312 -21.1533 0
    endloop
  endfacet
  facet normal 0 0 -1
    outer loop
      vertex 3.14491 3.49278 0
      vertex 17.9941 13.0734 0
      vertex 4.29366 1.91166 0
    endloop
  endfacet
  facet normal -0 0 -1
    outer loop
      vertex 17.9941 13.0734 0
      vertex 3.14491 3.49278 0
      vertex 14.8827 16.5289 0
    endloop
  endfacet
  facet normal 0 0 -1
    outer loop
      vertex 21.7558 -4.62435 0
      vertex 4.29366 -1.91166 0
      vertex 4.7 0 0
    endloop
  endfacet
  facet normal 0 0 -1
    outer loop
      vertex 17.9941 -13.0734 0
      vertex 3.14491 -3.49278 0
      vertex 4.29366 -1.91166 0
    endloop
  endfacet
  facet normal 0 0 -1
    outer loop
      vertex 1.45238 -4.46996 0
      vertex 6.87312 -21.1533 0
      vertex 2.32491 -22.12 0
    endloop
  endfacet
  facet normal 0 0 -1
    outer loop
      vertex 11.1209 -19.262 0
      vertex 1.45238 -4.46996 0
      vertex 3.14491 -3.49278 0
    endloop
  endfacet
  facet normal 0 0 -1
    outer loop
      vertex 2.32491 -22.12 0
      vertex -0.491283 -4.67425 0
      vertex 1.45238 -4.46996 0
    endloop
  endfacet
  facet normal 0 0 -1
    outer loop
      vertex -2.32491 -22.12 0
      vertex -0.491283 -4.67425 0
      vertex 2.32491 -22.12 0
    endloop
  endfacet
  facet normal 0 0 -1
    outer loop
      vertex -6.87312 -21.1533 0
      vertex -0.491283 -4.67425 0
      vertex -2.32491 -22.12 0
    endloop
  endfacet
  facet normal -0 0 -1
    outer loop
      vertex -0.491283 -4.67425 0
      vertex -6.87312 -21.1533 0
      vertex -2.35 -4.07032 0
    endloop
  endfacet
  facet normal 0 0 -1
    outer loop
      vertex -11.1209 -19.262 0
      vertex -2.35 -4.07032 0
      vertex -6.87312 -21.1533 0
    endloop
  endfacet
  facet normal -0 0 -1
    outer loop
      vertex -2.35 -4.07032 0
      vertex -14.8827 -16.5289 0
      vertex -3.80238 -2.76259 0
    endloop
  endfacet
  facet normal 0 0 -1
    outer loop
      vertex -14.8827 -16.5289 0
      vertex -2.35 -4.07032 0
      vertex -11.1209 -19.262 0
    endloop
  endfacet
  facet normal 0 0 -1
    outer loop
      vertex 3 16.7419 0
      vertex 14.8827 16.5289 0
      vertex 3.14491 3.49278 0
    endloop
  endfacet
  facet normal 0 0 -1
    outer loop
      vertex 14.8827 16.5289 0
      vertex 3 16.7419 0
      vertex 11.1209 19.262 0
    endloop
  endfacet
  facet normal -0 0 -1
    outer loop
      vertex 11.1209 19.262 0
      vertex 3 16.7419 0
      vertex 6.87312 21.1533 0
    endloop
  endfacet
  facet normal -0 0 -1
    outer loop
      vertex 6.87312 21.1533 0
      vertex 3 16.7419 0
      vertex 3 21.9765 0
    endloop
  endfacet
  facet normal 0.587784 -0.809018 0
    outer loop
      vertex 11.1209 -19.262 0
      vertex 14.8827 -16.5289 2
      vertex 11.1209 -19.262 2
    endloop
  endfacet
  facet normal 0.587784 -0.809018 0
    outer loop
      vertex 14.8827 -16.5289 2
      vertex 11.1209 -19.262 0
      vertex 14.8827 -16.5289 0
    endloop
  endfacet
  facet normal -0.743139 -0.669137 0
    outer loop
      vertex -14.8827 -16.5289 0
      vertex -17.9941 -13.0734 2
      vertex -17.9941 -13.0734 0
    endloop
  endfacet
  facet normal -0.743139 -0.669137 0
    outer loop
      vertex -17.9941 -13.0734 2
      vertex -14.8827 -16.5289 0
      vertex -14.8827 -16.5289 2
    endloop
  endfacet
  facet normal -0.406749 0.91354 0
    outer loop
      vertex -6.87312 21.1533 0
      vertex -11.1209 19.262 2
      vertex -6.87312 21.1533 2
    endloop
  endfacet
  facet normal -0.406749 0.91354 0
    outer loop
      vertex -11.1209 19.262 2
      vertex -6.87312 21.1533 0
      vertex -11.1209 19.262 0
    endloop
  endfacet
  facet normal -0 0 1
    outer loop
      vertex -20.319 9.04659 2
      vertex -20.5 8 2
      vertex -19.9552 9.67657 2
    endloop
  endfacet
  facet normal 0 -0 1
    outer loop
      vertex -20.5 8 2
      vertex -20.319 9.04659 2
      vertex -21.7558 4.62435 2
    endloop
  endfacet
  facet normal 0 0 1
    outer loop
      vertex 17.9941 13.0734 2
      vertex 18.4271 10.8532 2
      vertex 19.8893 9.79077 2
    endloop
  endfacet
  facet normal 0 0 1
    outer loop
      vertex 17.9941 13.0734 2
      vertex 16.5729 10.8532 2
      vertex 18.4271 10.8532 2
    endloop
  endfacet
  facet normal 0 0 1
    outer loop
      vertex 14.8827 16.5289 2
      vertex 16.5729 10.8532 2
      vertex 17.9941 13.0734 2
    endloop
  endfacet
  facet normal 0 0 1
    outer loop
      vertex 16.5729 10.8532 2
      vertex 14.8827 16.5289 2
      vertex 15.0729 9.76336 2
    endloop
  endfacet
  facet normal 0 0 1
    outer loop
      vertex 11.1209 19.262 2
      vertex 15.0729 9.76336 2
      vertex 14.8827 16.5289 2
    endloop
  endfacet
  facet normal -0 0 1
    outer loop
      vertex 3 16.7419 2
      vertex 15.0729 9.76336 2
      vertex 11.1209 19.262 2
    endloop
  endfacet
  facet normal 0 0 1
    outer loop
      vertex 18.4271 5.14683 2
      vertex 22.2419 0 2
      vertex 21.7558 4.62435 2
    endloop
  endfacet
  facet normal -0 0 1
    outer loop
      vertex 19.9271 6.23664 2
      vertex 21.7558 4.62435 2
      vertex 20.5 8 2
    endloop
  endfacet
  facet normal 0 0 1
    outer loop
      vertex 20.319 9.04659 2
      vertex 20.5 8 2
      vertex 21.7558 4.62435 2
    endloop
  endfacet
  facet normal 0 0 1
    outer loop
      vertex 20.5 8 2
      vertex 20.319 9.04659 2
      vertex 19.9552 9.67657 2
    endloop
  endfacet
  facet normal -0 0 1
    outer loop
      vertex 18.4271 5.14683 2
      vertex 21.7558 4.62435 2
      vertex 19.9271 6.23664 2
    endloop
  endfacet
  facet normal -0 0 1
    outer loop
      vertex 16.5729 5.14683 2
      vertex 22.2419 0 2
      vertex 18.4271 5.14683 2
    endloop
  endfacet
  facet normal 0 0 1
    outer loop
      vertex 22.2419 0 2
      vertex 16.5729 5.14683 2
      vertex 21.7558 -4.62435 2
    endloop
  endfacet
  facet normal -0 0 1
    outer loop
      vertex 4.84886 -1.87846 2
      vertex 21.7558 -4.62435 2
      vertex 16.5729 5.14683 2
    endloop
  endfacet
  facet normal 0 0 1
    outer loop
      vertex 21.7558 -4.62435 2
      vertex 4.84886 -1.87846 2
      vertex 20.319 -9.04659 2
    endloop
  endfacet
  facet normal 0 0 1
    outer loop
      vertex 5.2 0 2
      vertex 16.5729 5.14683 2
      vertex 15.0729 6.23664 2
    endloop
  endfacet
  facet normal 0 0 1
    outer loop
      vertex 20.319 -9.04659 2
      vertex 4.84886 -1.87846 2
      vertex 17.9941 -13.0734 2
    endloop
  endfacet
  facet normal 0 0 1
    outer loop
      vertex 4.84886 1.87846 2
      vertex 15.0729 6.23664 2
      vertex 14.5 8 2
    endloop
  endfacet
  facet normal 0 0 1
    outer loop
      vertex 15.0729 9.76336 2
      vertex 3 16.7419 2
      vertex 14.5 8 2
    endloop
  endfacet
  facet normal 0 0 1
    outer loop
      vertex 16.5729 5.14683 2
      vertex 5.2 0 2
      vertex 4.84886 -1.87846 2
    endloop
  endfacet
  facet normal 0 0 1
    outer loop
      vertex 3 16.7419 2
      vertex 11.1209 19.262 2
      vertex 6.87312 21.1533 2
    endloop
  endfacet
  facet normal -0 0 1
    outer loop
      vertex 3.84285 -3.50322 2
      vertex 17.9941 -13.0734 2
      vertex 4.84886 -1.87846 2
    endloop
  endfacet
  facet normal 0 0 1
    outer loop
      vertex 17.9941 -13.0734 2
      vertex 3.84285 -3.50322 2
      vertex 14.8827 -16.5289 2
    endloop
  endfacet
  facet normal 0 0 1
    outer loop
      vertex 15.0729 6.23664 2
      vertex 4.84886 1.87846 2
      vertex 5.2 0 2
    endloop
  endfacet
  facet normal 0 0 1
    outer loop
      vertex 14.5 8 2
      vertex 3.84285 3.50322 2
      vertex 4.84886 1.87846 2
    endloop
  endfacet
  facet normal 0 0 1
    outer loop
      vertex 3 16.7419 2
      vertex 6.87312 21.1533 2
      vertex 3 21.9765 2
    endloop
  endfacet
  facet normal 0 0 1
    outer loop
      vertex 2.31784 4.65485 2
      vertex 14.5 8 2
      vertex 3 16.7419 2
    endloop
  endfacet
  facet normal 0 0 1
    outer loop
      vertex 14.5 8 2
      vertex 2.31784 4.65485 2
      vertex 3.84285 3.50322 2
    endloop
  endfacet
  facet normal 0 0 1
    outer loop
      vertex 3 16.7419 2
      vertex 0.479795 5.17782 2
      vertex 2.31784 4.65485 2
    endloop
  endfacet
  facet normal -0 0 1
    outer loop
      vertex -3 16.7419 2
      vertex 0.479795 5.17782 2
      vertex 3 16.7419 2
    endloop
  endfacet
  facet normal 0 0 1
    outer loop
      vertex 0.479795 5.17782 2
      vertex -3 16.7419 2
      vertex -1.42305 5.00149 2
    endloop
  endfacet
  facet normal 0 0 1
    outer loop
      vertex -1.42305 5.00149 2
      vertex -3 16.7419 2
      vertex -3.1337 4.14969 2
    endloop
  endfacet
  facet normal 0 0 1
    outer loop
      vertex -3.1337 -4.14969 2
      vertex -14.8827 -16.5289 2
      vertex -11.1209 -19.262 2
    endloop
  endfacet
  facet normal 0 0 1
    outer loop
      vertex -5.11146 0.955497 2
      vertex -16.5729 5.14683 2
      vertex -5.11146 -0.955497 2
    endloop
  endfacet
  facet normal 0 0 1
    outer loop
      vertex -21.7558 -4.62435 2
      vertex -5.11146 -0.955497 2
      vertex -16.5729 5.14683 2
    endloop
  endfacet
  facet normal 0 0 1
    outer loop
      vertex -5.11146 -0.955497 2
      vertex -17.9941 -13.0734 2
      vertex -14.8827 -16.5289 2
    endloop
  endfacet
  facet normal 0 0 1
    outer loop
      vertex -22.2419 0 2
      vertex -16.5729 5.14683 2
      vertex -18.4271 5.14683 2
    endloop
  endfacet
  facet normal 0 0 1
    outer loop
      vertex -21.7558 4.62435 2
      vertex -18.4271 5.14683 2
      vertex -19.9271 6.23664 2
    endloop
  endfacet
  facet normal 0 0 1
    outer loop
      vertex -5.11146 -0.955497 2
      vertex -20.319 -9.04659 2
      vertex -17.9941 -13.0734 2
    endloop
  endfacet
  facet normal 0 0 1
    outer loop
      vertex -21.7558 4.62435 2
      vertex -19.9271 6.23664 2
      vertex -20.5 8 2
    endloop
  endfacet
  facet normal 0 0 1
    outer loop
      vertex -18.4271 5.14683 2
      vertex -21.7558 4.62435 2
      vertex -22.2419 0 2
    endloop
  endfacet
  facet normal 0 0 1
    outer loop
      vertex -5.11146 -0.955497 2
      vertex -21.7558 -4.62435 2
      vertex -20.319 -9.04659 2
    endloop
  endfacet
  facet normal 0 0 1
    outer loop
      vertex -16.5729 5.14683 2
      vertex -22.2419 0 2
      vertex -21.7558 -4.62435 2
    endloop
  endfacet
  facet normal -0 0 1
    outer loop
      vertex -6.87312 21.1533 2
      vertex -3 16.7419 2
      vertex -3 21.9765 2
    endloop
  endfacet
  facet normal -0 0 1
    outer loop
      vertex -11.1209 19.262 2
      vertex -3 16.7419 2
      vertex -6.87312 21.1533 2
    endloop
  endfacet
  facet normal 0 0 1
    outer loop
      vertex -15.0729 9.76336 2
      vertex -3 16.7419 2
      vertex -11.1209 19.262 2
    endloop
  endfacet
  facet normal -0 0 1
    outer loop
      vertex -15.0729 6.23664 2
      vertex -4.42113 2.73745 2
      vertex -14.5 8 2
    endloop
  endfacet
  facet normal 0 -0 1
    outer loop
      vertex -14.5 8 2
      vertex -3 16.7419 2
      vertex -15.0729 9.76336 2
    endloop
  endfacet
  facet normal -0 0 1
    outer loop
      vertex 2.31784 -4.65485 2
      vertex 14.8827 -16.5289 2
      vertex 3.84285 -3.50322 2
    endloop
  endfacet
  facet normal 0 0 1
    outer loop
      vertex 14.8827 -16.5289 2
      vertex 2.31784 -4.65485 2
      vertex 11.1209 -19.262 2
    endloop
  endfacet
  facet normal 0 0 1
    outer loop
      vertex 11.1209 -19.262 2
      vertex 2.31784 -4.65485 2
      vertex 6.87312 -21.1533 2
    endloop
  endfacet
  facet normal -0 0 1
    outer loop
      vertex 0.479795 -5.17782 2
      vertex 6.87312 -21.1533 2
      vertex 2.31784 -4.65485 2
    endloop
  endfacet
  facet normal 0 0 1
    outer loop
      vertex 6.87312 -21.1533 2
      vertex 0.479795 -5.17782 2
      vertex 2.32491 -22.12 2
    endloop
  endfacet
  facet normal 0 0 1
    outer loop
      vertex -2.32491 -22.12 2
      vertex 0.479795 -5.17782 2
      vertex -1.42305 -5.00149 2
    endloop
  endfacet
  facet normal 0 0 1
    outer loop
      vertex 0.479795 -5.17782 2
      vertex -2.32491 -22.12 2
      vertex 2.32491 -22.12 2
    endloop
  endfacet
  facet normal 0 0 1
    outer loop
      vertex -11.1209 -19.262 2
      vertex -1.42305 -5.00149 2
      vertex -3.1337 -4.14969 2
    endloop
  endfacet
  facet normal 0 0 1
    outer loop
      vertex -14.8827 -16.5289 2
      vertex -3.1337 -4.14969 2
      vertex -4.42113 -2.73745 2
    endloop
  endfacet
  facet normal 0 0 1
    outer loop
      vertex -14.8827 -16.5289 2
      vertex -4.42113 -2.73745 2
      vertex -5.11146 -0.955497 2
    endloop
  endfacet
  facet normal 0 0 1
    outer loop
      vertex -1.42305 -5.00149 2
      vertex -6.87312 -21.1533 2
      vertex -2.32491 -22.12 2
    endloop
  endfacet
  facet normal 0 0 1
    outer loop
      vertex -4.42113 2.73745 2
      vertex -15.0729 6.23664 2
      vertex -5.11146 0.955497 2
    endloop
  endfacet
  facet normal 0 0 1
    outer loop
      vertex -3.1337 4.14969 2
      vertex -14.5 8 2
      vertex -4.42113 2.73745 2
    endloop
  endfacet
  facet normal -0 0 1
    outer loop
      vertex -16.5729 5.14683 2
      vertex -5.11146 0.955497 2
      vertex -15.0729 6.23664 2
    endloop
  endfacet
  facet normal 0 0 1
    outer loop
      vertex -1.42305 -5.00149 2
      vertex -11.1209 -19.262 2
      vertex -6.87312 -21.1533 2
    endloop
  endfacet
  facet normal 0 0 1
    outer loop
      vertex -15.0729 9.76336 2
      vertex -11.1209 19.262 2
      vertex -14.8827 16.5289 2
    endloop
  endfacet
  facet normal 0 0 1
    outer loop
      vertex -3 16.7419 2
      vertex -14.5 8 2
      vertex -3.1337 4.14969 2
    endloop
  endfacet
  facet normal 0 0 1
    outer loop
      vertex -14.8827 16.5289 2
      vertex -16.5729 10.8532 2
      vertex -15.0729 9.76336 2
    endloop
  endfacet
  facet normal -0 0 1
    outer loop
      vertex -17.9941 13.0734 2
      vertex -16.5729 10.8532 2
      vertex -14.8827 16.5289 2
    endloop
  endfacet
  facet normal 0 0 1
    outer loop
      vertex -17.9941 13.0734 2
      vertex -18.4271 10.8532 2
      vertex -16.5729 10.8532 2
    endloop
  endfacet
  facet normal 0 -0 1
    outer loop
      vertex -18.4271 10.8532 2
      vertex -17.9941 13.0734 2
      vertex -19.8893 9.79077 2
    endloop
  endfacet
  facet normal -0.587784 -0.809018 0
    outer loop
      vertex -14.8827 -16.5289 0
      vertex -11.1209 -19.262 2
      vertex -14.8827 -16.5289 2
    endloop
  endfacet
  facet normal -0.587784 -0.809018 -0
    outer loop
      vertex -11.1209 -19.262 2
      vertex -14.8827 -16.5289 0
      vertex -11.1209 -19.262 0
    endloop
  endfacet
  facet normal 0.951061 -0.309003 0
    outer loop
      vertex 20.319 -9.04659 2
      vertex 21.7558 -4.62435 0
      vertex 21.7558 -4.62435 2
    endloop
  endfacet
  facet normal 0.951061 -0.309003 0
    outer loop
      vertex 21.7558 -4.62435 0
      vertex 20.319 -9.04659 2
      vertex 20.319 -9.04659 0
    endloop
  endfacet
  facet normal -0.587784 0.809018 0
    outer loop
      vertex -11.1209 19.262 0
      vertex -14.8827 16.5289 2
      vertex -11.1209 19.262 2
    endloop
  endfacet
  facet normal -0.587784 0.809018 0
    outer loop
      vertex -14.8827 16.5289 2
      vertex -11.1209 19.262 0
      vertex -14.8827 16.5289 0
    endloop
  endfacet
  facet normal -0.994521 -0.104541 0
    outer loop
      vertex -21.7558 -4.62435 0
      vertex -22.2419 0 2
      vertex -22.2419 0 0
    endloop
  endfacet
  facet normal -0.994521 -0.104541 0
    outer loop
      vertex -22.2419 0 2
      vertex -21.7558 -4.62435 0
      vertex -21.7558 -4.62435 2
    endloop
  endfacet
  facet normal -0.994521 0.104541 0
    outer loop
      vertex -22.2419 0 0
      vertex -21.7558 4.62435 2
      vertex -21.7558 4.62435 0
    endloop
  endfacet
  facet normal -0.994521 0.104541 0
    outer loop
      vertex -21.7558 4.62435 2
      vertex -22.2419 0 0
      vertex -22.2419 0 2
    endloop
  endfacet
  facet normal -0.866024 -0.500003 0
    outer loop
      vertex -17.9941 -13.0734 0
      vertex -20.319 -9.04659 2
      vertex -20.319 -9.04659 0
    endloop
  endfacet
  facet normal -0.866024 -0.500003 0
    outer loop
      vertex -20.319 -9.04659 2
      vertex -17.9941 -13.0734 0
      vertex -17.9941 -13.0734 2
    endloop
  endfacet
  facet normal -0.866029 0.499995 0
    outer loop
      vertex -19.8893 9.79077 0
      vertex -17.9941 13.0734 2
      vertex -17.9941 13.0734 0
    endloop
  endfacet
  facet normal -0.866029 0.499995 0
    outer loop
      vertex -17.9941 13.0734 2
      vertex -19.8893 9.79077 0
      vertex -19.8893 9.79077 2
    endloop
  endfacet
  facet normal -0.865977 0.500083 0
    outer loop
      vertex -20.319 9.04659 0
      vertex -19.9552 9.67657 2
      vertex -19.9552 9.67657 0
    endloop
  endfacet
  facet normal -0.865977 0.500083 0
    outer loop
      vertex -19.9552 9.67657 2
      vertex -20.319 9.04659 0
      vertex -20.319 9.04659 2
    endloop
  endfacet
  facet normal 0.866024 -0.500003 0
    outer loop
      vertex 17.9941 -13.0734 2
      vertex 20.319 -9.04659 0
      vertex 20.319 -9.04659 2
    endloop
  endfacet
  facet normal 0.866024 -0.500003 0
    outer loop
      vertex 20.319 -9.04659 0
      vertex 17.9941 -13.0734 2
      vertex 17.9941 -13.0734 0
    endloop
  endfacet
  facet normal 0.587784 0.809018 -0
    outer loop
      vertex 14.8827 16.5289 0
      vertex 11.1209 19.262 2
      vertex 14.8827 16.5289 2
    endloop
  endfacet
  facet normal 0.587784 0.809018 0
    outer loop
      vertex 11.1209 19.262 2
      vertex 14.8827 16.5289 0
      vertex 11.1209 19.262 0
    endloop
  endfacet
  facet normal 0.743139 0.669137 0
    outer loop
      vertex 17.9941 13.0734 2
      vertex 14.8827 16.5289 0
      vertex 14.8827 16.5289 2
    endloop
  endfacet
  facet normal 0.743139 0.669137 0
    outer loop
      vertex 14.8827 16.5289 0
      vertex 17.9941 13.0734 2
      vertex 17.9941 13.0734 0
    endloop
  endfacet
  facet normal 0.865977 0.500083 0
    outer loop
      vertex 20.319 9.04659 2
      vertex 19.9552 9.67657 0
      vertex 19.9552 9.67657 2
    endloop
  endfacet
  facet normal 0.865977 0.500083 0
    outer loop
      vertex 19.9552 9.67657 0
      vertex 20.319 9.04659 2
      vertex 20.319 9.04659 0
    endloop
  endfacet
  facet normal 0.866029 0.499995 0
    outer loop
      vertex 19.8893 9.79077 2
      vertex 17.9941 13.0734 0
      vertex 17.9941 13.0734 2
    endloop
  endfacet
  facet normal 0.866029 0.499995 0
    outer loop
      vertex 17.9941 13.0734 0
      vertex 19.8893 9.79077 2
      vertex 19.8893 9.79077 0
    endloop
  endfacet
  facet normal 0.207898 0.978151 -0
    outer loop
      vertex 6.87312 21.1533 0
      vertex 3 21.9765 2
      vertex 6.87312 21.1533 2
    endloop
  endfacet
  facet normal 0.207898 0.978151 0
    outer loop
      vertex 3 21.9765 2
      vertex 6.87312 21.1533 0
      vertex 3 21.9765 0
    endloop
  endfacet
  facet normal 0.743139 -0.669137 0
    outer loop
      vertex 14.8827 -16.5289 2
      vertex 17.9941 -13.0734 0
      vertex 17.9941 -13.0734 2
    endloop
  endfacet
  facet normal 0.743139 -0.669137 0
    outer loop
      vertex 17.9941 -13.0734 0
      vertex 14.8827 -16.5289 2
      vertex 14.8827 -16.5289 0
    endloop
  endfacet
  facet normal 0 -1 0
    outer loop
      vertex -2.32491 -22.12 0
      vertex 2.32491 -22.12 2
      vertex -2.32491 -22.12 2
    endloop
  endfacet
  facet normal 0 -1 -0
    outer loop
      vertex 2.32491 -22.12 2
      vertex -2.32491 -22.12 0
      vertex 2.32491 -22.12 0
    endloop
  endfacet
  facet normal 0.850217 0.526433 0
    outer loop
      vertex 4.84886 1.87846 5
      vertex 3.84285 3.50322 2
      vertex 3.84285 3.50322 5
    endloop
  endfacet
  facet normal 0.850217 0.526433 0
    outer loop
      vertex 3.84285 3.50322 2
      vertex 4.84886 1.87846 5
      vertex 4.84886 1.87846 2
    endloop
  endfacet
  facet normal 0.982974 0.183747 0
    outer loop
      vertex 5.2 0 5
      vertex 4.84886 1.87846 2
      vertex 4.84886 1.87846 5
    endloop
  endfacet
  facet normal 0.982974 0.183747 0
    outer loop
      vertex 4.84886 1.87846 2
      vertex 5.2 0 5
      vertex 5.2 0 2
    endloop
  endfacet
  facet normal 0.602633 0.798018 -0
    outer loop
      vertex 3.84285 3.50322 2
      vertex 2.31784 4.65485 5
      vertex 3.84285 3.50322 5
    endloop
  endfacet
  facet normal 0.602633 0.798018 0
    outer loop
      vertex 2.31784 4.65485 5
      vertex 3.84285 3.50322 2
      vertex 2.31784 4.65485 2
    endloop
  endfacet
  facet normal -1 0 0
    outer loop
      vertex -5.11146 -0.955497 2
      vertex -5.11146 0.955497 5
      vertex -5.11146 0.955497 2
    endloop
  endfacet
  facet normal -1 -0 0
    outer loop
      vertex -5.11146 0.955497 5
      vertex -5.11146 -0.955497 2
      vertex -5.11146 -0.955497 5
    endloop
  endfacet
  facet normal 0.273664 -0.961825 0
    outer loop
      vertex 0.479795 -5.17782 2
      vertex 2.31784 -4.65485 5
      vertex 0.479795 -5.17782 5
    endloop
  endfacet
  facet normal 0.273664 -0.961825 0
    outer loop
      vertex 2.31784 -4.65485 5
      vertex 0.479795 -5.17782 2
      vertex 2.31784 -4.65485 2
    endloop
  endfacet
  facet normal 0.273664 0.961825 -0
    outer loop
      vertex 2.31784 4.65485 2
      vertex 0.479795 5.17782 5
      vertex 2.31784 4.65485 5
    endloop
  endfacet
  facet normal 0.273664 0.961825 0
    outer loop
      vertex 0.479795 5.17782 5
      vertex 2.31784 4.65485 2
      vertex 0.479795 5.17782 2
    endloop
  endfacet
  facet normal -0.739008 0.673697 0
    outer loop
      vertex -4.42113 2.73745 2
      vertex -3.1337 4.14969 5
      vertex -3.1337 4.14969 2
    endloop
  endfacet
  facet normal -0.739008 0.673697 0
    outer loop
      vertex -3.1337 4.14969 5
      vertex -4.42113 2.73745 2
      vertex -4.42113 2.73745 5
    endloop
  endfacet
  facet normal 0 0 1
    outer loop
      vertex 4.7 0 5
      vertex 5.2 0 5
      vertex 4.84886 1.87846 5
    endloop
  endfacet
  facet normal 0 0 1
    outer loop
      vertex 5.2 0 5
      vertex 4.7 0 5
      vertex 4.84886 -1.87846 5
    endloop
  endfacet
  facet normal 0 0 1
    outer loop
      vertex 4.84886 1.87846 5
      vertex 4.29366 1.91166 5
      vertex 4.7 0 5
    endloop
  endfacet
  facet normal 0 0 1
    outer loop
      vertex 3.84285 3.50322 5
      vertex 4.29366 1.91166 5
      vertex 4.84886 1.87846 5
    endloop
  endfacet
  facet normal 0 0 1
    outer loop
      vertex 3.84285 3.50322 5
      vertex 3.14491 3.49278 5
      vertex 4.29366 1.91166 5
    endloop
  endfacet
  facet normal 0 0 1
    outer loop
      vertex 2.31784 4.65485 5
      vertex 3.14491 3.49278 5
      vertex 3.84285 3.50322 5
    endloop
  endfacet
  facet normal 0 0 1
    outer loop
      vertex 2.31784 4.65485 5
      vertex 1.45238 4.46996 5
      vertex 3.14491 3.49278 5
    endloop
  endfacet
  facet normal 0 0 1
    outer loop
      vertex 0.479795 5.17782 5
      vertex 1.45238 4.46996 5
      vertex 2.31784 4.65485 5
    endloop
  endfacet
  facet normal 0 0 1
    outer loop
      vertex 0.479795 5.17782 5
      vertex -0.491283 4.67425 5
      vertex 1.45238 4.46996 5
    endloop
  endfacet
  facet normal -0 0 1
    outer loop
      vertex -1.42305 5.00149 5
      vertex -0.491283 4.67425 5
      vertex 0.479795 5.17782 5
    endloop
  endfacet
  facet normal 0 0 1
    outer loop
      vertex -1.42305 5.00149 5
      vertex -2.35 4.07032 5
      vertex -0.491283 4.67425 5
    endloop
  endfacet
  facet normal -0 0 1
    outer loop
      vertex -3.1337 4.14969 5
      vertex -2.35 4.07032 5
      vertex -1.42305 5.00149 5
    endloop
  endfacet
  facet normal 0 0 1
    outer loop
      vertex -3.1337 4.14969 5
      vertex -3.80238 2.76259 5
      vertex -2.35 4.07032 5
    endloop
  endfacet
  facet normal 0 0 1
    outer loop
      vertex -4.42113 2.73745 5
      vertex -3.80238 2.76259 5
      vertex -3.1337 4.14969 5
    endloop
  endfacet
  facet normal -0 0 1
    outer loop
      vertex -4.42113 2.73745 5
      vertex -4.59729 0.977184 5
      vertex -3.80238 2.76259 5
    endloop
  endfacet
  facet normal 0 0 1
    outer loop
      vertex -4.59729 0.977184 5
      vertex -5.11146 0.955497 5
      vertex -4.59729 -0.977184 5
    endloop
  endfacet
  facet normal 0 0 1
    outer loop
      vertex -5.11146 0.955497 5
      vertex -4.59729 0.977184 5
      vertex -4.42113 2.73745 5
    endloop
  endfacet
  facet normal 0 0 1
    outer loop
      vertex 4.29366 -1.91166 5
      vertex 4.84886 -1.87846 5
      vertex 4.7 0 5
    endloop
  endfacet
  facet normal -0 0 1
    outer loop
      vertex 4.29366 -1.91166 5
      vertex 3.84285 -3.50322 5
      vertex 4.84886 -1.87846 5
    endloop
  endfacet
  facet normal -0 0 1
    outer loop
      vertex 3.14491 -3.49278 5
      vertex 3.84285 -3.50322 5
      vertex 4.29366 -1.91166 5
    endloop
  endfacet
  facet normal 0 0 1
    outer loop
      vertex 3.14491 -3.49278 5
      vertex 2.31784 -4.65485 5
      vertex 3.84285 -3.50322 5
    endloop
  endfacet
  facet normal -0 0 1
    outer loop
      vertex 1.45238 -4.46996 5
      vertex 2.31784 -4.65485 5
      vertex 3.14491 -3.49278 5
    endloop
  endfacet
  facet normal 0 0 1
    outer loop
      vertex 1.45238 -4.46996 5
      vertex 0.479795 -5.17782 5
      vertex 2.31784 -4.65485 5
    endloop
  endfacet
  facet normal -0 0 1
    outer loop
      vertex -0.491283 -4.67425 5
      vertex 0.479795 -5.17782 5
      vertex 1.45238 -4.46996 5
    endloop
  endfacet
  facet normal 0 0 1
    outer loop
      vertex -0.491283 -4.67425 5
      vertex -1.42305 -5.00149 5
      vertex 0.479795 -5.17782 5
    endloop
  endfacet
  facet normal 0 0 1
    outer loop
      vertex -2.35 -4.07032 5
      vertex -1.42305 -5.00149 5
      vertex -0.491283 -4.67425 5
    endloop
  endfacet
  facet normal 0 0 1
    outer loop
      vertex -2.35 -4.07032 5
      vertex -3.1337 -4.14969 5
      vertex -1.42305 -5.00149 5
    endloop
  endfacet
  facet normal 0 0 1
    outer loop
      vertex -3.80238 -2.76259 5
      vertex -3.1337 -4.14969 5
      vertex -2.35 -4.07032 5
    endloop
  endfacet
  facet normal 0 0 1
    outer loop
      vertex -3.80238 -2.76259 5
      vertex -4.42113 -2.73745 5
      vertex -3.1337 -4.14969 5
    endloop
  endfacet
  facet normal 0 0 1
    outer loop
      vertex -4.59729 -0.977184 5
      vertex -4.42113 -2.73745 5
      vertex -3.80238 -2.76259 5
    endloop
  endfacet
  facet normal -0 0 1
    outer loop
      vertex -5.11146 -0.955497 5
      vertex -4.59729 -0.977184 5
      vertex -5.11146 0.955497 5
    endloop
  endfacet
  facet normal 0 0 1
    outer loop
      vertex -4.59729 -0.977184 5
      vertex -5.11146 -0.955497 5
      vertex -4.42113 -2.73745 5
    endloop
  endfacet
  facet normal -0.932473 0.361241 0
    outer loop
      vertex -5.11146 0.955497 2
      vertex -4.42113 2.73745 5
      vertex -4.42113 2.73745 2
    endloop
  endfacet
  facet normal -0.932473 0.361241 0
    outer loop
      vertex -4.42113 2.73745 5
      vertex -5.11146 0.955497 2
      vertex -5.11146 0.955497 5
    endloop
  endfacet
  facet normal -0.0922712 -0.995734 0
    outer loop
      vertex -1.42305 -5.00149 2
      vertex 0.479795 -5.17782 5
      vertex -1.42305 -5.00149 5
    endloop
  endfacet
  facet normal -0.0922712 -0.995734 -0
    outer loop
      vertex 0.479795 -5.17782 5
      vertex -1.42305 -5.00149 2
      vertex 0.479795 -5.17782 2
    endloop
  endfacet
  facet normal 0.982974 -0.183747 0
    outer loop
      vertex 4.84886 -1.87846 5
      vertex 5.2 0 2
      vertex 5.2 0 5
    endloop
  endfacet
  facet normal 0.982974 -0.183747 0
    outer loop
      vertex 5.2 0 2
      vertex 4.84886 -1.87846 5
      vertex 4.84886 -1.87846 2
    endloop
  endfacet
  facet normal 0.850217 -0.526433 0
    outer loop
      vertex 3.84285 -3.50322 5
      vertex 4.84886 -1.87846 2
      vertex 4.84886 -1.87846 5
    endloop
  endfacet
  facet normal 0.850217 -0.526433 0
    outer loop
      vertex 4.84886 -1.87846 2
      vertex 3.84285 -3.50322 5
      vertex 3.84285 -3.50322 2
    endloop
  endfacet
  facet normal 0.602633 -0.798018 0
    outer loop
      vertex 2.31784 -4.65485 2
      vertex 3.84285 -3.50322 5
      vertex 2.31784 -4.65485 5
    endloop
  endfacet
  facet normal 0.602633 -0.798018 0
    outer loop
      vertex 3.84285 -3.50322 5
      vertex 2.31784 -4.65485 2
      vertex 3.84285 -3.50322 2
    endloop
  endfacet
  facet normal -0.0922712 0.995734 0
    outer loop
      vertex 0.479795 5.17782 2
      vertex -1.42305 5.00149 5
      vertex 0.479795 5.17782 5
    endloop
  endfacet
  facet normal -0.0922712 0.995734 0
    outer loop
      vertex -1.42305 5.00149 5
      vertex 0.479795 5.17782 2
      vertex -1.42305 5.00149 2
    endloop
  endfacet
  facet normal -0.739008 -0.673697 0
    outer loop
      vertex -3.1337 -4.14969 2
      vertex -4.42113 -2.73745 5
      vertex -4.42113 -2.73745 2
    endloop
  endfacet
  facet normal -0.739008 -0.673697 0
    outer loop
      vertex -4.42113 -2.73745 5
      vertex -3.1337 -4.14969 2
      vertex -3.1337 -4.14969 5
    endloop
  endfacet
  facet normal -0.445737 0.895164 0
    outer loop
      vertex -1.42305 5.00149 2
      vertex -3.1337 4.14969 5
      vertex -1.42305 5.00149 5
    endloop
  endfacet
  facet normal -0.445737 0.895164 0
    outer loop
      vertex -3.1337 4.14969 5
      vertex -1.42305 5.00149 2
      vertex -3.1337 4.14969 2
    endloop
  endfacet
  facet normal -0.932473 -0.361241 0
    outer loop
      vertex -4.42113 -2.73745 2
      vertex -5.11146 -0.955497 5
      vertex -5.11146 -0.955497 2
    endloop
  endfacet
  facet normal -0.932473 -0.361241 0
    outer loop
      vertex -5.11146 -0.955497 5
      vertex -4.42113 -2.73745 2
      vertex -4.42113 -2.73745 5
    endloop
  endfacet
  facet normal -0.445737 -0.895164 0
    outer loop
      vertex -3.1337 -4.14969 2
      vertex -1.42305 -5.00149 5
      vertex -3.1337 -4.14969 5
    endloop
  endfacet
  facet normal -0.445737 -0.895164 -0
    outer loop
      vertex -1.42305 -5.00149 5
      vertex -3.1337 -4.14969 2
      vertex -1.42305 -5.00149 2
    endloop
  endfacet
  facet normal 0.309015 0.951057 -0
    outer loop
      vertex -0.491283 -4.67425 0
      vertex -2.35 -4.07032 5
      vertex -0.491283 -4.67425 5
    endloop
  endfacet
  facet normal 0.309015 0.951057 0
    outer loop
      vertex -2.35 -4.07032 5
      vertex -0.491283 -4.67425 0
      vertex -2.35 -4.07032 0
    endloop
  endfacet
  facet normal -0.809017 -0.587785 0
    outer loop
      vertex 4.29366 1.91166 0
      vertex 3.14491 3.49278 5
      vertex 3.14491 3.49278 0
    endloop
  endfacet
  facet normal -0.809017 -0.587785 0
    outer loop
      vertex 3.14491 3.49278 5
      vertex 4.29366 1.91166 0
      vertex 4.29366 1.91166 5
    endloop
  endfacet
  facet normal -0.978147 -0.207914 0
    outer loop
      vertex 4.7 0 0
      vertex 4.29366 1.91166 5
      vertex 4.29366 1.91166 0
    endloop
  endfacet
  facet normal -0.978147 -0.207914 0
    outer loop
      vertex 4.29366 1.91166 5
      vertex 4.7 0 0
      vertex 4.7 0 5
    endloop
  endfacet
  facet normal -0.499999 -0.866026 0
    outer loop
      vertex 1.45238 4.46996 0
      vertex 3.14491 3.49278 5
      vertex 1.45238 4.46996 5
    endloop
  endfacet
  facet normal -0.499999 -0.866026 -0
    outer loop
      vertex 3.14491 3.49278 5
      vertex 1.45238 4.46996 0
      vertex 3.14491 3.49278 0
    endloop
  endfacet
  facet normal -0.809017 0.587785 0
    outer loop
      vertex 3.14491 -3.49278 0
      vertex 4.29366 -1.91166 5
      vertex 4.29366 -1.91166 0
    endloop
  endfacet
  facet normal -0.809017 0.587785 0
    outer loop
      vertex 4.29366 -1.91166 5
      vertex 3.14491 -3.49278 0
      vertex 3.14491 -3.49278 5
    endloop
  endfacet
  facet normal -0.499999 0.866026 0
    outer loop
      vertex 3.14491 -3.49278 0
      vertex 1.45238 -4.46996 5
      vertex 3.14491 -3.49278 5
    endloop
  endfacet
  facet normal -0.499999 0.866026 0
    outer loop
      vertex 1.45238 -4.46996 5
      vertex 3.14491 -3.49278 0
      vertex 1.45238 -4.46996 0
    endloop
  endfacet
  facet normal 0.913546 -0.406735 0
    outer loop
      vertex -4.59729 0.977184 5
      vertex -3.80238 2.76259 0
      vertex -3.80238 2.76259 5
    endloop
  endfacet
  facet normal 0.913546 -0.406735 0
    outer loop
      vertex -3.80238 2.76259 0
      vertex -4.59729 0.977184 5
      vertex -4.59729 0.977184 0
    endloop
  endfacet
  facet normal 0.669131 -0.743145 0
    outer loop
      vertex -3.80238 2.76259 0
      vertex -2.35 4.07032 5
      vertex -3.80238 2.76259 5
    endloop
  endfacet
  facet normal 0.669131 -0.743145 0
    outer loop
      vertex -2.35 4.07032 5
      vertex -3.80238 2.76259 0
      vertex -2.35 4.07032 0
    endloop
  endfacet
  facet normal 0.309015 -0.951057 0
    outer loop
      vertex -2.35 4.07032 0
      vertex -0.491283 4.67425 5
      vertex -2.35 4.07032 5
    endloop
  endfacet
  facet normal 0.309015 -0.951057 0
    outer loop
      vertex -0.491283 4.67425 5
      vertex -2.35 4.07032 0
      vertex -0.491283 4.67425 0
    endloop
  endfacet
  facet normal -0.978147 0.207914 0
    outer loop
      vertex 4.29366 -1.91166 0
      vertex 4.7 0 5
      vertex 4.7 0 0
    endloop
  endfacet
  facet normal -0.978147 0.207914 0
    outer loop
      vertex 4.7 0 5
      vertex 4.29366 -1.91166 0
      vertex 4.29366 -1.91166 5
    endloop
  endfacet
  facet normal 1 -0 0
    outer loop
      vertex -4.59729 -0.977184 5
      vertex -4.59729 0.977184 0
      vertex -4.59729 0.977184 5
    endloop
  endfacet
  facet normal 1 0 0
    outer loop
      vertex -4.59729 0.977184 0
      vertex -4.59729 -0.977184 5
      vertex -4.59729 -0.977184 0
    endloop
  endfacet
  facet normal -0.10453 -0.994522 0
    outer loop
      vertex -0.491283 4.67425 0
      vertex 1.45238 4.46996 5
      vertex -0.491283 4.67425 5
    endloop
  endfacet
  facet normal -0.10453 -0.994522 -0
    outer loop
      vertex 1.45238 4.46996 5
      vertex -0.491283 4.67425 0
      vertex 1.45238 4.46996 0
    endloop
  endfacet
  facet normal -0.10453 0.994522 0
    outer loop
      vertex 1.45238 -4.46996 0
      vertex -0.491283 -4.67425 5
      vertex 1.45238 -4.46996 5
    endloop
  endfacet
  facet normal -0.10453 0.994522 0
    outer loop
      vertex -0.491283 -4.67425 5
      vertex 1.45238 -4.46996 0
      vertex -0.491283 -4.67425 0
    endloop
  endfacet
  facet normal 0.669131 0.743145 -0
    outer loop
      vertex -2.35 -4.07032 0
      vertex -3.80238 -2.76259 5
      vertex -2.35 -4.07032 5
    endloop
  endfacet
  facet normal 0.669131 0.743145 0
    outer loop
      vertex -3.80238 -2.76259 5
      vertex -2.35 -4.07032 0
      vertex -3.80238 -2.76259 0
    endloop
  endfacet
  facet normal 0.913546 0.406735 0
    outer loop
      vertex -3.80238 -2.76259 5
      vertex -4.59729 -0.977184 0
      vertex -4.59729 -0.977184 5
    endloop
  endfacet
  facet normal 0.913546 0.406735 0
    outer loop
      vertex -4.59729 -0.977184 0
      vertex -3.80238 -2.76259 5
      vertex -3.80238 -2.76259 0
    endloop
  endfacet
  facet normal -1 0 0
    outer loop
      vertex 3 16.7419 0
      vertex 3 21.9765 2
      vertex 3 21.9765 0
    endloop
  endfacet
  facet normal -1 -0 0
    outer loop
      vertex 3 21.9765 2
      vertex 3 16.7419 0
      vertex 3 16.7419 2
    endloop
  endfacet
  facet normal 1 -0 0
    outer loop
      vertex -3 16.7419 2
      vertex -3 21.9765 0
      vertex -3 21.9765 2
    endloop
  endfacet
  facet normal 1 0 0
    outer loop
      vertex -3 21.9765 0
      vertex -3 16.7419 2
      vertex -3 16.7419 0
    endloop
  endfacet
  facet normal 0 1 -0
    outer loop
      vertex 3 16.7419 0
      vertex -3 16.7419 2
      vertex 3 16.7419 2
    endloop
  endfacet
  facet normal 0 1 0
    outer loop
      vertex -3 16.7419 2
      vertex 3 16.7419 0
      vertex -3 16.7419 0
    endloop
  endfacet
  facet normal 0.222528 0.974926 -0
    outer loop
      vertex -16.253 9.56366 5
      vertex -17.945 9.94986 8
      vertex -16.253 9.56366 8
    endloop
  endfacet
  facet normal 0.222528 0.974926 0
    outer loop
      vertex -17.945 9.94986 8
      vertex -16.253 9.56366 5
      vertex -17.945 9.94986 5
    endloop
  endfacet
  facet normal 0.900973 0.433875 0
    outer loop
      vertex -15.5 8 8
      vertex -16.253 9.56366 5
      vertex -16.253 9.56366 8
    endloop
  endfacet
  facet normal 0.900973 0.433875 0
    outer loop
      vertex -16.253 9.56366 5
      vertex -15.5 8 8
      vertex -15.5 8 5
    endloop
  endfacet
  facet normal 0.900973 -0.433875 0
    outer loop
      vertex -16.253 6.43634 8
      vertex -15.5 8 5
      vertex -15.5 8 8
    endloop
  endfacet
  facet normal 0.900973 -0.433875 0
    outer loop
      vertex -15.5 8 5
      vertex -16.253 6.43634 8
      vertex -16.253 6.43634 5
    endloop
  endfacet
  facet normal 0 0 1
    outer loop
      vertex -16.253 9.56366 8
      vertex -16.253 6.43634 8
      vertex -15.5 8 8
    endloop
  endfacet
  facet normal 0 0 1
    outer loop
      vertex -17.945 9.94986 8
      vertex -16.253 6.43634 8
      vertex -16.253 9.56366 8
    endloop
  endfacet
  facet normal 0 0 1
    outer loop
      vertex -17.945 9.94986 8
      vertex -17.945 6.05014 8
      vertex -16.253 6.43634 8
    endloop
  endfacet
  facet normal -0 0 1
    outer loop
      vertex -19.3019 8.86777 8
      vertex -17.945 6.05014 8
      vertex -17.945 9.94986 8
    endloop
  endfacet
  facet normal 0 0 1
    outer loop
      vertex -17.945 6.05014 8
      vertex -19.3019 8.86777 8
      vertex -19.3019 7.13223 8
    endloop
  endfacet
  facet normal -0.623489 -0.781832 0
    outer loop
      vertex -19.3019 7.13223 5
      vertex -17.945 6.05014 8
      vertex -19.3019 7.13223 8
    endloop
  endfacet
  facet normal -0.623489 -0.781832 -0
    outer loop
      vertex -17.945 6.05014 8
      vertex -19.3019 7.13223 5
      vertex -17.945 6.05014 5
    endloop
  endfacet
  facet normal 0.222528 -0.974926 0
    outer loop
      vertex -17.945 6.05014 5
      vertex -16.253 6.43634 8
      vertex -17.945 6.05014 8
    endloop
  endfacet
  facet normal 0.222528 -0.974926 0
    outer loop
      vertex -16.253 6.43634 8
      vertex -17.945 6.05014 5
      vertex -16.253 6.43634 5
    endloop
  endfacet
  facet normal -1 0 0
    outer loop
      vertex -19.3019 7.13223 5
      vertex -19.3019 8.86777 8
      vertex -19.3019 8.86777 5
    endloop
  endfacet
  facet normal -1 -0 0
    outer loop
      vertex -19.3019 8.86777 8
      vertex -19.3019 7.13223 5
      vertex -19.3019 7.13223 8
    endloop
  endfacet
  facet normal -0.623489 0.781832 0
    outer loop
      vertex -17.945 9.94986 5
      vertex -19.3019 8.86777 8
      vertex -17.945 9.94986 8
    endloop
  endfacet
  facet normal -0.623489 0.781832 0
    outer loop
      vertex -19.3019 8.86777 8
      vertex -17.945 9.94986 5
      vertex -19.3019 8.86777 5
    endloop
  endfacet
  facet normal -0.951065 -0.308992 0
    outer loop
      vertex -19.9271 6.23664 2
      vertex -20.5 8 5
      vertex -20.5 8 2
    endloop
  endfacet
  facet normal -0.951065 -0.308992 0
    outer loop
      vertex -20.5 8 5
      vertex -19.9271 6.23664 2
      vertex -19.9271 6.23664 5
    endloop
  endfacet
  facet normal 0.587795 0.80901 -0
    outer loop
      vertex -15.0729 9.76336 2
      vertex -16.5729 10.8532 5
      vertex -15.0729 9.76336 5
    endloop
  endfacet
  facet normal 0.587795 0.80901 0
    outer loop
      vertex -16.5729 10.8532 5
      vertex -15.0729 9.76336 2
      vertex -16.5729 10.8532 2
    endloop
  endfacet
  facet normal 0.951065 0.308992 0
    outer loop
      vertex -14.5 8 5
      vertex -15.0729 9.76336 2
      vertex -15.0729 9.76336 5
    endloop
  endfacet
  facet normal 0.951065 0.308992 0
    outer loop
      vertex -15.0729 9.76336 2
      vertex -14.5 8 5
      vertex -14.5 8 2
    endloop
  endfacet
  facet normal 0 1 -0
    outer loop
      vertex -16.5729 10.8532 2
      vertex -18.4271 10.8532 5
      vertex -16.5729 10.8532 5
    endloop
  endfacet
  facet normal 0 1 0
    outer loop
      vertex -18.4271 10.8532 5
      vertex -16.5729 10.8532 2
      vertex -18.4271 10.8532 2
    endloop
  endfacet
  facet normal 0 0 1
    outer loop
      vertex -15.5 8 5
      vertex -14.5 8 5
      vertex -15.0729 9.76336 5
    endloop
  endfacet
  facet normal 0 0 1
    outer loop
      vertex -14.5 8 5
      vertex -15.5 8 5
      vertex -15.0729 6.23664 5
    endloop
  endfacet
  facet normal 0 0 1
    outer loop
      vertex -15.0729 9.76336 5
      vertex -16.253 9.56366 5
      vertex -15.5 8 5
    endloop
  endfacet
  facet normal 0 0 1
    outer loop
      vertex -16.5729 10.8532 5
      vertex -16.253 9.56366 5
      vertex -15.0729 9.76336 5
    endloop
  endfacet
  facet normal 0 0 1
    outer loop
      vertex -16.5729 10.8532 5
      vertex -17.945 9.94986 5
      vertex -16.253 9.56366 5
    endloop
  endfacet
  facet normal -0 0 1
    outer loop
      vertex -18.4271 10.8532 5
      vertex -17.945 9.94986 5
      vertex -16.5729 10.8532 5
    endloop
  endfacet
  facet normal 0 0 1
    outer loop
      vertex -19.9271 9.76336 5
      vertex -17.945 9.94986 5
      vertex -18.4271 10.8532 5
    endloop
  endfacet
  facet normal 0 0 1
    outer loop
      vertex -20.5 8 5
      vertex -19.3019 8.86777 5
      vertex -19.9271 9.76336 5
    endloop
  endfacet
  facet normal 0 0 1
    outer loop
      vertex -17.945 9.94986 5
      vertex -19.9271 9.76336 5
      vertex -19.3019 8.86777 5
    endloop
  endfacet
  facet normal -0 0 1
    outer loop
      vertex -16.253 6.43634 5
      vertex -15.0729 6.23664 5
      vertex -15.5 8 5
    endloop
  endfacet
  facet normal 0 0 1
    outer loop
      vertex -16.253 6.43634 5
      vertex -16.5729 5.14683 5
      vertex -15.0729 6.23664 5
    endloop
  endfacet
  facet normal -0 0 1
    outer loop
      vertex -17.945 6.05014 5
      vertex -16.5729 5.14683 5
      vertex -16.253 6.43634 5
    endloop
  endfacet
  facet normal 0 0 1
    outer loop
      vertex -17.945 6.05014 5
      vertex -18.4271 5.14683 5
      vertex -16.5729 5.14683 5
    endloop
  endfacet
  facet normal -0 0 1
    outer loop
      vertex -19.9271 6.23664 5
      vertex -17.945 6.05014 5
      vertex -19.3019 7.13223 5
    endloop
  endfacet
  facet normal 0 0 1
    outer loop
      vertex -17.945 6.05014 5
      vertex -19.9271 6.23664 5
      vertex -18.4271 5.14683 5
    endloop
  endfacet
  facet normal 0 0 1
    outer loop
      vertex -19.3019 8.86777 5
      vertex -20.5 8 5
      vertex -19.3019 7.13223 5
    endloop
  endfacet
  facet normal 0 0 1
    outer loop
      vertex -19.3019 7.13223 5
      vertex -20.5 8 5
      vertex -19.9271 6.23664 5
    endloop
  endfacet
  facet normal -0.587784 -0.809018 0
    outer loop
      vertex -19.9271 6.23664 2
      vertex -18.4271 5.14683 5
      vertex -19.9271 6.23664 5
    endloop
  endfacet
  facet normal -0.587784 -0.809018 -0
    outer loop
      vertex -18.4271 5.14683 5
      vertex -19.9271 6.23664 2
      vertex -18.4271 5.14683 2
    endloop
  endfacet
  facet normal 0.951065 -0.308992 0
    outer loop
      vertex -15.0729 6.23664 5
      vertex -14.5 8 2
      vertex -14.5 8 5
    endloop
  endfacet
  facet normal 0.951065 -0.308992 0
    outer loop
      vertex -14.5 8 2
      vertex -15.0729 6.23664 5
      vertex -15.0729 6.23664 2
    endloop
  endfacet
  facet normal -0.587814 0.808996 0
    outer loop
      vertex -19.8893 9.79077 2
      vertex -18.4271 10.8532 5
      vertex -18.4271 10.8532 2
    endloop
  endfacet
  facet normal -0.587795 0.80901 -1.45536e-05
    outer loop
      vertex -18.4271 10.8532 5
      vertex -19.8893 9.79077 2
      vertex -19.9271 9.76336 5
    endloop
  endfacet
  facet normal -0.587038 0.80956 0
    outer loop
      vertex -19.9271 9.76336 0
      vertex -19.8893 9.79077 2
      vertex -19.8893 9.79077 0
    endloop
  endfacet
  facet normal -0.587038 0.80956 0
    outer loop
      vertex -19.8893 9.79077 2
      vertex -19.9271 9.76336 0
      vertex -19.9271 9.76336 5
    endloop
  endfacet
  facet normal 0 -1 0
    outer loop
      vertex -18.4271 5.14683 2
      vertex -16.5729 5.14683 5
      vertex -18.4271 5.14683 5
    endloop
  endfacet
  facet normal 0 -1 -0
    outer loop
      vertex -16.5729 5.14683 5
      vertex -18.4271 5.14683 2
      vertex -16.5729 5.14683 2
    endloop
  endfacet
  facet normal 0.587784 -0.809018 0
    outer loop
      vertex -16.5729 5.14683 2
      vertex -15.0729 6.23664 5
      vertex -16.5729 5.14683 5
    endloop
  endfacet
  facet normal 0.587784 -0.809018 0
    outer loop
      vertex -15.0729 6.23664 5
      vertex -16.5729 5.14683 2
      vertex -15.0729 6.23664 2
    endloop
  endfacet
  facet normal -0.951377 0.308027 0
    outer loop
      vertex -19.9552 9.67657 2
      vertex -19.9271 9.76336 0
      vertex -19.9552 9.67657 0
    endloop
  endfacet
  facet normal -0.951377 0.308027 0
    outer loop
      vertex -19.9271 9.76336 0
      vertex -19.9552 9.67657 2
      vertex -19.9271 9.76336 5
    endloop
  endfacet
  facet normal -0.951048 0.309042 0
    outer loop
      vertex -20.5 8 5
      vertex -19.9552 9.67657 2
      vertex -20.5 8 2
    endloop
  endfacet
  facet normal -0.951065 0.308992 -3.08462e-05
    outer loop
      vertex -19.9552 9.67657 2
      vertex -20.5 8 5
      vertex -19.9271 9.76336 5
    endloop
  endfacet
  facet normal 0.222528 0.974926 -0
    outer loop
      vertex 18.747 9.56366 5
      vertex 17.055 9.94986 8
      vertex 18.747 9.56366 8
    endloop
  endfacet
  facet normal 0.222528 0.974926 0
    outer loop
      vertex 17.055 9.94986 8
      vertex 18.747 9.56366 5
      vertex 17.055 9.94986 5
    endloop
  endfacet
  facet normal 0.900973 0.433875 0
    outer loop
      vertex 19.5 8 8
      vertex 18.747 9.56366 5
      vertex 18.747 9.56366 8
    endloop
  endfacet
  facet normal 0.900973 0.433875 0
    outer loop
      vertex 18.747 9.56366 5
      vertex 19.5 8 8
      vertex 19.5 8 5
    endloop
  endfacet
  facet normal 0.900973 -0.433875 0
    outer loop
      vertex 18.747 6.43634 8
      vertex 19.5 8 5
      vertex 19.5 8 8
    endloop
  endfacet
  facet normal 0.900973 -0.433875 0
    outer loop
      vertex 19.5 8 5
      vertex 18.747 6.43634 8
      vertex 18.747 6.43634 5
    endloop
  endfacet
  facet normal 0 0 1
    outer loop
      vertex 18.747 9.56366 8
      vertex 18.747 6.43634 8
      vertex 19.5 8 8
    endloop
  endfacet
  facet normal 0 0 1
    outer loop
      vertex 17.055 9.94986 8
      vertex 18.747 6.43634 8
      vertex 18.747 9.56366 8
    endloop
  endfacet
  facet normal 0 0 1
    outer loop
      vertex 17.055 9.94986 8
      vertex 17.055 6.05014 8
      vertex 18.747 6.43634 8
    endloop
  endfacet
  facet normal -0 0 1
    outer loop
      vertex 15.6981 8.86777 8
      vertex 17.055 6.05014 8
      vertex 17.055 9.94986 8
    endloop
  endfacet
  facet normal 0 0 1
    outer loop
      vertex 17.055 6.05014 8
      vertex 15.6981 8.86777 8
      vertex 15.6981 7.13223 8
    endloop
  endfacet
  facet normal -0.623489 -0.781832 0
    outer loop
      vertex 15.6981 7.13223 5
      vertex 17.055 6.05014 8
      vertex 15.6981 7.13223 8
    endloop
  endfacet
  facet normal -0.623489 -0.781832 -0
    outer loop
      vertex 17.055 6.05014 8
      vertex 15.6981 7.13223 5
      vertex 17.055 6.05014 5
    endloop
  endfacet
  facet normal 0.222528 -0.974926 0
    outer loop
      vertex 17.055 6.05014 5
      vertex 18.747 6.43634 8
      vertex 17.055 6.05014 8
    endloop
  endfacet
  facet normal 0.222528 -0.974926 0
    outer loop
      vertex 18.747 6.43634 8
      vertex 17.055 6.05014 5
      vertex 18.747 6.43634 5
    endloop
  endfacet
  facet normal -1 0 0
    outer loop
      vertex 15.6981 7.13223 5
      vertex 15.6981 8.86777 8
      vertex 15.6981 8.86777 5
    endloop
  endfacet
  facet normal -1 -0 0
    outer loop
      vertex 15.6981 8.86777 8
      vertex 15.6981 7.13223 5
      vertex 15.6981 7.13223 8
    endloop
  endfacet
  facet normal -0.623489 0.781832 0
    outer loop
      vertex 17.055 9.94986 5
      vertex 15.6981 8.86777 8
      vertex 17.055 9.94986 8
    endloop
  endfacet
  facet normal -0.623489 0.781832 0
    outer loop
      vertex 15.6981 8.86777 8
      vertex 17.055 9.94986 5
      vertex 15.6981 8.86777 5
    endloop
  endfacet
  facet normal -0.951065 -0.308992 0
    outer loop
      vertex 15.0729 6.23664 2
      vertex 14.5 8 5
      vertex 14.5 8 2
    endloop
  endfacet
  facet normal -0.951065 -0.308992 0
    outer loop
      vertex 14.5 8 5
      vertex 15.0729 6.23664 2
      vertex 15.0729 6.23664 5
    endloop
  endfacet
  facet normal 0.587795 0.80901 -1.45536e-05
    outer loop
      vertex 19.9271 9.76336 5
      vertex 19.8893 9.79077 2
      vertex 18.4271 10.8532 5
    endloop
  endfacet
  facet normal 0.587038 0.80956 -0
    outer loop
      vertex 19.9271 9.76336 0
      vertex 19.8893 9.79077 2
      vertex 19.9271 9.76336 5
    endloop
  endfacet
  facet normal 0.587038 0.80956 0
    outer loop
      vertex 19.8893 9.79077 2
      vertex 19.9271 9.76336 0
      vertex 19.8893 9.79077 0
    endloop
  endfacet
  facet normal 0.587814 0.808996 0
    outer loop
      vertex 18.4271 10.8532 5
      vertex 19.8893 9.79077 2
      vertex 18.4271 10.8532 2
    endloop
  endfacet
  facet normal 0.951377 0.308027 0
    outer loop
      vertex 19.9271 9.76336 5
      vertex 19.9552 9.67657 2
      vertex 19.9271 9.76336 0
    endloop
  endfacet
  facet normal 0.951065 0.308992 -3.08462e-05
    outer loop
      vertex 20.5 8 5
      vertex 19.9552 9.67657 2
      vertex 19.9271 9.76336 5
    endloop
  endfacet
  facet normal 0.951048 0.309042 0
    outer loop
      vertex 19.9552 9.67657 2
      vertex 20.5 8 5
      vertex 20.5 8 2
    endloop
  endfacet
  facet normal 0.951377 0.308027 0
    outer loop
      vertex 19.9271 9.76336 0
      vertex 19.9552 9.67657 2
      vertex 19.9552 9.67657 0
    endloop
  endfacet
  facet normal 0 1 -0
    outer loop
      vertex 18.4271 10.8532 2
      vertex 16.5729 10.8532 5
      vertex 18.4271 10.8532 5
    endloop
  endfacet
  facet normal 0 1 0
    outer loop
      vertex 16.5729 10.8532 5
      vertex 18.4271 10.8532 2
      vertex 16.5729 10.8532 2
    endloop
  endfacet
  facet normal 0 0 1
    outer loop
      vertex 19.5 8 5
      vertex 20.5 8 5
      vertex 19.9271 9.76336 5
    endloop
  endfacet
  facet normal 0 0 1
    outer loop
      vertex 20.5 8 5
      vertex 19.5 8 5
      vertex 19.9271 6.23664 5
    endloop
  endfacet
  facet normal 0 0 1
    outer loop
      vertex 19.9271 9.76336 5
      vertex 18.747 9.56366 5
      vertex 19.5 8 5
    endloop
  endfacet
  facet normal 0 0 1
    outer loop
      vertex 18.4271 10.8532 5
      vertex 18.747 9.56366 5
      vertex 19.9271 9.76336 5
    endloop
  endfacet
  facet normal 0 0 1
    outer loop
      vertex 18.4271 10.8532 5
      vertex 17.055 9.94986 5
      vertex 18.747 9.56366 5
    endloop
  endfacet
  facet normal -0 0 1
    outer loop
      vertex 16.5729 10.8532 5
      vertex 17.055 9.94986 5
      vertex 18.4271 10.8532 5
    endloop
  endfacet
  facet normal 0 0 1
    outer loop
      vertex 15.0729 9.76336 5
      vertex 17.055 9.94986 5
      vertex 16.5729 10.8532 5
    endloop
  endfacet
  facet normal 0 0 1
    outer loop
      vertex 14.5 8 5
      vertex 15.6981 8.86777 5
      vertex 15.0729 9.76336 5
    endloop
  endfacet
  facet normal 0 0 1
    outer loop
      vertex 17.055 9.94986 5
      vertex 15.0729 9.76336 5
      vertex 15.6981 8.86777 5
    endloop
  endfacet
  facet normal -0 0 1
    outer loop
      vertex 18.747 6.43634 5
      vertex 19.9271 6.23664 5
      vertex 19.5 8 5
    endloop
  endfacet
  facet normal 0 0 1
    outer loop
      vertex 18.747 6.43634 5
      vertex 18.4271 5.14683 5
      vertex 19.9271 6.23664 5
    endloop
  endfacet
  facet normal -0 0 1
    outer loop
      vertex 17.055 6.05014 5
      vertex 18.4271 5.14683 5
      vertex 18.747 6.43634 5
    endloop
  endfacet
  facet normal 0 0 1
    outer loop
      vertex 17.055 6.05014 5
      vertex 16.5729 5.14683 5
      vertex 18.4271 5.14683 5
    endloop
  endfacet
  facet normal -0 0 1
    outer loop
      vertex 15.0729 6.23664 5
      vertex 17.055 6.05014 5
      vertex 15.6981 7.13223 5
    endloop
  endfacet
  facet normal 0 0 1
    outer loop
      vertex 17.055 6.05014 5
      vertex 15.0729 6.23664 5
      vertex 16.5729 5.14683 5
    endloop
  endfacet
  facet normal 0 0 1
    outer loop
      vertex 15.6981 8.86777 5
      vertex 14.5 8 5
      vertex 15.6981 7.13223 5
    endloop
  endfacet
  facet normal 0 0 1
    outer loop
      vertex 15.6981 7.13223 5
      vertex 14.5 8 5
      vertex 15.0729 6.23664 5
    endloop
  endfacet
  facet normal -0.587784 -0.809018 0
    outer loop
      vertex 15.0729 6.23664 2
      vertex 16.5729 5.14683 5
      vertex 15.0729 6.23664 5
    endloop
  endfacet
  facet normal -0.587784 -0.809018 -0
    outer loop
      vertex 16.5729 5.14683 5
      vertex 15.0729 6.23664 2
      vertex 16.5729 5.14683 2
    endloop
  endfacet
  facet normal 0.951065 -0.308992 0
    outer loop
      vertex 19.9271 6.23664 5
      vertex 20.5 8 2
      vertex 20.5 8 5
    endloop
  endfacet
  facet normal 0.951065 -0.308992 0
    outer loop
      vertex 20.5 8 2
      vertex 19.9271 6.23664 5
      vertex 19.9271 6.23664 2
    endloop
  endfacet
  facet normal -0.587795 0.80901 0
    outer loop
      vertex 16.5729 10.8532 2
      vertex 15.0729 9.76336 5
      vertex 16.5729 10.8532 5
    endloop
  endfacet
  facet normal -0.587795 0.80901 0
    outer loop
      vertex 15.0729 9.76336 5
      vertex 16.5729 10.8532 2
      vertex 15.0729 9.76336 2
    endloop
  endfacet
  facet normal 0 -1 0
    outer loop
      vertex 16.5729 5.14683 2
      vertex 18.4271 5.14683 5
      vertex 16.5729 5.14683 5
    endloop
  endfacet
  facet normal 0 -1 -0
    outer loop
      vertex 18.4271 5.14683 5
      vertex 16.5729 5.14683 2
      vertex 18.4271 5.14683 2
    endloop
  endfacet
  facet normal 0.587784 -0.809018 0
    outer loop
      vertex 18.4271 5.14683 2
      vertex 19.9271 6.23664 5
      vertex 18.4271 5.14683 5
    endloop
  endfacet
  facet normal 0.587784 -0.809018 0
    outer loop
      vertex 19.9271 6.23664 5
      vertex 18.4271 5.14683 2
      vertex 19.9271 6.23664 2
    endloop
  endfacet
  facet normal -0.951065 0.308992 0
    outer loop
      vertex 14.5 8 2
      vertex 15.0729 9.76336 5
      vertex 15.0729 9.76336 2
    endloop
  endfacet
  facet normal -0.951065 0.308992 0
    outer loop
      vertex 15.0729 9.76336 5
      vertex 14.5 8 2
      vertex 14.5 8 5
    endloop
  endfacet
endsolid OpenSCAD_Model
