solid OpenSCAD_Model
  facet normal 0 1 -0
    outer loop
      vertex 20.0919 -1.47224 0
      vertex 18.3919 -1.47224 2
      vertex 20.0919 -1.47224 2
    endloop
  endfacet
  facet normal 0 1 0
    outer loop
      vertex 18.3919 -1.47224 2
      vertex 20.0919 -1.47224 0
      vertex 18.3919 -1.47224 0
    endloop
  endfacet
  facet normal -0.866025 0.500001 0
    outer loop
      vertex 20.0919 -1.47224 0
      vertex 20.9419 0 2
      vertex 20.9419 0 0
    endloop
  endfacet
  facet normal -0.866025 0.500001 0
    outer loop
      vertex 20.9419 0 2
      vertex 20.0919 -1.47224 0
      vertex 20.0919 -1.47224 2
    endloop
  endfacet
  facet normal 0 -1 0
    outer loop
      vertex 18.3919 1.47224 0
      vertex 20.0919 1.47224 2
      vertex 18.3919 1.47224 2
    endloop
  endfacet
  facet normal 0 -1 -0
    outer loop
      vertex 20.0919 1.47224 2
      vertex 18.3919 1.47224 0
      vertex 20.0919 1.47224 0
    endloop
  endfacet
  facet normal -0.866025 -0.500001 0
    outer loop
      vertex 20.9419 0 0
      vertex 20.0919 1.47224 2
      vertex 20.0919 1.47224 0
    endloop
  endfacet
  facet normal -0.866025 -0.500001 0
    outer loop
      vertex 20.0919 1.47224 2
      vertex 20.9419 0 0
      vertex 20.9419 0 2
    endloop
  endfacet
  facet normal 0.866025 -0.500001 0
    outer loop
      vertex 17.5419 0 2
      vertex 18.3919 1.47224 0
      vertex 18.3919 1.47224 2
    endloop
  endfacet
  facet normal 0.866025 -0.500001 0
    outer loop
      vertex 18.3919 1.47224 0
      vertex 17.5419 0 2
      vertex 17.5419 0 0
    endloop
  endfacet
  facet normal 0.866025 0.500001 0
    outer loop
      vertex 18.3919 -1.47224 2
      vertex 17.5419 0 0
      vertex 17.5419 0 2
    endloop
  endfacet
  facet normal 0.866025 0.500001 0
    outer loop
      vertex 17.5419 0 0
      vertex 18.3919 -1.47224 2
      vertex 18.3919 -1.47224 0
    endloop
  endfacet
  facet normal 0 1 -0
    outer loop
      vertex 17.514 8.1487 0
      vertex 15.814 8.1487 2
      vertex 17.514 8.1487 2
    endloop
  endfacet
  facet normal 0 1 0
    outer loop
      vertex 15.814 8.1487 2
      vertex 17.514 8.1487 0
      vertex 15.814 8.1487 0
    endloop
  endfacet
  facet normal -0.866025 0.500001 0
    outer loop
      vertex 17.514 8.1487 0
      vertex 18.364 9.62094 2
      vertex 18.364 9.62094 0
    endloop
  endfacet
  facet normal -0.866025 0.500001 0
    outer loop
      vertex 18.364 9.62094 2
      vertex 17.514 8.1487 0
      vertex 17.514 8.1487 2
    endloop
  endfacet
  facet normal 0 -1 0
    outer loop
      vertex 15.814 11.0932 0
      vertex 17.514 11.0932 2
      vertex 15.814 11.0932 2
    endloop
  endfacet
  facet normal 0 -1 -0
    outer loop
      vertex 17.514 11.0932 2
      vertex 15.814 11.0932 0
      vertex 17.514 11.0932 0
    endloop
  endfacet
  facet normal -0.866028 -0.499996 0
    outer loop
      vertex 18.364 9.62094 0
      vertex 17.514 11.0932 2
      vertex 17.514 11.0932 0
    endloop
  endfacet
  facet normal -0.866028 -0.499996 0
    outer loop
      vertex 17.514 11.0932 2
      vertex 18.364 9.62094 0
      vertex 18.364 9.62094 2
    endloop
  endfacet
  facet normal 0.866028 -0.499996 0
    outer loop
      vertex 14.964 9.62094 2
      vertex 15.814 11.0932 0
      vertex 15.814 11.0932 2
    endloop
  endfacet
  facet normal 0.866028 -0.499996 0
    outer loop
      vertex 15.814 11.0932 0
      vertex 14.964 9.62094 2
      vertex 14.964 9.62094 0
    endloop
  endfacet
  facet normal 0.866025 0.500001 0
    outer loop
      vertex 15.814 8.1487 2
      vertex 14.964 9.62094 0
      vertex 14.964 9.62094 2
    endloop
  endfacet
  facet normal 0.866025 0.500001 0
    outer loop
      vertex 14.964 9.62094 0
      vertex 15.814 8.1487 2
      vertex 15.814 8.1487 0
    endloop
  endfacet
  facet normal 0 1 -0
    outer loop
      vertex 10.4709 15.1917 0
      vertex 8.77094 15.1917 2
      vertex 10.4709 15.1917 2
    endloop
  endfacet
  facet normal 0 1 0
    outer loop
      vertex 8.77094 15.1917 2
      vertex 10.4709 15.1917 0
      vertex 8.77094 15.1917 0
    endloop
  endfacet
  facet normal -0.866034 0.499986 0
    outer loop
      vertex 10.4709 15.1917 0
      vertex 11.3209 16.664 2
      vertex 11.3209 16.664 0
    endloop
  endfacet
  facet normal -0.866034 0.499986 0
    outer loop
      vertex 11.3209 16.664 2
      vertex 10.4709 15.1917 0
      vertex 10.4709 15.1917 2
    endloop
  endfacet
  facet normal 0 -1 0
    outer loop
      vertex 8.77094 18.1362 0
      vertex 10.4709 18.1362 2
      vertex 8.77094 18.1362 2
    endloop
  endfacet
  facet normal 0 -1 -0
    outer loop
      vertex 10.4709 18.1362 2
      vertex 8.77094 18.1362 0
      vertex 10.4709 18.1362 0
    endloop
  endfacet
  facet normal -0.866019 -0.500011 0
    outer loop
      vertex 11.3209 16.664 0
      vertex 10.4709 18.1362 2
      vertex 10.4709 18.1362 0
    endloop
  endfacet
  facet normal -0.866019 -0.500011 0
    outer loop
      vertex 10.4709 18.1362 2
      vertex 11.3209 16.664 0
      vertex 11.3209 16.664 2
    endloop
  endfacet
  facet normal 0.866019 -0.500011 0
    outer loop
      vertex 7.92094 16.664 2
      vertex 8.77094 18.1362 0
      vertex 8.77094 18.1362 2
    endloop
  endfacet
  facet normal 0.866019 -0.500011 0
    outer loop
      vertex 8.77094 18.1362 0
      vertex 7.92094 16.664 2
      vertex 7.92094 16.664 0
    endloop
  endfacet
  facet normal 0.866034 0.499986 0
    outer loop
      vertex 8.77094 15.1917 2
      vertex 7.92094 16.664 0
      vertex 7.92094 16.664 2
    endloop
  endfacet
  facet normal 0.866034 0.499986 0
    outer loop
      vertex 7.92094 16.664 0
      vertex 8.77094 15.1917 2
      vertex 8.77094 15.1917 0
    endloop
  endfacet
  facet normal 0 -1 0
    outer loop
      vertex -0.849999 20.7141 0
      vertex 0.849999 20.7141 2
      vertex -0.849999 20.7141 2
    endloop
  endfacet
  facet normal 0 -1 -0
    outer loop
      vertex 0.849999 20.7141 2
      vertex -0.849999 20.7141 0
      vertex 0.849999 20.7141 0
    endloop
  endfacet
  facet normal -0.866019 -0.500011 0
    outer loop
      vertex 1.7 19.2419 0
      vertex 0.849999 20.7141 2
      vertex 0.849999 20.7141 0
    endloop
  endfacet
  facet normal -0.866019 -0.500011 0
    outer loop
      vertex 0.849999 20.7141 2
      vertex 1.7 19.2419 0
      vertex 1.7 19.2419 2
    endloop
  endfacet
  facet normal 0.866019 -0.500011 0
    outer loop
      vertex -1.7 19.2419 2
      vertex -0.849999 20.7141 0
      vertex -0.849999 20.7141 2
    endloop
  endfacet
  facet normal 0.866019 -0.500011 0
    outer loop
      vertex -0.849999 20.7141 0
      vertex -1.7 19.2419 2
      vertex -1.7 19.2419 0
    endloop
  endfacet
  facet normal 0.866034 0.499986 0
    outer loop
      vertex -0.849999 17.7696 2
      vertex -1.7 19.2419 0
      vertex -1.7 19.2419 2
    endloop
  endfacet
  facet normal 0.866034 0.499986 0
    outer loop
      vertex -1.7 19.2419 0
      vertex -0.849999 17.7696 2
      vertex -0.849999 17.7696 0
    endloop
  endfacet
  facet normal -0.866034 0.499986 0
    outer loop
      vertex 0.849999 17.7696 0
      vertex 1.7 19.2419 2
      vertex 1.7 19.2419 0
    endloop
  endfacet
  facet normal -0.866034 0.499986 0
    outer loop
      vertex 1.7 19.2419 2
      vertex 0.849999 17.7696 0
      vertex 0.849999 17.7696 2
    endloop
  endfacet
  facet normal 0 1 -0
    outer loop
      vertex 0.849999 17.7696 0
      vertex -0.849999 17.7696 2
      vertex 0.849999 17.7696 2
    endloop
  endfacet
  facet normal 0 1 0
    outer loop
      vertex -0.849999 17.7696 2
      vertex 0.849999 17.7696 0
      vertex -0.849999 17.7696 0
    endloop
  endfacet
  facet normal 0 1 -0
    outer loop
      vertex -8.77094 15.1917 0
      vertex -10.4709 15.1917 2
      vertex -8.77094 15.1917 2
    endloop
  endfacet
  facet normal 0 1 0
    outer loop
      vertex -10.4709 15.1917 2
      vertex -8.77094 15.1917 0
      vertex -10.4709 15.1917 0
    endloop
  endfacet
  facet normal -0.866034 0.499986 0
    outer loop
      vertex -8.77094 15.1917 0
      vertex -7.92094 16.664 2
      vertex -7.92094 16.664 0
    endloop
  endfacet
  facet normal -0.866034 0.499986 0
    outer loop
      vertex -7.92094 16.664 2
      vertex -8.77094 15.1917 0
      vertex -8.77094 15.1917 2
    endloop
  endfacet
  facet normal 0 -1 0
    outer loop
      vertex -10.4709 18.1362 0
      vertex -8.77094 18.1362 2
      vertex -10.4709 18.1362 2
    endloop
  endfacet
  facet normal 0 -1 -0
    outer loop
      vertex -8.77094 18.1362 2
      vertex -10.4709 18.1362 0
      vertex -8.77094 18.1362 0
    endloop
  endfacet
  facet normal -0.866019 -0.500011 0
    outer loop
      vertex -7.92094 16.664 0
      vertex -8.77094 18.1362 2
      vertex -8.77094 18.1362 0
    endloop
  endfacet
  facet normal -0.866019 -0.500011 0
    outer loop
      vertex -8.77094 18.1362 2
      vertex -7.92094 16.664 0
      vertex -7.92094 16.664 2
    endloop
  endfacet
  facet normal 0.866019 -0.500011 0
    outer loop
      vertex -11.3209 16.664 2
      vertex -10.4709 18.1362 0
      vertex -10.4709 18.1362 2
    endloop
  endfacet
  facet normal 0.866019 -0.500011 0
    outer loop
      vertex -10.4709 18.1362 0
      vertex -11.3209 16.664 2
      vertex -11.3209 16.664 0
    endloop
  endfacet
  facet normal 0.866034 0.499986 0
    outer loop
      vertex -10.4709 15.1917 2
      vertex -11.3209 16.664 0
      vertex -11.3209 16.664 2
    endloop
  endfacet
  facet normal 0.866034 0.499986 0
    outer loop
      vertex -11.3209 16.664 0
      vertex -10.4709 15.1917 2
      vertex -10.4709 15.1917 0
    endloop
  endfacet
  facet normal 0 1 -0
    outer loop
      vertex -15.814 8.1487 0
      vertex -17.514 8.1487 2
      vertex -15.814 8.1487 2
    endloop
  endfacet
  facet normal 0 1 0
    outer loop
      vertex -17.514 8.1487 2
      vertex -15.814 8.1487 0
      vertex -17.514 8.1487 0
    endloop
  endfacet
  facet normal -0.866025 0.500001 0
    outer loop
      vertex -15.814 8.1487 0
      vertex -14.964 9.62094 2
      vertex -14.964 9.62094 0
    endloop
  endfacet
  facet normal -0.866025 0.500001 0
    outer loop
      vertex -14.964 9.62094 2
      vertex -15.814 8.1487 0
      vertex -15.814 8.1487 2
    endloop
  endfacet
  facet normal 0 -1 0
    outer loop
      vertex -17.514 11.0932 0
      vertex -15.814 11.0932 2
      vertex -17.514 11.0932 2
    endloop
  endfacet
  facet normal 0 -1 -0
    outer loop
      vertex -15.814 11.0932 2
      vertex -17.514 11.0932 0
      vertex -15.814 11.0932 0
    endloop
  endfacet
  facet normal -0.866028 -0.499996 0
    outer loop
      vertex -14.964 9.62094 0
      vertex -15.814 11.0932 2
      vertex -15.814 11.0932 0
    endloop
  endfacet
  facet normal -0.866028 -0.499996 0
    outer loop
      vertex -15.814 11.0932 2
      vertex -14.964 9.62094 0
      vertex -14.964 9.62094 2
    endloop
  endfacet
  facet normal 0.866028 -0.499996 0
    outer loop
      vertex -18.364 9.62094 2
      vertex -17.514 11.0932 0
      vertex -17.514 11.0932 2
    endloop
  endfacet
  facet normal 0.866028 -0.499996 0
    outer loop
      vertex -17.514 11.0932 0
      vertex -18.364 9.62094 2
      vertex -18.364 9.62094 0
    endloop
  endfacet
  facet normal 0.866025 0.500001 0
    outer loop
      vertex -17.514 8.1487 2
      vertex -18.364 9.62094 0
      vertex -18.364 9.62094 2
    endloop
  endfacet
  facet normal 0.866025 0.500001 0
    outer loop
      vertex -18.364 9.62094 0
      vertex -17.514 8.1487 2
      vertex -17.514 8.1487 0
    endloop
  endfacet
  facet normal 0 1 -0
    outer loop
      vertex -18.3919 -1.47224 0
      vertex -20.0919 -1.47224 2
      vertex -18.3919 -1.47224 2
    endloop
  endfacet
  facet normal 0 1 0
    outer loop
      vertex -20.0919 -1.47224 2
      vertex -18.3919 -1.47224 0
      vertex -20.0919 -1.47224 0
    endloop
  endfacet
  facet normal -0.866025 0.500001 0
    outer loop
      vertex -18.3919 -1.47224 0
      vertex -17.5419 0 2
      vertex -17.5419 0 0
    endloop
  endfacet
  facet normal -0.866025 0.500001 0
    outer loop
      vertex -17.5419 0 2
      vertex -18.3919 -1.47224 0
      vertex -18.3919 -1.47224 2
    endloop
  endfacet
  facet normal 0 -1 0
    outer loop
      vertex -20.0919 1.47224 0
      vertex -18.3919 1.47224 2
      vertex -20.0919 1.47224 2
    endloop
  endfacet
  facet normal 0 -1 -0
    outer loop
      vertex -18.3919 1.47224 2
      vertex -20.0919 1.47224 0
      vertex -18.3919 1.47224 0
    endloop
  endfacet
  facet normal -0.866025 -0.500001 0
    outer loop
      vertex -17.5419 0 0
      vertex -18.3919 1.47224 2
      vertex -18.3919 1.47224 0
    endloop
  endfacet
  facet normal -0.866025 -0.500001 0
    outer loop
      vertex -18.3919 1.47224 2
      vertex -17.5419 0 0
      vertex -17.5419 0 2
    endloop
  endfacet
  facet normal 0.866025 -0.500001 0
    outer loop
      vertex -20.9419 0 2
      vertex -20.0919 1.47224 0
      vertex -20.0919 1.47224 2
    endloop
  endfacet
  facet normal 0.866025 -0.500001 0
    outer loop
      vertex -20.0919 1.47224 0
      vertex -20.9419 0 2
      vertex -20.9419 0 0
    endloop
  endfacet
  facet normal 0.866025 0.500001 0
    outer loop
      vertex -20.0919 -1.47224 2
      vertex -20.9419 0 0
      vertex -20.9419 0 2
    endloop
  endfacet
  facet normal 0.866025 0.500001 0
    outer loop
      vertex -20.9419 0 0
      vertex -20.0919 -1.47224 2
      vertex -20.0919 -1.47224 0
    endloop
  endfacet
  facet normal 0 1 -0
    outer loop
      vertex -15.814 -11.0932 0
      vertex -17.514 -11.0932 2
      vertex -15.814 -11.0932 2
    endloop
  endfacet
  facet normal 0 1 0
    outer loop
      vertex -17.514 -11.0932 2
      vertex -15.814 -11.0932 0
      vertex -17.514 -11.0932 0
    endloop
  endfacet
  facet normal -0.866028 0.499996 0
    outer loop
      vertex -15.814 -11.0932 0
      vertex -14.964 -9.62094 2
      vertex -14.964 -9.62094 0
    endloop
  endfacet
  facet normal -0.866028 0.499996 0
    outer loop
      vertex -14.964 -9.62094 2
      vertex -15.814 -11.0932 0
      vertex -15.814 -11.0932 2
    endloop
  endfacet
  facet normal 0 -1 0
    outer loop
      vertex -17.514 -8.1487 0
      vertex -15.814 -8.1487 2
      vertex -17.514 -8.1487 2
    endloop
  endfacet
  facet normal 0 -1 -0
    outer loop
      vertex -15.814 -8.1487 2
      vertex -17.514 -8.1487 0
      vertex -15.814 -8.1487 0
    endloop
  endfacet
  facet normal -0.866025 -0.500001 0
    outer loop
      vertex -14.964 -9.62094 0
      vertex -15.814 -8.1487 2
      vertex -15.814 -8.1487 0
    endloop
  endfacet
  facet normal -0.866025 -0.500001 0
    outer loop
      vertex -15.814 -8.1487 2
      vertex -14.964 -9.62094 0
      vertex -14.964 -9.62094 2
    endloop
  endfacet
  facet normal 0.866025 -0.500001 0
    outer loop
      vertex -18.364 -9.62094 2
      vertex -17.514 -8.1487 0
      vertex -17.514 -8.1487 2
    endloop
  endfacet
  facet normal 0.866025 -0.500001 0
    outer loop
      vertex -17.514 -8.1487 0
      vertex -18.364 -9.62094 2
      vertex -18.364 -9.62094 0
    endloop
  endfacet
  facet normal 0.866028 0.499996 0
    outer loop
      vertex -17.514 -11.0932 2
      vertex -18.364 -9.62094 0
      vertex -18.364 -9.62094 2
    endloop
  endfacet
  facet normal 0.866028 0.499996 0
    outer loop
      vertex -18.364 -9.62094 0
      vertex -17.514 -11.0932 2
      vertex -17.514 -11.0932 0
    endloop
  endfacet
  facet normal 0 1 -0
    outer loop
      vertex -8.77094 -18.1362 0
      vertex -10.4709 -18.1362 2
      vertex -8.77094 -18.1362 2
    endloop
  endfacet
  facet normal 0 1 0
    outer loop
      vertex -10.4709 -18.1362 2
      vertex -8.77094 -18.1362 0
      vertex -10.4709 -18.1362 0
    endloop
  endfacet
  facet normal -0.866019 0.500011 0
    outer loop
      vertex -8.77094 -18.1362 0
      vertex -7.92094 -16.664 2
      vertex -7.92094 -16.664 0
    endloop
  endfacet
  facet normal -0.866019 0.500011 0
    outer loop
      vertex -7.92094 -16.664 2
      vertex -8.77094 -18.1362 0
      vertex -8.77094 -18.1362 2
    endloop
  endfacet
  facet normal 0 -1 0
    outer loop
      vertex -10.4709 -15.1917 0
      vertex -8.77094 -15.1917 2
      vertex -10.4709 -15.1917 2
    endloop
  endfacet
  facet normal 0 -1 -0
    outer loop
      vertex -8.77094 -15.1917 2
      vertex -10.4709 -15.1917 0
      vertex -8.77094 -15.1917 0
    endloop
  endfacet
  facet normal -0.866034 -0.499986 0
    outer loop
      vertex -7.92094 -16.664 0
      vertex -8.77094 -15.1917 2
      vertex -8.77094 -15.1917 0
    endloop
  endfacet
  facet normal -0.866034 -0.499986 0
    outer loop
      vertex -8.77094 -15.1917 2
      vertex -7.92094 -16.664 0
      vertex -7.92094 -16.664 2
    endloop
  endfacet
  facet normal 0.866034 -0.499986 0
    outer loop
      vertex -11.3209 -16.664 2
      vertex -10.4709 -15.1917 0
      vertex -10.4709 -15.1917 2
    endloop
  endfacet
  facet normal 0.866034 -0.499986 0
    outer loop
      vertex -10.4709 -15.1917 0
      vertex -11.3209 -16.664 2
      vertex -11.3209 -16.664 0
    endloop
  endfacet
  facet normal 0.866019 0.500011 0
    outer loop
      vertex -10.4709 -18.1362 2
      vertex -11.3209 -16.664 0
      vertex -11.3209 -16.664 2
    endloop
  endfacet
  facet normal 0.866019 0.500011 0
    outer loop
      vertex -11.3209 -16.664 0
      vertex -10.4709 -18.1362 2
      vertex -10.4709 -18.1362 0
    endloop
  endfacet
  facet normal 0 1 -0
    outer loop
      vertex 0.849999 -20.7141 0
      vertex -0.849999 -20.7141 2
      vertex 0.849999 -20.7141 2
    endloop
  endfacet
  facet normal 0 1 0
    outer loop
      vertex -0.849999 -20.7141 2
      vertex 0.849999 -20.7141 0
      vertex -0.849999 -20.7141 0
    endloop
  endfacet
  facet normal -0.866019 0.500011 0
    outer loop
      vertex 0.849999 -20.7141 0
      vertex 1.7 -19.2419 2
      vertex 1.7 -19.2419 0
    endloop
  endfacet
  facet normal -0.866019 0.500011 0
    outer loop
      vertex 1.7 -19.2419 2
      vertex 0.849999 -20.7141 0
      vertex 0.849999 -20.7141 2
    endloop
  endfacet
  facet normal 0 -1 0
    outer loop
      vertex -0.849999 -17.7696 0
      vertex 0.849999 -17.7696 2
      vertex -0.849999 -17.7696 2
    endloop
  endfacet
  facet normal 0 -1 -0
    outer loop
      vertex 0.849999 -17.7696 2
      vertex -0.849999 -17.7696 0
      vertex 0.849999 -17.7696 0
    endloop
  endfacet
  facet normal -0.866034 -0.499986 0
    outer loop
      vertex 1.7 -19.2419 0
      vertex 0.849999 -17.7696 2
      vertex 0.849999 -17.7696 0
    endloop
  endfacet
  facet normal -0.866034 -0.499986 0
    outer loop
      vertex 0.849999 -17.7696 2
      vertex 1.7 -19.2419 0
      vertex 1.7 -19.2419 2
    endloop
  endfacet
  facet normal 0.866034 -0.499986 0
    outer loop
      vertex -1.7 -19.2419 2
      vertex -0.849999 -17.7696 0
      vertex -0.849999 -17.7696 2
    endloop
  endfacet
  facet normal 0.866034 -0.499986 0
    outer loop
      vertex -0.849999 -17.7696 0
      vertex -1.7 -19.2419 2
      vertex -1.7 -19.2419 0
    endloop
  endfacet
  facet normal 0.866019 0.500011 0
    outer loop
      vertex -0.849999 -20.7141 2
      vertex -1.7 -19.2419 0
      vertex -1.7 -19.2419 2
    endloop
  endfacet
  facet normal 0.866019 0.500011 0
    outer loop
      vertex -1.7 -19.2419 0
      vertex -0.849999 -20.7141 2
      vertex -0.849999 -20.7141 0
    endloop
  endfacet
  facet normal 0 1 -0
    outer loop
      vertex 10.4709 -18.1362 0
      vertex 8.77094 -18.1362 2
      vertex 10.4709 -18.1362 2
    endloop
  endfacet
  facet normal 0 1 0
    outer loop
      vertex 8.77094 -18.1362 2
      vertex 10.4709 -18.1362 0
      vertex 8.77094 -18.1362 0
    endloop
  endfacet
  facet normal -0.866019 0.500011 0
    outer loop
      vertex 10.4709 -18.1362 0
      vertex 11.3209 -16.664 2
      vertex 11.3209 -16.664 0
    endloop
  endfacet
  facet normal -0.866019 0.500011 0
    outer loop
      vertex 11.3209 -16.664 2
      vertex 10.4709 -18.1362 0
      vertex 10.4709 -18.1362 2
    endloop
  endfacet
  facet normal 0 -1 0
    outer loop
      vertex 8.77094 -15.1917 0
      vertex 10.4709 -15.1917 2
      vertex 8.77094 -15.1917 2
    endloop
  endfacet
  facet normal 0 -1 -0
    outer loop
      vertex 10.4709 -15.1917 2
      vertex 8.77094 -15.1917 0
      vertex 10.4709 -15.1917 0
    endloop
  endfacet
  facet normal -0.866034 -0.499986 0
    outer loop
      vertex 11.3209 -16.664 0
      vertex 10.4709 -15.1917 2
      vertex 10.4709 -15.1917 0
    endloop
  endfacet
  facet normal -0.866034 -0.499986 0
    outer loop
      vertex 10.4709 -15.1917 2
      vertex 11.3209 -16.664 0
      vertex 11.3209 -16.664 2
    endloop
  endfacet
  facet normal 0.866034 -0.499986 0
    outer loop
      vertex 7.92094 -16.664 2
      vertex 8.77094 -15.1917 0
      vertex 8.77094 -15.1917 2
    endloop
  endfacet
  facet normal 0.866034 -0.499986 0
    outer loop
      vertex 8.77094 -15.1917 0
      vertex 7.92094 -16.664 2
      vertex 7.92094 -16.664 0
    endloop
  endfacet
  facet normal 0.866019 0.500011 0
    outer loop
      vertex 8.77094 -18.1362 2
      vertex 7.92094 -16.664 0
      vertex 7.92094 -16.664 2
    endloop
  endfacet
  facet normal 0.866019 0.500011 0
    outer loop
      vertex 7.92094 -16.664 0
      vertex 8.77094 -18.1362 2
      vertex 8.77094 -18.1362 0
    endloop
  endfacet
  facet normal 0 1 -0
    outer loop
      vertex 17.514 -11.0932 0
      vertex 15.814 -11.0932 2
      vertex 17.514 -11.0932 2
    endloop
  endfacet
  facet normal 0 1 0
    outer loop
      vertex 15.814 -11.0932 2
      vertex 17.514 -11.0932 0
      vertex 15.814 -11.0932 0
    endloop
  endfacet
  facet normal -0.866028 0.499996 0
    outer loop
      vertex 17.514 -11.0932 0
      vertex 18.364 -9.62094 2
      vertex 18.364 -9.62094 0
    endloop
  endfacet
  facet normal -0.866028 0.499996 0
    outer loop
      vertex 18.364 -9.62094 2
      vertex 17.514 -11.0932 0
      vertex 17.514 -11.0932 2
    endloop
  endfacet
  facet normal 0 -1 0
    outer loop
      vertex 15.814 -8.1487 0
      vertex 17.514 -8.1487 2
      vertex 15.814 -8.1487 2
    endloop
  endfacet
  facet normal 0 -1 -0
    outer loop
      vertex 17.514 -8.1487 2
      vertex 15.814 -8.1487 0
      vertex 17.514 -8.1487 0
    endloop
  endfacet
  facet normal -0.866025 -0.500001 0
    outer loop
      vertex 18.364 -9.62094 0
      vertex 17.514 -8.1487 2
      vertex 17.514 -8.1487 0
    endloop
  endfacet
  facet normal -0.866025 -0.500001 0
    outer loop
      vertex 17.514 -8.1487 2
      vertex 18.364 -9.62094 0
      vertex 18.364 -9.62094 2
    endloop
  endfacet
  facet normal 0.866025 -0.500001 0
    outer loop
      vertex 14.964 -9.62094 2
      vertex 15.814 -8.1487 0
      vertex 15.814 -8.1487 2
    endloop
  endfacet
  facet normal 0.866025 -0.500001 0
    outer loop
      vertex 15.814 -8.1487 0
      vertex 14.964 -9.62094 2
      vertex 14.964 -9.62094 0
    endloop
  endfacet
  facet normal 0.866028 0.499996 0
    outer loop
      vertex 15.814 -11.0932 2
      vertex 14.964 -9.62094 0
      vertex 14.964 -9.62094 2
    endloop
  endfacet
  facet normal 0.866028 0.499996 0
    outer loop
      vertex 14.964 -9.62094 0
      vertex 15.814 -11.0932 2
      vertex 15.814 -11.0932 0
    endloop
  endfacet
  facet normal 0.207901 -0.97815 0
    outer loop
      vertex 2.32491 -22.12 0
      vertex 6.87312 -21.1533 2
      vertex 2.32491 -22.12 2
    endloop
  endfacet
  facet normal 0.207901 -0.97815 0
    outer loop
      vertex 6.87312 -21.1533 2
      vertex 2.32491 -22.12 0
      vertex 6.87312 -21.1533 0
    endloop
  endfacet
  facet normal 0.951061 0.309003 0
    outer loop
      vertex 21.7558 4.62435 2
      vertex 20.319 9.04659 0
      vertex 20.319 9.04659 2
    endloop
  endfacet
  facet normal 0.951061 0.309003 0
    outer loop
      vertex 20.319 9.04659 0
      vertex 21.7558 4.62435 2
      vertex 21.7558 4.62435 0
    endloop
  endfacet
  facet normal 0.994521 0.104541 0
    outer loop
      vertex 22.2419 0 2
      vertex 21.7558 4.62435 0
      vertex 21.7558 4.62435 2
    endloop
  endfacet
  facet normal 0.994521 0.104541 0
    outer loop
      vertex 21.7558 4.62435 0
      vertex 22.2419 0 2
      vertex 22.2419 0 0
    endloop
  endfacet
  facet normal 0.994521 -0.104541 0
    outer loop
      vertex 21.7558 -4.62435 2
      vertex 22.2419 0 0
      vertex 22.2419 0 2
    endloop
  endfacet
  facet normal 0.994521 -0.104541 0
    outer loop
      vertex 22.2419 0 0
      vertex 21.7558 -4.62435 2
      vertex 21.7558 -4.62435 0
    endloop
  endfacet
  facet normal 0.406749 0.91354 -0
    outer loop
      vertex 11.1209 19.262 0
      vertex 6.87312 21.1533 2
      vertex 11.1209 19.262 2
    endloop
  endfacet
  facet normal 0.406749 0.91354 0
    outer loop
      vertex 6.87312 21.1533 2
      vertex 11.1209 19.262 0
      vertex 6.87312 21.1533 0
    endloop
  endfacet
  facet normal 0.406749 -0.91354 0
    outer loop
      vertex 6.87312 -21.1533 0
      vertex 11.1209 -19.262 2
      vertex 6.87312 -21.1533 2
    endloop
  endfacet
  facet normal 0.406749 -0.91354 0
    outer loop
      vertex 11.1209 -19.262 2
      vertex 6.87312 -21.1533 0
      vertex 11.1209 -19.262 0
    endloop
  endfacet
  facet normal -0.207901 -0.97815 0
    outer loop
      vertex -6.87312 -21.1533 0
      vertex -2.32491 -22.12 2
      vertex -6.87312 -21.1533 2
    endloop
  endfacet
  facet normal -0.207901 -0.97815 -0
    outer loop
      vertex -2.32491 -22.12 2
      vertex -6.87312 -21.1533 0
      vertex -2.32491 -22.12 0
    endloop
  endfacet
  facet normal -0.406749 -0.91354 0
    outer loop
      vertex -11.1209 -19.262 0
      vertex -6.87312 -21.1533 2
      vertex -11.1209 -19.262 2
    endloop
  endfacet
  facet normal -0.406749 -0.91354 -0
    outer loop
      vertex -6.87312 -21.1533 2
      vertex -11.1209 -19.262 0
      vertex -6.87312 -21.1533 0
    endloop
  endfacet
  facet normal -0.951061 -0.309003 0
    outer loop
      vertex -20.319 -9.04659 0
      vertex -21.7558 -4.62435 2
      vertex -21.7558 -4.62435 0
    endloop
  endfacet
  facet normal -0.951061 -0.309003 0
    outer loop
      vertex -21.7558 -4.62435 2
      vertex -20.319 -9.04659 0
      vertex -20.319 -9.04659 2
    endloop
  endfacet
  facet normal -0.743139 0.669137 0
    outer loop
      vertex -17.9941 13.0734 0
      vertex -14.8827 16.5289 2
      vertex -14.8827 16.5289 0
    endloop
  endfacet
  facet normal -0.743139 0.669137 0
    outer loop
      vertex -14.8827 16.5289 2
      vertex -17.9941 13.0734 0
      vertex -17.9941 13.0734 2
    endloop
  endfacet
  facet normal 0 1 -0
    outer loop
      vertex 2.32491 22.12 0
      vertex -2.32491 22.12 2
      vertex 2.32491 22.12 2
    endloop
  endfacet
  facet normal 0 1 0
    outer loop
      vertex -2.32491 22.12 2
      vertex 2.32491 22.12 0
      vertex -2.32491 22.12 0
    endloop
  endfacet
  facet normal -0.207901 0.97815 0
    outer loop
      vertex -2.32491 22.12 0
      vertex -6.87312 21.1533 2
      vertex -2.32491 22.12 2
    endloop
  endfacet
  facet normal -0.207901 0.97815 0
    outer loop
      vertex -6.87312 21.1533 2
      vertex -2.32491 22.12 0
      vertex -6.87312 21.1533 0
    endloop
  endfacet
  facet normal -0.951061 0.309003 0
    outer loop
      vertex -21.7558 4.62435 0
      vertex -20.319 9.04659 2
      vertex -20.319 9.04659 0
    endloop
  endfacet
  facet normal -0.951061 0.309003 0
    outer loop
      vertex -20.319 9.04659 2
      vertex -21.7558 4.62435 0
      vertex -21.7558 4.62435 2
    endloop
  endfacet
  facet normal 0 0 -1
    outer loop
      vertex -2.5 -1.5 0
      vertex -17.5419 0 0
      vertex -2.5 1.5 0
    endloop
  endfacet
  facet normal 0 -0 -1
    outer loop
      vertex -15.814 8.1487 0
      vertex -2.5 1.5 0
      vertex -17.5419 0 0
    endloop
  endfacet
  facet normal 0 0 -1
    outer loop
      vertex -18.3919 -1.47224 0
      vertex -15.814 -8.1487 0
      vertex -17.514 -8.1487 0
    endloop
  endfacet
  facet normal 0 0 -1
    outer loop
      vertex -2.5 1.5 0
      vertex -15.814 8.1487 0
      vertex -14.964 9.62094 0
    endloop
  endfacet
  facet normal 0 0 -1
    outer loop
      vertex -18.3919 1.47224 0
      vertex -15.814 8.1487 0
      vertex -17.5419 0 0
    endloop
  endfacet
  facet normal 0 0 -1
    outer loop
      vertex -20.319 -9.04659 0
      vertex -17.514 -8.1487 0
      vertex -18.364 -9.62094 0
    endloop
  endfacet
  facet normal 0 0 -1
    outer loop
      vertex -15.814 -8.1487 0
      vertex -18.3919 -1.47224 0
      vertex -17.5419 0 0
    endloop
  endfacet
  facet normal 0 0 -1
    outer loop
      vertex -15.814 11.0932 0
      vertex -10.4709 15.1917 0
      vertex -14.964 9.62094 0
    endloop
  endfacet
  facet normal -0 0 -1
    outer loop
      vertex -10.4709 15.1917 0
      vertex -15.814 11.0932 0
      vertex -14.8827 16.5289 0
    endloop
  endfacet
  facet normal 0 0 -1
    outer loop
      vertex -17.9941 13.0734 0
      vertex -15.814 11.0932 0
      vertex -17.514 11.0932 0
    endloop
  endfacet
  facet normal 0 0 -1
    outer loop
      vertex -15.814 11.0932 0
      vertex -17.9941 13.0734 0
      vertex -14.8827 16.5289 0
    endloop
  endfacet
  facet normal 0 0 -1
    outer loop
      vertex -18.364 9.62094 0
      vertex -17.9941 13.0734 0
      vertex -17.514 11.0932 0
    endloop
  endfacet
  facet normal 0 0 -1
    outer loop
      vertex -18.3919 1.47224 0
      vertex -21.7558 4.62435 0
      vertex -17.514 8.1487 0
    endloop
  endfacet
  facet normal 0 -0 -1
    outer loop
      vertex -20.319 9.04659 0
      vertex -17.514 8.1487 0
      vertex -21.7558 4.62435 0
    endloop
  endfacet
  facet normal -0 0 -1
    outer loop
      vertex -18.364 9.62094 0
      vertex -20.319 9.04659 0
      vertex -17.9941 13.0734 0
    endloop
  endfacet
  facet normal 0 0 -1
    outer loop
      vertex -22.2419 0 0
      vertex -20.0919 1.47224 0
      vertex -20.9419 0 0
    endloop
  endfacet
  facet normal 0 0 -1
    outer loop
      vertex -20.0919 -1.47224 0
      vertex -22.2419 0 0
      vertex -20.9419 0 0
    endloop
  endfacet
  facet normal 0 0 -1
    outer loop
      vertex -17.514 8.1487 0
      vertex -20.319 9.04659 0
      vertex -18.364 9.62094 0
    endloop
  endfacet
  facet normal -0 0 -1
    outer loop
      vertex -20.0919 1.47224 0
      vertex -22.2419 0 0
      vertex -21.7558 4.62435 0
    endloop
  endfacet
  facet normal -0 0 -1
    outer loop
      vertex -15.814 8.1487 0
      vertex -18.3919 1.47224 0
      vertex -17.514 8.1487 0
    endloop
  endfacet
  facet normal 0 0 -1
    outer loop
      vertex -21.7558 4.62435 0
      vertex -18.3919 1.47224 0
      vertex -20.0919 1.47224 0
    endloop
  endfacet
  facet normal 0 0 -1
    outer loop
      vertex -15.814 -8.1487 0
      vertex -2.5 -1.5 0
      vertex -14.964 -9.62094 0
    endloop
  endfacet
  facet normal 0 0 -1
    outer loop
      vertex -2.5 1.5 0
      vertex -8.77094 15.1917 0
      vertex -7.92094 16.664 0
    endloop
  endfacet
  facet normal 0 0 -1
    outer loop
      vertex -14.964 -9.62094 0
      vertex -8.77094 -15.1917 0
      vertex -10.4709 -15.1917 0
    endloop
  endfacet
  facet normal 0 0 -1
    outer loop
      vertex -17.5419 0 0
      vertex -2.5 -1.5 0
      vertex -15.814 -8.1487 0
    endloop
  endfacet
  facet normal 0 0 -1
    outer loop
      vertex -14.8827 -16.5289 0
      vertex -10.4709 -15.1917 0
      vertex -11.3209 -16.664 0
    endloop
  endfacet
  facet normal 0 0 -1
    outer loop
      vertex -14.964 9.62094 0
      vertex -8.77094 15.1917 0
      vertex -2.5 1.5 0
    endloop
  endfacet
  facet normal -0 0 -1
    outer loop
      vertex -1.7 19.2419 0
      vertex -7.92094 16.664 0
      vertex -6.87312 21.1533 0
    endloop
  endfacet
  facet normal 0 0 -1
    outer loop
      vertex -8.77094 18.1362 0
      vertex -6.87312 21.1533 0
      vertex -7.92094 16.664 0
    endloop
  endfacet
  facet normal 0 0 -1
    outer loop
      vertex -11.1209 19.262 0
      vertex -8.77094 18.1362 0
      vertex -10.4709 18.1362 0
    endloop
  endfacet
  facet normal 0 0 -1
    outer loop
      vertex -8.77094 18.1362 0
      vertex -11.1209 19.262 0
      vertex -6.87312 21.1533 0
    endloop
  endfacet
  facet normal 0 0 -1
    outer loop
      vertex -11.3209 16.664 0
      vertex -11.1209 19.262 0
      vertex -10.4709 18.1362 0
    endloop
  endfacet
  facet normal -0 0 -1
    outer loop
      vertex -8.77094 15.1917 0
      vertex -14.964 9.62094 0
      vertex -10.4709 15.1917 0
    endloop
  endfacet
  facet normal 0 0 -1
    outer loop
      vertex -10.4709 15.1917 0
      vertex -14.8827 16.5289 0
      vertex -11.3209 16.664 0
    endloop
  endfacet
  facet normal -0 0 -1
    outer loop
      vertex -11.3209 16.664 0
      vertex -14.8827 16.5289 0
      vertex -11.1209 19.262 0
    endloop
  endfacet
  facet normal 0 0 -1
    outer loop
      vertex -10.4709 -15.1917 0
      vertex -15.814 -11.0932 0
      vertex -14.964 -9.62094 0
    endloop
  endfacet
  facet normal 0 0 -1
    outer loop
      vertex -17.9941 -13.0734 0
      vertex -15.814 -11.0932 0
      vertex -14.8827 -16.5289 0
    endloop
  endfacet
  facet normal -0 0 -1
    outer loop
      vertex -15.814 -11.0932 0
      vertex -17.9941 -13.0734 0
      vertex -17.514 -11.0932 0
    endloop
  endfacet
  facet normal 0 0 -1
    outer loop
      vertex -17.9941 -13.0734 0
      vertex -18.364 -9.62094 0
      vertex -17.514 -11.0932 0
    endloop
  endfacet
  facet normal 0 0 -1
    outer loop
      vertex -17.514 -8.1487 0
      vertex -21.7558 -4.62435 0
      vertex -18.3919 -1.47224 0
    endloop
  endfacet
  facet normal 0 0 -1
    outer loop
      vertex -20.319 -9.04659 0
      vertex -18.364 -9.62094 0
      vertex -17.9941 -13.0734 0
    endloop
  endfacet
  facet normal -0 0 -1
    outer loop
      vertex -17.514 -8.1487 0
      vertex -20.319 -9.04659 0
      vertex -21.7558 -4.62435 0
    endloop
  endfacet
  facet normal -0 0 -1
    outer loop
      vertex -18.3919 -1.47224 0
      vertex -21.7558 -4.62435 0
      vertex -20.0919 -1.47224 0
    endloop
  endfacet
  facet normal 0 0 -1
    outer loop
      vertex -22.2419 0 0
      vertex -20.0919 -1.47224 0
      vertex -21.7558 -4.62435 0
    endloop
  endfacet
  facet normal 0 0 -1
    outer loop
      vertex 2.32491 -22.12 0
      vertex 0.849999 -20.7141 0
      vertex 1.7 -19.2419 0
    endloop
  endfacet
  facet normal 0 0 -1
    outer loop
      vertex 2.32491 -22.12 0
      vertex -0.849999 -20.7141 0
      vertex 0.849999 -20.7141 0
    endloop
  endfacet
  facet normal -0 0 -1
    outer loop
      vertex -0.849999 -20.7141 0
      vertex -2.32491 -22.12 0
      vertex -1.7 -19.2419 0
    endloop
  endfacet
  facet normal 0 0 -1
    outer loop
      vertex -2.32491 -22.12 0
      vertex -0.849999 -20.7141 0
      vertex 2.32491 -22.12 0
    endloop
  endfacet
  facet normal 0 0 -1
    outer loop
      vertex 8.77094 15.1917 0
      vertex 0.849999 17.7696 0
      vertex 7.92094 16.664 0
    endloop
  endfacet
  facet normal 0 -0 -1
    outer loop
      vertex 1.7 19.2419 0
      vertex 7.92094 16.664 0
      vertex 0.849999 17.7696 0
    endloop
  endfacet
  facet normal -0 0 -1
    outer loop
      vertex 6.87312 21.1533 0
      vertex 1.7 19.2419 0
      vertex 2.32491 22.12 0
    endloop
  endfacet
  facet normal 0 0 -1
    outer loop
      vertex 7.92094 16.664 0
      vertex 1.7 19.2419 0
      vertex 6.87312 21.1533 0
    endloop
  endfacet
  facet normal 0 0 -1
    outer loop
      vertex 2.5 1.5 0
      vertex -0.849999 17.7696 0
      vertex 0.849999 17.7696 0
    endloop
  endfacet
  facet normal 0 0 -1
    outer loop
      vertex -2.5 1.5 0
      vertex -0.849999 17.7696 0
      vertex 2.5 1.5 0
    endloop
  endfacet
  facet normal 0 0 -1
    outer loop
      vertex -7.92094 16.664 0
      vertex -0.849999 17.7696 0
      vertex -2.5 1.5 0
    endloop
  endfacet
  facet normal 0 0 -1
    outer loop
      vertex -7.92094 16.664 0
      vertex -1.7 19.2419 0
      vertex -0.849999 17.7696 0
    endloop
  endfacet
  facet normal 0 0 -1
    outer loop
      vertex -0.849999 -17.7696 0
      vertex -8.77094 -15.1917 0
      vertex -2.5 -1.5 0
    endloop
  endfacet
  facet normal 0 0 -1
    outer loop
      vertex -14.964 -9.62094 0
      vertex -2.5 -1.5 0
      vertex -8.77094 -15.1917 0
    endloop
  endfacet
  facet normal 0 0 -1
    outer loop
      vertex -1.7 19.2419 0
      vertex -6.87312 21.1533 0
      vertex -2.32491 22.12 0
    endloop
  endfacet
  facet normal 0 0 -1
    outer loop
      vertex -6.87312 -21.1533 0
      vertex -8.77094 -18.1362 0
      vertex -7.92094 -16.664 0
    endloop
  endfacet
  facet normal 0 0 -1
    outer loop
      vertex -11.1209 -19.262 0
      vertex -8.77094 -18.1362 0
      vertex -6.87312 -21.1533 0
    endloop
  endfacet
  facet normal -0 0 -1
    outer loop
      vertex -8.77094 -18.1362 0
      vertex -11.1209 -19.262 0
      vertex -10.4709 -18.1362 0
    endloop
  endfacet
  facet normal 0 0 -1
    outer loop
      vertex -11.1209 -19.262 0
      vertex -11.3209 -16.664 0
      vertex -10.4709 -18.1362 0
    endloop
  endfacet
  facet normal 0 0 -1
    outer loop
      vertex -15.814 -11.0932 0
      vertex -10.4709 -15.1917 0
      vertex -14.8827 -16.5289 0
    endloop
  endfacet
  facet normal 0 0 -1
    outer loop
      vertex -14.8827 -16.5289 0
      vertex -11.3209 -16.664 0
      vertex -11.1209 -19.262 0
    endloop
  endfacet
  facet normal 0 0 -1
    outer loop
      vertex 0.849999 20.7141 0
      vertex 2.32491 22.12 0
      vertex 1.7 19.2419 0
    endloop
  endfacet
  facet normal 0 0 -1
    outer loop
      vertex -0.849999 20.7141 0
      vertex 2.32491 22.12 0
      vertex 0.849999 20.7141 0
    endloop
  endfacet
  facet normal 0 0 -1
    outer loop
      vertex -0.849999 20.7141 0
      vertex -2.32491 22.12 0
      vertex 2.32491 22.12 0
    endloop
  endfacet
  facet normal 0 0 -1
    outer loop
      vertex -2.32491 22.12 0
      vertex -0.849999 20.7141 0
      vertex -1.7 19.2419 0
    endloop
  endfacet
  facet normal 0 0 -1
    outer loop
      vertex 17.5419 0 0
      vertex 2.5 1.5 0
      vertex 15.814 8.1487 0
    endloop
  endfacet
  facet normal 0 0 -1
    outer loop
      vertex 14.964 9.62094 0
      vertex 10.4709 15.1917 0
      vertex 11.3209 16.664 0
    endloop
  endfacet
  facet normal 0 0 -1
    outer loop
      vertex 2.5 -1.5 0
      vertex 10.4709 -15.1917 0
      vertex 8.77094 -15.1917 0
    endloop
  endfacet
  facet normal -0 0 -1
    outer loop
      vertex 15.814 8.1487 0
      vertex 2.5 1.5 0
      vertex 14.964 9.62094 0
    endloop
  endfacet
  facet normal 0 0 -1
    outer loop
      vertex 2.5 -1.5 0
      vertex 8.77094 -15.1917 0
      vertex 7.92094 -16.664 0
    endloop
  endfacet
  facet normal 0 0 -1
    outer loop
      vertex 14.964 9.62094 0
      vertex 8.77094 15.1917 0
      vertex 10.4709 15.1917 0
    endloop
  endfacet
  facet normal 0 0 -1
    outer loop
      vertex 15.814 11.0932 0
      vertex 11.3209 16.664 0
      vertex 14.8827 16.5289 0
    endloop
  endfacet
  facet normal 0 0 -1
    outer loop
      vertex 11.3209 16.664 0
      vertex 11.1209 19.262 0
      vertex 14.8827 16.5289 0
    endloop
  endfacet
  facet normal 0 0 -1
    outer loop
      vertex 10.4709 18.1362 0
      vertex 11.1209 19.262 0
      vertex 11.3209 16.664 0
    endloop
  endfacet
  facet normal 0 0 -1
    outer loop
      vertex 8.77094 18.1362 0
      vertex 11.1209 19.262 0
      vertex 10.4709 18.1362 0
    endloop
  endfacet
  facet normal 0 0 -1
    outer loop
      vertex 8.77094 18.1362 0
      vertex 6.87312 21.1533 0
      vertex 11.1209 19.262 0
    endloop
  endfacet
  facet normal 0 0 -1
    outer loop
      vertex 7.92094 16.664 0
      vertex 6.87312 21.1533 0
      vertex 8.77094 18.1362 0
    endloop
  endfacet
  facet normal -0 0 -1
    outer loop
      vertex 14.964 9.62094 0
      vertex 2.5 1.5 0
      vertex 8.77094 15.1917 0
    endloop
  endfacet
  facet normal 0 0 -1
    outer loop
      vertex 0.849999 17.7696 0
      vertex 8.77094 15.1917 0
      vertex 2.5 1.5 0
    endloop
  endfacet
  facet normal 0 0 -1
    outer loop
      vertex 1.7 -19.2419 0
      vertex 6.87312 -21.1533 0
      vertex 2.32491 -22.12 0
    endloop
  endfacet
  facet normal 0 0 -1
    outer loop
      vertex 0.849999 -17.7696 0
      vertex 6.87312 -21.1533 0
      vertex 1.7 -19.2419 0
    endloop
  endfacet
  facet normal 0 0 -1
    outer loop
      vertex 6.87312 -21.1533 0
      vertex 0.849999 -17.7696 0
      vertex 2.5 -1.5 0
    endloop
  endfacet
  facet normal 0 0 -1
    outer loop
      vertex -0.849999 -17.7696 0
      vertex 2.5 -1.5 0
      vertex 0.849999 -17.7696 0
    endloop
  endfacet
  facet normal 0 0 -1
    outer loop
      vertex -7.92094 -16.664 0
      vertex -1.7 -19.2419 0
      vertex -6.87312 -21.1533 0
    endloop
  endfacet
  facet normal 0 0 -1
    outer loop
      vertex -0.849999 -17.7696 0
      vertex -2.5 -1.5 0
      vertex 2.5 -1.5 0
    endloop
  endfacet
  facet normal 0 0 -1
    outer loop
      vertex -6.87312 -21.1533 0
      vertex -1.7 -19.2419 0
      vertex -2.32491 -22.12 0
    endloop
  endfacet
  facet normal 0 0 -1
    outer loop
      vertex -8.77094 -15.1917 0
      vertex -0.849999 -17.7696 0
      vertex -7.92094 -16.664 0
    endloop
  endfacet
  facet normal 0 0 -1
    outer loop
      vertex -1.7 -19.2419 0
      vertex -7.92094 -16.664 0
      vertex -0.849999 -17.7696 0
    endloop
  endfacet
  facet normal 0 0 -1
    outer loop
      vertex 15.814 8.1487 0
      vertex 18.3919 1.47224 0
      vertex 17.5419 0 0
    endloop
  endfacet
  facet normal 0 0 -1
    outer loop
      vertex 18.3919 1.47224 0
      vertex 17.514 8.1487 0
      vertex 18.364 9.62094 0
    endloop
  endfacet
  facet normal -0 0 -1
    outer loop
      vertex 18.3919 -1.47224 0
      vertex 15.814 -8.1487 0
      vertex 17.5419 0 0
    endloop
  endfacet
  facet normal 0 0 -1
    outer loop
      vertex 2.5 -1.5 0
      vertex 15.814 -8.1487 0
      vertex 14.964 -9.62094 0
    endloop
  endfacet
  facet normal 0 0 -1
    outer loop
      vertex 18.3919 1.47224 0
      vertex 15.814 8.1487 0
      vertex 17.514 8.1487 0
    endloop
  endfacet
  facet normal 0 0 -1
    outer loop
      vertex 15.814 -8.1487 0
      vertex 2.5 -1.5 0
      vertex 17.5419 0 0
    endloop
  endfacet
  facet normal 0 0 -1
    outer loop
      vertex 2.5 1.5 0
      vertex 17.5419 0 0
      vertex 2.5 -1.5 0
    endloop
  endfacet
  facet normal 0 0 -1
    outer loop
      vertex 20.0919 -1.47224 0
      vertex 22.2419 0 0
      vertex 21.7558 -4.62435 0
    endloop
  endfacet
  facet normal 0 0 -1
    outer loop
      vertex 20.0919 1.47224 0
      vertex 22.2419 0 0
      vertex 20.9419 0 0
    endloop
  endfacet
  facet normal 0 0 -1
    outer loop
      vertex 17.514 -8.1487 0
      vertex 21.7558 -4.62435 0
      vertex 20.319 -9.04659 0
    endloop
  endfacet
  facet normal -0 0 -1
    outer loop
      vertex 22.2419 0 0
      vertex 20.0919 -1.47224 0
      vertex 20.9419 0 0
    endloop
  endfacet
  facet normal 0 -0 -1
    outer loop
      vertex 18.3919 -1.47224 0
      vertex 21.7558 -4.62435 0
      vertex 17.514 -8.1487 0
    endloop
  endfacet
  facet normal 0 0 -1
    outer loop
      vertex 17.514 -8.1487 0
      vertex 20.319 -9.04659 0
      vertex 18.364 -9.62094 0
    endloop
  endfacet
  facet normal 0 0 -1
    outer loop
      vertex 17.9941 -13.0734 0
      vertex 18.364 -9.62094 0
      vertex 20.319 -9.04659 0
    endloop
  endfacet
  facet normal 0 0 -1
    outer loop
      vertex 17.9941 -13.0734 0
      vertex 17.514 -11.0932 0
      vertex 18.364 -9.62094 0
    endloop
  endfacet
  facet normal 0 0 -1
    outer loop
      vertex 17.9941 -13.0734 0
      vertex 15.814 -11.0932 0
      vertex 17.514 -11.0932 0
    endloop
  endfacet
  facet normal 0 0 -1
    outer loop
      vertex 14.8827 -16.5289 0
      vertex 10.4709 -15.1917 0
      vertex 15.814 -11.0932 0
    endloop
  endfacet
  facet normal 0 0 -1
    outer loop
      vertex 10.4709 -15.1917 0
      vertex 14.8827 -16.5289 0
      vertex 11.3209 -16.664 0
    endloop
  endfacet
  facet normal 0 0 -1
    outer loop
      vertex 14.8827 -16.5289 0
      vertex 15.814 -11.0932 0
      vertex 17.9941 -13.0734 0
    endloop
  endfacet
  facet normal 0 0 -1
    outer loop
      vertex 22.2419 0 0
      vertex 20.0919 1.47224 0
      vertex 21.7558 4.62435 0
    endloop
  endfacet
  facet normal 0 0 -1
    outer loop
      vertex 18.3919 1.47224 0
      vertex 21.7558 4.62435 0
      vertex 20.0919 1.47224 0
    endloop
  endfacet
  facet normal 0 0 -1
    outer loop
      vertex 18.364 9.62094 0
      vertex 21.7558 4.62435 0
      vertex 18.3919 1.47224 0
    endloop
  endfacet
  facet normal 0 0 -1
    outer loop
      vertex 21.7558 4.62435 0
      vertex 18.364 9.62094 0
      vertex 20.319 9.04659 0
    endloop
  endfacet
  facet normal 0 0 -1
    outer loop
      vertex 18.364 9.62094 0
      vertex 17.9941 13.0734 0
      vertex 20.319 9.04659 0
    endloop
  endfacet
  facet normal 0 0 -1
    outer loop
      vertex 17.514 11.0932 0
      vertex 17.9941 13.0734 0
      vertex 18.364 9.62094 0
    endloop
  endfacet
  facet normal 0 0 -1
    outer loop
      vertex 15.814 11.0932 0
      vertex 17.9941 13.0734 0
      vertex 17.514 11.0932 0
    endloop
  endfacet
  facet normal 0 0 -1
    outer loop
      vertex 15.814 11.0932 0
      vertex 14.8827 16.5289 0
      vertex 17.9941 13.0734 0
    endloop
  endfacet
  facet normal 0 0 -1
    outer loop
      vertex 11.3209 16.664 0
      vertex 15.814 11.0932 0
      vertex 14.964 9.62094 0
    endloop
  endfacet
  facet normal -0 0 -1
    outer loop
      vertex 15.814 -11.0932 0
      vertex 10.4709 -15.1917 0
      vertex 14.964 -9.62094 0
    endloop
  endfacet
  facet normal 0 0 -1
    outer loop
      vertex 2.5 -1.5 0
      vertex 14.964 -9.62094 0
      vertex 10.4709 -15.1917 0
    endloop
  endfacet
  facet normal 0 0 -1
    outer loop
      vertex 11.1209 -19.262 0
      vertex 11.3209 -16.664 0
      vertex 14.8827 -16.5289 0
    endloop
  endfacet
  facet normal 0 0 -1
    outer loop
      vertex 11.1209 -19.262 0
      vertex 10.4709 -18.1362 0
      vertex 11.3209 -16.664 0
    endloop
  endfacet
  facet normal 0 0 -1
    outer loop
      vertex 11.1209 -19.262 0
      vertex 8.77094 -18.1362 0
      vertex 10.4709 -18.1362 0
    endloop
  endfacet
  facet normal 0 0 -1
    outer loop
      vertex 2.5 -1.5 0
      vertex 7.92094 -16.664 0
      vertex 6.87312 -21.1533 0
    endloop
  endfacet
  facet normal -0 0 -1
    outer loop
      vertex 8.77094 -18.1362 0
      vertex 6.87312 -21.1533 0
      vertex 7.92094 -16.664 0
    endloop
  endfacet
  facet normal 0 0 -1
    outer loop
      vertex 6.87312 -21.1533 0
      vertex 8.77094 -18.1362 0
      vertex 11.1209 -19.262 0
    endloop
  endfacet
  facet normal 0 0 -1
    outer loop
      vertex 21.7558 -4.62435 0
      vertex 18.3919 -1.47224 0
      vertex 20.0919 -1.47224 0
    endloop
  endfacet
  facet normal 0 0 -1
    outer loop
      vertex 15.814 -8.1487 0
      vertex 18.3919 -1.47224 0
      vertex 17.514 -8.1487 0
    endloop
  endfacet
  facet normal 0.587784 -0.809018 0
    outer loop
      vertex 11.1209 -19.262 0
      vertex 14.8827 -16.5289 2
      vertex 11.1209 -19.262 2
    endloop
  endfacet
  facet normal 0.587784 -0.809018 0
    outer loop
      vertex 14.8827 -16.5289 2
      vertex 11.1209 -19.262 0
      vertex 14.8827 -16.5289 0
    endloop
  endfacet
  facet normal -0.743139 -0.669137 0
    outer loop
      vertex -14.8827 -16.5289 0
      vertex -17.9941 -13.0734 2
      vertex -17.9941 -13.0734 0
    endloop
  endfacet
  facet normal -0.743139 -0.669137 0
    outer loop
      vertex -17.9941 -13.0734 2
      vertex -14.8827 -16.5289 0
      vertex -14.8827 -16.5289 2
    endloop
  endfacet
  facet normal -0.406749 0.91354 0
    outer loop
      vertex -6.87312 21.1533 0
      vertex -11.1209 19.262 2
      vertex -6.87312 21.1533 2
    endloop
  endfacet
  facet normal -0.406749 0.91354 0
    outer loop
      vertex -11.1209 19.262 2
      vertex -6.87312 21.1533 0
      vertex -11.1209 19.262 0
    endloop
  endfacet
  facet normal 0 0 1
    outer loop
      vertex -2.5 1.5 2
      vertex -17.5419 0 2
      vertex -2.5 -1.5 2
    endloop
  endfacet
  facet normal 0 -0 1
    outer loop
      vertex -15.814 -8.1487 2
      vertex -2.5 -1.5 2
      vertex -17.5419 0 2
    endloop
  endfacet
  facet normal 0 0 1
    outer loop
      vertex -18.3919 1.47224 2
      vertex -15.814 8.1487 2
      vertex -17.514 8.1487 2
    endloop
  endfacet
  facet normal 0 0 1
    outer loop
      vertex -2.5 -1.5 2
      vertex -15.814 -8.1487 2
      vertex -14.964 -9.62094 2
    endloop
  endfacet
  facet normal -0 0 1
    outer loop
      vertex -18.3919 -1.47224 2
      vertex -15.814 -8.1487 2
      vertex -17.5419 0 2
    endloop
  endfacet
  facet normal -0 0 1
    outer loop
      vertex -20.319 9.04659 2
      vertex -17.514 8.1487 2
      vertex -18.364 9.62094 2
    endloop
  endfacet
  facet normal 0 0 1
    outer loop
      vertex -15.814 8.1487 2
      vertex -18.3919 1.47224 2
      vertex -17.5419 0 2
    endloop
  endfacet
  facet normal -0 0 1
    outer loop
      vertex -15.814 -11.0932 2
      vertex -10.4709 -15.1917 2
      vertex -14.964 -9.62094 2
    endloop
  endfacet
  facet normal 0 0 1
    outer loop
      vertex -10.4709 -15.1917 2
      vertex -15.814 -11.0932 2
      vertex -14.8827 -16.5289 2
    endloop
  endfacet
  facet normal 0 0 1
    outer loop
      vertex -17.9941 -13.0734 2
      vertex -15.814 -11.0932 2
      vertex -17.514 -11.0932 2
    endloop
  endfacet
  facet normal 0 0 1
    outer loop
      vertex -15.814 -11.0932 2
      vertex -17.9941 -13.0734 2
      vertex -14.8827 -16.5289 2
    endloop
  endfacet
  facet normal 0 0 1
    outer loop
      vertex -18.364 -9.62094 2
      vertex -17.9941 -13.0734 2
      vertex -17.514 -11.0932 2
    endloop
  endfacet
  facet normal 0 0 1
    outer loop
      vertex -18.3919 -1.47224 2
      vertex -21.7558 -4.62435 2
      vertex -17.514 -8.1487 2
    endloop
  endfacet
  facet normal 0 -0 1
    outer loop
      vertex -20.319 -9.04659 2
      vertex -17.514 -8.1487 2
      vertex -21.7558 -4.62435 2
    endloop
  endfacet
  facet normal 0 0 1
    outer loop
      vertex -18.364 -9.62094 2
      vertex -20.319 -9.04659 2
      vertex -17.9941 -13.0734 2
    endloop
  endfacet
  facet normal -0 0 1
    outer loop
      vertex -22.2419 0 2
      vertex -20.0919 -1.47224 2
      vertex -20.9419 0 2
    endloop
  endfacet
  facet normal 0 0 1
    outer loop
      vertex -20.0919 1.47224 2
      vertex -22.2419 0 2
      vertex -20.9419 0 2
    endloop
  endfacet
  facet normal 0 0 1
    outer loop
      vertex -17.514 -8.1487 2
      vertex -20.319 -9.04659 2
      vertex -18.364 -9.62094 2
    endloop
  endfacet
  facet normal 0 0 1
    outer loop
      vertex -20.0919 -1.47224 2
      vertex -22.2419 0 2
      vertex -21.7558 -4.62435 2
    endloop
  endfacet
  facet normal 0 0 1
    outer loop
      vertex -15.814 -8.1487 2
      vertex -18.3919 -1.47224 2
      vertex -17.514 -8.1487 2
    endloop
  endfacet
  facet normal 0 0 1
    outer loop
      vertex -21.7558 -4.62435 2
      vertex -18.3919 -1.47224 2
      vertex -20.0919 -1.47224 2
    endloop
  endfacet
  facet normal -0 0 1
    outer loop
      vertex -15.814 8.1487 2
      vertex -2.5 1.5 2
      vertex -14.964 9.62094 2
    endloop
  endfacet
  facet normal 0 0 1
    outer loop
      vertex -2.5 -1.5 2
      vertex -8.77094 -15.1917 2
      vertex -7.92094 -16.664 2
    endloop
  endfacet
  facet normal 0 0 1
    outer loop
      vertex -14.964 9.62094 2
      vertex -8.77094 15.1917 2
      vertex -10.4709 15.1917 2
    endloop
  endfacet
  facet normal 0 0 1
    outer loop
      vertex -17.5419 0 2
      vertex -2.5 1.5 2
      vertex -15.814 8.1487 2
    endloop
  endfacet
  facet normal -0 0 1
    outer loop
      vertex -14.8827 16.5289 2
      vertex -10.4709 15.1917 2
      vertex -11.3209 16.664 2
    endloop
  endfacet
  facet normal -0 0 1
    outer loop
      vertex -14.964 -9.62094 2
      vertex -8.77094 -15.1917 2
      vertex -2.5 -1.5 2
    endloop
  endfacet
  facet normal 0 0 1
    outer loop
      vertex -1.7 -19.2419 2
      vertex -7.92094 -16.664 2
      vertex -6.87312 -21.1533 2
    endloop
  endfacet
  facet normal -0 0 1
    outer loop
      vertex -8.77094 -18.1362 2
      vertex -6.87312 -21.1533 2
      vertex -7.92094 -16.664 2
    endloop
  endfacet
  facet normal 0 0 1
    outer loop
      vertex -11.1209 -19.262 2
      vertex -8.77094 -18.1362 2
      vertex -10.4709 -18.1362 2
    endloop
  endfacet
  facet normal 0 0 1
    outer loop
      vertex -8.77094 -18.1362 2
      vertex -11.1209 -19.262 2
      vertex -6.87312 -21.1533 2
    endloop
  endfacet
  facet normal 0 0 1
    outer loop
      vertex -11.3209 -16.664 2
      vertex -11.1209 -19.262 2
      vertex -10.4709 -18.1362 2
    endloop
  endfacet
  facet normal 0 0 1
    outer loop
      vertex -8.77094 -15.1917 2
      vertex -14.964 -9.62094 2
      vertex -10.4709 -15.1917 2
    endloop
  endfacet
  facet normal 0 0 1
    outer loop
      vertex -10.4709 -15.1917 2
      vertex -14.8827 -16.5289 2
      vertex -11.3209 -16.664 2
    endloop
  endfacet
  facet normal 0 0 1
    outer loop
      vertex -11.3209 -16.664 2
      vertex -14.8827 -16.5289 2
      vertex -11.1209 -19.262 2
    endloop
  endfacet
  facet normal 0 0 1
    outer loop
      vertex -10.4709 15.1917 2
      vertex -15.814 11.0932 2
      vertex -14.964 9.62094 2
    endloop
  endfacet
  facet normal -0 0 1
    outer loop
      vertex -17.9941 13.0734 2
      vertex -15.814 11.0932 2
      vertex -14.8827 16.5289 2
    endloop
  endfacet
  facet normal 0 0 1
    outer loop
      vertex -15.814 11.0932 2
      vertex -17.9941 13.0734 2
      vertex -17.514 11.0932 2
    endloop
  endfacet
  facet normal 0 0 1
    outer loop
      vertex -17.9941 13.0734 2
      vertex -18.364 9.62094 2
      vertex -17.514 11.0932 2
    endloop
  endfacet
  facet normal 0 0 1
    outer loop
      vertex -17.514 8.1487 2
      vertex -21.7558 4.62435 2
      vertex -18.3919 1.47224 2
    endloop
  endfacet
  facet normal 0 0 1
    outer loop
      vertex -20.319 9.04659 2
      vertex -18.364 9.62094 2
      vertex -17.9941 13.0734 2
    endloop
  endfacet
  facet normal 0 0 1
    outer loop
      vertex -17.514 8.1487 2
      vertex -20.319 9.04659 2
      vertex -21.7558 4.62435 2
    endloop
  endfacet
  facet normal 0 0 1
    outer loop
      vertex -18.3919 1.47224 2
      vertex -21.7558 4.62435 2
      vertex -20.0919 1.47224 2
    endloop
  endfacet
  facet normal 0 0 1
    outer loop
      vertex -22.2419 0 2
      vertex -20.0919 1.47224 2
      vertex -21.7558 4.62435 2
    endloop
  endfacet
  facet normal 0 0 1
    outer loop
      vertex 2.32491 22.12 2
      vertex 0.849999 20.7141 2
      vertex 1.7 19.2419 2
    endloop
  endfacet
  facet normal 0 0 1
    outer loop
      vertex 2.32491 22.12 2
      vertex -0.849999 20.7141 2
      vertex 0.849999 20.7141 2
    endloop
  endfacet
  facet normal 0 0 1
    outer loop
      vertex -0.849999 20.7141 2
      vertex -2.32491 22.12 2
      vertex -1.7 19.2419 2
    endloop
  endfacet
  facet normal -0 0 1
    outer loop
      vertex -2.32491 22.12 2
      vertex -0.849999 20.7141 2
      vertex 2.32491 22.12 2
    endloop
  endfacet
  facet normal 0 0 1
    outer loop
      vertex 8.77094 -15.1917 2
      vertex 0.849999 -17.7696 2
      vertex 7.92094 -16.664 2
    endloop
  endfacet
  facet normal 0 -0 1
    outer loop
      vertex 1.7 -19.2419 2
      vertex 7.92094 -16.664 2
      vertex 0.849999 -17.7696 2
    endloop
  endfacet
  facet normal 0 0 1
    outer loop
      vertex 6.87312 -21.1533 2
      vertex 1.7 -19.2419 2
      vertex 2.32491 -22.12 2
    endloop
  endfacet
  facet normal 0 0 1
    outer loop
      vertex 7.92094 -16.664 2
      vertex 1.7 -19.2419 2
      vertex 6.87312 -21.1533 2
    endloop
  endfacet
  facet normal 0 0 1
    outer loop
      vertex 2.5 -1.5 2
      vertex -0.849999 -17.7696 2
      vertex 0.849999 -17.7696 2
    endloop
  endfacet
  facet normal -0 0 1
    outer loop
      vertex -2.5 -1.5 2
      vertex -0.849999 -17.7696 2
      vertex 2.5 -1.5 2
    endloop
  endfacet
  facet normal -0 0 1
    outer loop
      vertex -7.92094 -16.664 2
      vertex -0.849999 -17.7696 2
      vertex -2.5 -1.5 2
    endloop
  endfacet
  facet normal 0 0 1
    outer loop
      vertex -7.92094 -16.664 2
      vertex -1.7 -19.2419 2
      vertex -0.849999 -17.7696 2
    endloop
  endfacet
  facet normal 0 0 1
    outer loop
      vertex -0.849999 17.7696 2
      vertex -8.77094 15.1917 2
      vertex -2.5 1.5 2
    endloop
  endfacet
  facet normal -0 0 1
    outer loop
      vertex -14.964 9.62094 2
      vertex -2.5 1.5 2
      vertex -8.77094 15.1917 2
    endloop
  endfacet
  facet normal 0 0 1
    outer loop
      vertex -1.7 -19.2419 2
      vertex -6.87312 -21.1533 2
      vertex -2.32491 -22.12 2
    endloop
  endfacet
  facet normal 0 0 1
    outer loop
      vertex -6.87312 21.1533 2
      vertex -8.77094 18.1362 2
      vertex -7.92094 16.664 2
    endloop
  endfacet
  facet normal -0 0 1
    outer loop
      vertex -11.1209 19.262 2
      vertex -8.77094 18.1362 2
      vertex -6.87312 21.1533 2
    endloop
  endfacet
  facet normal 0 0 1
    outer loop
      vertex -8.77094 18.1362 2
      vertex -11.1209 19.262 2
      vertex -10.4709 18.1362 2
    endloop
  endfacet
  facet normal 0 0 1
    outer loop
      vertex -11.1209 19.262 2
      vertex -11.3209 16.664 2
      vertex -10.4709 18.1362 2
    endloop
  endfacet
  facet normal 0 0 1
    outer loop
      vertex -15.814 11.0932 2
      vertex -10.4709 15.1917 2
      vertex -14.8827 16.5289 2
    endloop
  endfacet
  facet normal 0 0 1
    outer loop
      vertex -14.8827 16.5289 2
      vertex -11.3209 16.664 2
      vertex -11.1209 19.262 2
    endloop
  endfacet
  facet normal -0 0 1
    outer loop
      vertex 0.849999 -20.7141 2
      vertex 2.32491 -22.12 2
      vertex 1.7 -19.2419 2
    endloop
  endfacet
  facet normal -0 0 1
    outer loop
      vertex -0.849999 -20.7141 2
      vertex 2.32491 -22.12 2
      vertex 0.849999 -20.7141 2
    endloop
  endfacet
  facet normal 0 0 1
    outer loop
      vertex -0.849999 -20.7141 2
      vertex -2.32491 -22.12 2
      vertex 2.32491 -22.12 2
    endloop
  endfacet
  facet normal 0 0 1
    outer loop
      vertex -2.32491 -22.12 2
      vertex -0.849999 -20.7141 2
      vertex -1.7 -19.2419 2
    endloop
  endfacet
  facet normal 0 0 1
    outer loop
      vertex 17.5419 0 2
      vertex 2.5 -1.5 2
      vertex 15.814 -8.1487 2
    endloop
  endfacet
  facet normal 0 0 1
    outer loop
      vertex 14.964 -9.62094 2
      vertex 10.4709 -15.1917 2
      vertex 11.3209 -16.664 2
    endloop
  endfacet
  facet normal 0 0 1
    outer loop
      vertex 2.5 1.5 2
      vertex 10.4709 15.1917 2
      vertex 8.77094 15.1917 2
    endloop
  endfacet
  facet normal 0 0 1
    outer loop
      vertex 15.814 -8.1487 2
      vertex 2.5 -1.5 2
      vertex 14.964 -9.62094 2
    endloop
  endfacet
  facet normal 0 0 1
    outer loop
      vertex 2.5 1.5 2
      vertex 8.77094 15.1917 2
      vertex 7.92094 16.664 2
    endloop
  endfacet
  facet normal 0 0 1
    outer loop
      vertex 14.964 -9.62094 2
      vertex 8.77094 -15.1917 2
      vertex 10.4709 -15.1917 2
    endloop
  endfacet
  facet normal 0 0 1
    outer loop
      vertex 15.814 -11.0932 2
      vertex 11.3209 -16.664 2
      vertex 14.8827 -16.5289 2
    endloop
  endfacet
  facet normal -0 0 1
    outer loop
      vertex 11.3209 -16.664 2
      vertex 11.1209 -19.262 2
      vertex 14.8827 -16.5289 2
    endloop
  endfacet
  facet normal -0 0 1
    outer loop
      vertex 10.4709 -18.1362 2
      vertex 11.1209 -19.262 2
      vertex 11.3209 -16.664 2
    endloop
  endfacet
  facet normal -0 0 1
    outer loop
      vertex 8.77094 -18.1362 2
      vertex 11.1209 -19.262 2
      vertex 10.4709 -18.1362 2
    endloop
  endfacet
  facet normal 0 0 1
    outer loop
      vertex 8.77094 -18.1362 2
      vertex 6.87312 -21.1533 2
      vertex 11.1209 -19.262 2
    endloop
  endfacet
  facet normal 0 0 1
    outer loop
      vertex 7.92094 -16.664 2
      vertex 6.87312 -21.1533 2
      vertex 8.77094 -18.1362 2
    endloop
  endfacet
  facet normal 0 0 1
    outer loop
      vertex 14.964 -9.62094 2
      vertex 2.5 -1.5 2
      vertex 8.77094 -15.1917 2
    endloop
  endfacet
  facet normal 0 0 1
    outer loop
      vertex 0.849999 -17.7696 2
      vertex 8.77094 -15.1917 2
      vertex 2.5 -1.5 2
    endloop
  endfacet
  facet normal 0 0 1
    outer loop
      vertex 1.7 19.2419 2
      vertex 6.87312 21.1533 2
      vertex 2.32491 22.12 2
    endloop
  endfacet
  facet normal 0 0 1
    outer loop
      vertex 0.849999 17.7696 2
      vertex 6.87312 21.1533 2
      vertex 1.7 19.2419 2
    endloop
  endfacet
  facet normal 0 0 1
    outer loop
      vertex 6.87312 21.1533 2
      vertex 0.849999 17.7696 2
      vertex 2.5 1.5 2
    endloop
  endfacet
  facet normal -0 0 1
    outer loop
      vertex -0.849999 17.7696 2
      vertex 2.5 1.5 2
      vertex 0.849999 17.7696 2
    endloop
  endfacet
  facet normal 0 0 1
    outer loop
      vertex -7.92094 16.664 2
      vertex -1.7 19.2419 2
      vertex -6.87312 21.1533 2
    endloop
  endfacet
  facet normal 0 0 1
    outer loop
      vertex -0.849999 17.7696 2
      vertex -2.5 1.5 2
      vertex 2.5 1.5 2
    endloop
  endfacet
  facet normal -0 0 1
    outer loop
      vertex -6.87312 21.1533 2
      vertex -1.7 19.2419 2
      vertex -2.32491 22.12 2
    endloop
  endfacet
  facet normal 0 0 1
    outer loop
      vertex -8.77094 15.1917 2
      vertex -0.849999 17.7696 2
      vertex -7.92094 16.664 2
    endloop
  endfacet
  facet normal 0 0 1
    outer loop
      vertex -1.7 19.2419 2
      vertex -7.92094 16.664 2
      vertex -0.849999 17.7696 2
    endloop
  endfacet
  facet normal 0 0 1
    outer loop
      vertex 15.814 -8.1487 2
      vertex 18.3919 -1.47224 2
      vertex 17.5419 0 2
    endloop
  endfacet
  facet normal 0 0 1
    outer loop
      vertex 18.3919 -1.47224 2
      vertex 17.514 -8.1487 2
      vertex 18.364 -9.62094 2
    endloop
  endfacet
  facet normal 0 0 1
    outer loop
      vertex 18.3919 1.47224 2
      vertex 15.814 8.1487 2
      vertex 17.5419 0 2
    endloop
  endfacet
  facet normal 0 0 1
    outer loop
      vertex 2.5 1.5 2
      vertex 15.814 8.1487 2
      vertex 14.964 9.62094 2
    endloop
  endfacet
  facet normal 0 0 1
    outer loop
      vertex 18.3919 -1.47224 2
      vertex 15.814 -8.1487 2
      vertex 17.514 -8.1487 2
    endloop
  endfacet
  facet normal 0 0 1
    outer loop
      vertex 15.814 8.1487 2
      vertex 2.5 1.5 2
      vertex 17.5419 0 2
    endloop
  endfacet
  facet normal 0 0 1
    outer loop
      vertex 2.5 -1.5 2
      vertex 17.5419 0 2
      vertex 2.5 1.5 2
    endloop
  endfacet
  facet normal -0 0 1
    outer loop
      vertex 20.0919 1.47224 2
      vertex 22.2419 0 2
      vertex 21.7558 4.62435 2
    endloop
  endfacet
  facet normal 0 0 1
    outer loop
      vertex 20.0919 -1.47224 2
      vertex 22.2419 0 2
      vertex 20.9419 0 2
    endloop
  endfacet
  facet normal -0 0 1
    outer loop
      vertex 17.514 8.1487 2
      vertex 21.7558 4.62435 2
      vertex 20.319 9.04659 2
    endloop
  endfacet
  facet normal 0 0 1
    outer loop
      vertex 22.2419 0 2
      vertex 20.0919 1.47224 2
      vertex 20.9419 0 2
    endloop
  endfacet
  facet normal 0 -0 1
    outer loop
      vertex 18.3919 1.47224 2
      vertex 21.7558 4.62435 2
      vertex 17.514 8.1487 2
    endloop
  endfacet
  facet normal 0 0 1
    outer loop
      vertex 17.514 8.1487 2
      vertex 20.319 9.04659 2
      vertex 18.364 9.62094 2
    endloop
  endfacet
  facet normal 0 0 1
    outer loop
      vertex 17.9941 13.0734 2
      vertex 18.364 9.62094 2
      vertex 20.319 9.04659 2
    endloop
  endfacet
  facet normal 0 0 1
    outer loop
      vertex 17.9941 13.0734 2
      vertex 17.514 11.0932 2
      vertex 18.364 9.62094 2
    endloop
  endfacet
  facet normal 0 0 1
    outer loop
      vertex 17.9941 13.0734 2
      vertex 15.814 11.0932 2
      vertex 17.514 11.0932 2
    endloop
  endfacet
  facet normal 0 0 1
    outer loop
      vertex 14.8827 16.5289 2
      vertex 10.4709 15.1917 2
      vertex 15.814 11.0932 2
    endloop
  endfacet
  facet normal 0 0 1
    outer loop
      vertex 10.4709 15.1917 2
      vertex 14.8827 16.5289 2
      vertex 11.3209 16.664 2
    endloop
  endfacet
  facet normal 0 0 1
    outer loop
      vertex 14.8827 16.5289 2
      vertex 15.814 11.0932 2
      vertex 17.9941 13.0734 2
    endloop
  endfacet
  facet normal 0 0 1
    outer loop
      vertex 22.2419 0 2
      vertex 20.0919 -1.47224 2
      vertex 21.7558 -4.62435 2
    endloop
  endfacet
  facet normal -0 0 1
    outer loop
      vertex 18.3919 -1.47224 2
      vertex 21.7558 -4.62435 2
      vertex 20.0919 -1.47224 2
    endloop
  endfacet
  facet normal 0 0 1
    outer loop
      vertex 18.364 -9.62094 2
      vertex 21.7558 -4.62435 2
      vertex 18.3919 -1.47224 2
    endloop
  endfacet
  facet normal 0 0 1
    outer loop
      vertex 21.7558 -4.62435 2
      vertex 18.364 -9.62094 2
      vertex 20.319 -9.04659 2
    endloop
  endfacet
  facet normal -0 0 1
    outer loop
      vertex 18.364 -9.62094 2
      vertex 17.9941 -13.0734 2
      vertex 20.319 -9.04659 2
    endloop
  endfacet
  facet normal -0 0 1
    outer loop
      vertex 17.514 -11.0932 2
      vertex 17.9941 -13.0734 2
      vertex 18.364 -9.62094 2
    endloop
  endfacet
  facet normal -0 0 1
    outer loop
      vertex 15.814 -11.0932 2
      vertex 17.9941 -13.0734 2
      vertex 17.514 -11.0932 2
    endloop
  endfacet
  facet normal 0 0 1
    outer loop
      vertex 15.814 -11.0932 2
      vertex 14.8827 -16.5289 2
      vertex 17.9941 -13.0734 2
    endloop
  endfacet
  facet normal 0 0 1
    outer loop
      vertex 11.3209 -16.664 2
      vertex 15.814 -11.0932 2
      vertex 14.964 -9.62094 2
    endloop
  endfacet
  facet normal 0 0 1
    outer loop
      vertex 15.814 11.0932 2
      vertex 10.4709 15.1917 2
      vertex 14.964 9.62094 2
    endloop
  endfacet
  facet normal 0 0 1
    outer loop
      vertex 2.5 1.5 2
      vertex 14.964 9.62094 2
      vertex 10.4709 15.1917 2
    endloop
  endfacet
  facet normal 0 0 1
    outer loop
      vertex 11.1209 19.262 2
      vertex 11.3209 16.664 2
      vertex 14.8827 16.5289 2
    endloop
  endfacet
  facet normal 0 0 1
    outer loop
      vertex 11.1209 19.262 2
      vertex 10.4709 18.1362 2
      vertex 11.3209 16.664 2
    endloop
  endfacet
  facet normal 0 0 1
    outer loop
      vertex 11.1209 19.262 2
      vertex 8.77094 18.1362 2
      vertex 10.4709 18.1362 2
    endloop
  endfacet
  facet normal 0 0 1
    outer loop
      vertex 2.5 1.5 2
      vertex 7.92094 16.664 2
      vertex 6.87312 21.1533 2
    endloop
  endfacet
  facet normal 0 0 1
    outer loop
      vertex 8.77094 18.1362 2
      vertex 6.87312 21.1533 2
      vertex 7.92094 16.664 2
    endloop
  endfacet
  facet normal 0 0 1
    outer loop
      vertex 6.87312 21.1533 2
      vertex 8.77094 18.1362 2
      vertex 11.1209 19.262 2
    endloop
  endfacet
  facet normal 0 0 1
    outer loop
      vertex 21.7558 4.62435 2
      vertex 18.3919 1.47224 2
      vertex 20.0919 1.47224 2
    endloop
  endfacet
  facet normal -0 0 1
    outer loop
      vertex 15.814 8.1487 2
      vertex 18.3919 1.47224 2
      vertex 17.514 8.1487 2
    endloop
  endfacet
  facet normal -0.587784 -0.809018 0
    outer loop
      vertex -14.8827 -16.5289 0
      vertex -11.1209 -19.262 2
      vertex -14.8827 -16.5289 2
    endloop
  endfacet
  facet normal -0.587784 -0.809018 -0
    outer loop
      vertex -11.1209 -19.262 2
      vertex -14.8827 -16.5289 0
      vertex -11.1209 -19.262 0
    endloop
  endfacet
  facet normal 0.951061 -0.309003 0
    outer loop
      vertex 20.319 -9.04659 2
      vertex 21.7558 -4.62435 0
      vertex 21.7558 -4.62435 2
    endloop
  endfacet
  facet normal 0.951061 -0.309003 0
    outer loop
      vertex 21.7558 -4.62435 0
      vertex 20.319 -9.04659 2
      vertex 20.319 -9.04659 0
    endloop
  endfacet
  facet normal -0.587784 0.809018 0
    outer loop
      vertex -11.1209 19.262 0
      vertex -14.8827 16.5289 2
      vertex -11.1209 19.262 2
    endloop
  endfacet
  facet normal -0.587784 0.809018 0
    outer loop
      vertex -14.8827 16.5289 2
      vertex -11.1209 19.262 0
      vertex -14.8827 16.5289 0
    endloop
  endfacet
  facet normal -0.994521 -0.104541 0
    outer loop
      vertex -21.7558 -4.62435 0
      vertex -22.2419 0 2
      vertex -22.2419 0 0
    endloop
  endfacet
  facet normal -0.994521 -0.104541 0
    outer loop
      vertex -22.2419 0 2
      vertex -21.7558 -4.62435 0
      vertex -21.7558 -4.62435 2
    endloop
  endfacet
  facet normal -0.866024 -0.500003 0
    outer loop
      vertex -17.9941 -13.0734 0
      vertex -20.319 -9.04659 2
      vertex -20.319 -9.04659 0
    endloop
  endfacet
  facet normal -0.866024 -0.500003 0
    outer loop
      vertex -20.319 -9.04659 2
      vertex -17.9941 -13.0734 0
      vertex -17.9941 -13.0734 2
    endloop
  endfacet
  facet normal -0.866024 0.500003 0
    outer loop
      vertex -20.319 9.04659 0
      vertex -17.9941 13.0734 2
      vertex -17.9941 13.0734 0
    endloop
  endfacet
  facet normal -0.866024 0.500003 0
    outer loop
      vertex -17.9941 13.0734 2
      vertex -20.319 9.04659 0
      vertex -20.319 9.04659 2
    endloop
  endfacet
  facet normal 0.866024 -0.500003 0
    outer loop
      vertex 17.9941 -13.0734 2
      vertex 20.319 -9.04659 0
      vertex 20.319 -9.04659 2
    endloop
  endfacet
  facet normal 0.866024 -0.500003 0
    outer loop
      vertex 20.319 -9.04659 0
      vertex 17.9941 -13.0734 2
      vertex 17.9941 -13.0734 0
    endloop
  endfacet
  facet normal 0.587784 0.809018 -0
    outer loop
      vertex 14.8827 16.5289 0
      vertex 11.1209 19.262 2
      vertex 14.8827 16.5289 2
    endloop
  endfacet
  facet normal 0.587784 0.809018 0
    outer loop
      vertex 11.1209 19.262 2
      vertex 14.8827 16.5289 0
      vertex 11.1209 19.262 0
    endloop
  endfacet
  facet normal 0.743139 0.669137 0
    outer loop
      vertex 17.9941 13.0734 2
      vertex 14.8827 16.5289 0
      vertex 14.8827 16.5289 2
    endloop
  endfacet
  facet normal 0.743139 0.669137 0
    outer loop
      vertex 14.8827 16.5289 0
      vertex 17.9941 13.0734 2
      vertex 17.9941 13.0734 0
    endloop
  endfacet
  facet normal 0.866024 0.500003 0
    outer loop
      vertex 20.319 9.04659 2
      vertex 17.9941 13.0734 0
      vertex 17.9941 13.0734 2
    endloop
  endfacet
  facet normal 0.866024 0.500003 0
    outer loop
      vertex 17.9941 13.0734 0
      vertex 20.319 9.04659 2
      vertex 20.319 9.04659 0
    endloop
  endfacet
  facet normal 0.207901 0.97815 -0
    outer loop
      vertex 6.87312 21.1533 0
      vertex 2.32491 22.12 2
      vertex 6.87312 21.1533 2
    endloop
  endfacet
  facet normal 0.207901 0.97815 0
    outer loop
      vertex 2.32491 22.12 2
      vertex 6.87312 21.1533 0
      vertex 2.32491 22.12 0
    endloop
  endfacet
  facet normal 0.743139 -0.669137 0
    outer loop
      vertex 14.8827 -16.5289 2
      vertex 17.9941 -13.0734 0
      vertex 17.9941 -13.0734 2
    endloop
  endfacet
  facet normal 0.743139 -0.669137 0
    outer loop
      vertex 17.9941 -13.0734 0
      vertex 14.8827 -16.5289 2
      vertex 14.8827 -16.5289 0
    endloop
  endfacet
  facet normal 0 -1 0
    outer loop
      vertex -2.32491 -22.12 0
      vertex 2.32491 -22.12 2
      vertex -2.32491 -22.12 2
    endloop
  endfacet
  facet normal 0 -1 -0
    outer loop
      vertex 2.32491 -22.12 2
      vertex -2.32491 -22.12 0
      vertex 2.32491 -22.12 0
    endloop
  endfacet
  facet normal -0.994521 0.104541 0
    outer loop
      vertex -22.2419 0 0
      vertex -21.7558 4.62435 2
      vertex -21.7558 4.62435 0
    endloop
  endfacet
  facet normal -0.994521 0.104541 0
    outer loop
      vertex -21.7558 4.62435 2
      vertex -22.2419 0 0
      vertex -22.2419 0 2
    endloop
  endfacet
  facet normal -1 0 0
    outer loop
      vertex 2.5 -1.5 0
      vertex 2.5 1.5 2
      vertex 2.5 1.5 0
    endloop
  endfacet
  facet normal -1 -0 0
    outer loop
      vertex 2.5 1.5 2
      vertex 2.5 -1.5 0
      vertex 2.5 -1.5 2
    endloop
  endfacet
  facet normal 1 -0 0
    outer loop
      vertex -2.5 -1.5 2
      vertex -2.5 1.5 0
      vertex -2.5 1.5 2
    endloop
  endfacet
  facet normal 1 0 0
    outer loop
      vertex -2.5 1.5 0
      vertex -2.5 -1.5 2
      vertex -2.5 -1.5 0
    endloop
  endfacet
  facet normal 0 -1 0
    outer loop
      vertex -2.5 1.5 0
      vertex 2.5 1.5 2
      vertex -2.5 1.5 2
    endloop
  endfacet
  facet normal 0 -1 -0
    outer loop
      vertex 2.5 1.5 2
      vertex -2.5 1.5 0
      vertex 2.5 1.5 0
    endloop
  endfacet
  facet normal 0 1 -0
    outer loop
      vertex 2.5 -1.5 0
      vertex -2.5 -1.5 2
      vertex 2.5 -1.5 2
    endloop
  endfacet
  facet normal 0 1 0
    outer loop
      vertex -2.5 -1.5 2
      vertex 2.5 -1.5 0
      vertex -2.5 -1.5 0
    endloop
  endfacet
endsolid OpenSCAD_Model
